M48
INCH,TZ
VER,1
FMAT,2
DETECT,ON
ATC,ON
T1C0.11811
T2C0.02756
T3C0.09252
T4C0.01969
T5C0.03917
T6C0.03500
T7C0.04650
T8C0.04333
T9C0.23622
%
T1
X5.07874Y3.50394
X3.62869Y3.54331
X6.46462Y3.50394
X7.27141
X4.40094Y3.54331
X3.40266Y-2.60547
X4.03020
X4.65774
X5.28528
X5.90789Y-2.60055
X6.53543
X7.16297
X7.79543Y-2.61992
T2
X0.54014Y2.52537
X0.57951Y2.44663
X0.61888Y2.52537
X0.65825Y2.44663
X0.69762Y2.52537
X0.73699Y2.44663
X0.77636Y2.52537
X0.81573Y2.44663
X0.85510Y2.52537
X1.05195Y2.44663
X0.97321
X1.01258Y2.52537
X1.13069Y2.44663
X1.09132Y2.52537
X1.20943Y2.44663
X1.17006Y2.52537
X0.46140Y2.62380
X0.54014
X0.61888
X0.69762
X0.77636
X0.85510
X1.01258
X1.09132
X1.17006
X0.50077Y2.70254
X0.57951
X0.65825
X0.73699
X0.81573
X0.97321
X1.05195
X1.13069
X1.20943
X0.46140Y2.52537
X0.50077Y2.44663
X0.54014Y0.16317
X0.57951Y0.08443
X0.61888Y0.16317
X0.65825Y0.08443
X0.69762Y0.16317
X0.73699Y0.08443
X0.77636Y0.16317
X0.81573Y0.08443
X0.85510Y0.16317
X1.05195Y0.08443
X0.97321
X1.01258Y0.16317
X1.13069Y0.08443
X1.09132Y0.16317
X1.20943Y0.08443
X1.17006Y0.16317
X0.46140Y0.26159
X0.54014
X0.61888
X0.69762
X0.77636
X0.85510
X1.01258
X1.09132
X1.17006
X0.50077Y0.34033
X0.57951
X0.65825
X0.73699
X0.81573
X0.97321
X1.05195
X1.13069
X1.20943
X0.46140Y0.16317
X0.50077Y0.08443
X0.54014Y1.34427
X0.57951Y1.26553
X0.61888Y1.34427
X0.65825Y1.26553
X0.69762Y1.34427
X0.73699Y1.26553
X0.77636Y1.34427
X0.81573Y1.26553
X0.85510Y1.34427
X1.05195Y1.26553
X0.97321
X1.01258Y1.34427
X1.13069Y1.26553
X1.09132Y1.34427
X1.20943Y1.26553
X1.17006Y1.34427
X0.46140Y1.44270
X0.54014
X0.61888
X0.69762
X0.77636
X0.85510
X1.01258
X1.09132
X1.17006
X0.50077Y1.52144
X0.57951
X0.65825
X0.73699
X0.81573
X0.97321
X1.05195
X1.13069
X1.20943
X0.46140Y1.34427
X0.50077Y1.26553
X0.54014Y-1.01793
X0.57951Y-1.09667
X0.61888Y-1.01793
X0.65825Y-1.09667
X0.69762Y-1.01793
X0.73699Y-1.09667
X0.77636Y-1.01793
X0.81573Y-1.09667
X0.85510Y-1.01793
X1.05195Y-1.09667
X0.97321
X1.01258Y-1.01793
X1.13069Y-1.09667
X1.09132Y-1.01793
X1.20943Y-1.09667
X1.17006Y-1.01793
X0.46140Y-0.91951
X0.54014
X0.61888
X0.69762
X0.77636
X0.85510
X1.01258
X1.09132
X1.17006
X0.50077Y-0.84077
X0.57951
X0.65825
X0.73699
X0.81573
X0.97321
X1.05195
X1.13069
X1.20943
X0.46140Y-1.01793
X0.50077Y-1.09667
X2.58738Y2.52537
X2.62675Y2.44663
X2.66612Y2.52537
X2.70549Y2.44663
X2.74486Y2.52537
X2.78423Y2.44663
X2.82360Y2.52537
X2.86297Y2.44663
X2.90234Y2.52537
X3.09919Y2.44663
X3.02045
X3.05982Y2.52537
X3.17793Y2.44663
X3.13856Y2.52537
X3.25667Y2.44663
X3.21730Y2.52537
X2.50864Y2.62380
X2.58738
X2.66612
X2.74486
X2.82360
X2.90234
X3.05982
X3.13856
X3.21730
X2.54801Y2.70254
X2.62675
X2.70549
X2.78423
X2.86297
X3.02045
X3.09919
X3.17793
X3.25667
X2.50864Y2.52537
X2.54801Y2.44663
X2.58738Y1.34427
X2.62675Y1.26553
X2.66612Y1.34427
X2.70549Y1.26553
X2.74486Y1.34427
X2.78423Y1.26553
X2.82360Y1.34427
X2.86297Y1.26553
X2.90234Y1.34427
X3.09919Y1.26553
X3.02045
X3.05982Y1.34427
X3.17793Y1.26553
X3.13856Y1.34427
X3.25667Y1.26553
X3.21730Y1.34427
X2.50864Y1.44270
X2.58738
X2.66612
X2.74486
X2.82360
X2.90234
X3.05982
X3.13856
X3.21730
X2.54801Y1.52144
X2.62675
X2.70549
X2.78423
X2.86297
X3.02045
X3.09919
X3.17793
X3.25667
X2.50864Y1.34427
X2.54801Y1.26553
X2.58738Y0.16317
X2.62675Y0.08443
X2.66612Y0.16317
X2.70549Y0.08443
X2.74486Y0.16317
X2.78423Y0.08443
X2.82360Y0.16317
X2.86297Y0.08443
X2.90234Y0.16317
X3.09919Y0.08443
X3.02045
X3.05982Y0.16317
X3.17793Y0.08443
X3.13856Y0.16317
X3.25667Y0.08443
X3.21730Y0.16317
X2.50864Y0.26159
X2.58738
X2.66612
X2.74486
X2.82360
X2.90234
X3.05982
X3.13856
X3.21730
X2.54801Y0.34033
X2.62675
X2.70549
X2.78423
X2.86297
X3.02045
X3.09919
X3.17793
X3.25667
X2.50864Y0.16317
X2.54801Y0.08443
X2.58738Y-1.01793
X2.62675Y-1.09667
X2.66612Y-1.01793
X2.70549Y-1.09667
X2.74486Y-1.01793
X2.78423Y-1.09667
X2.82360Y-1.01793
X2.86297Y-1.09667
X2.90234Y-1.01793
X3.09919Y-1.09667
X3.02045
X3.05982Y-1.01793
X3.17793Y-1.09667
X3.13856Y-1.01793
X3.25667Y-1.09667
X3.21730Y-1.01793
X2.50864Y-0.91951
X2.58738
X2.66612
X2.74486
X2.82360
X2.90234
X3.05982
X3.13856
X3.21730
X2.54801Y-0.84077
X2.62675
X2.70549
X2.78423
X2.86297
X3.02045
X3.09919
X3.17793
X3.25667
X2.50864Y-1.01793
X2.54801Y-1.09667
X4.63463Y1.34427
X4.67400Y1.26553
X4.71337Y1.34427
X4.75274Y1.26553
X4.79211Y1.34427
X4.83148Y1.26553
X4.87085Y1.34427
X4.91022Y1.26553
X4.94959Y1.34427
X5.14644Y1.26553
X5.06770
X5.10707Y1.34427
X5.22518Y1.26553
X5.18581Y1.34427
X5.30392Y1.26553
X5.26455Y1.34427
X4.55589Y1.44270
X4.63463
X4.71337
X4.79211
X4.87085
X4.94959
X5.10707
X5.18581
X5.26455
X4.59526Y1.52144
X4.67400
X4.75274
X4.83148
X4.91022
X5.06770
X5.14644
X5.22518
X5.30392
X4.55589Y1.34427
X4.59526Y1.26553
X4.63463Y0.16317
X4.67400Y0.08443
X4.71337Y0.16317
X4.75274Y0.08443
X4.79211Y0.16317
X4.83148Y0.08443
X4.87085Y0.16317
X4.91022Y0.08443
X4.94959Y0.16317
X5.14644Y0.08443
X5.06770
X5.10707Y0.16317
X5.22518Y0.08443
X5.18581Y0.16317
X5.30392Y0.08443
X5.26455Y0.16317
X4.55589Y0.26159
X4.63463
X4.71337
X4.79211
X4.87085
X4.94959
X5.10707
X5.18581
X5.26455
X4.59526Y0.34033
X4.67400
X4.75274
X4.83148
X4.91022
X5.06770
X5.14644
X5.22518
X5.30392
X4.55589Y0.16317
X4.59526Y0.08443
X4.63463Y-1.01793
X4.67400Y-1.09667
X4.71337Y-1.01793
X4.75274Y-1.09667
X4.79211Y-1.01793
X4.83148Y-1.09667
X4.87085Y-1.01793
X4.91022Y-1.09667
X4.94959Y-1.01793
X5.14644Y-1.09667
X5.06770
X5.10707Y-1.01793
X5.22518Y-1.09667
X5.18581Y-1.01793
X5.30392Y-1.09667
X5.26455Y-1.01793
X4.55589Y-0.91951
X4.63463
X4.71337
X4.79211
X4.87085
X4.94959
X5.10707
X5.18581
X5.26455
X4.59526Y-0.84077
X4.67400
X4.75274
X4.83148
X4.91022
X5.06770
X5.14644
X5.22518
X5.30392
X4.55589Y-1.01793
X4.59526Y-1.09667
X4.63463Y2.52537
X4.67400Y2.44663
X4.71337Y2.52537
X4.75274Y2.44663
X4.79211Y2.52537
X4.83148Y2.44663
X4.87085Y2.52537
X4.91022Y2.44663
X4.94959Y2.52537
X5.14644Y2.44663
X5.06770
X5.10707Y2.52537
X5.22518Y2.44663
X5.18581Y2.52537
X5.30392Y2.44663
X5.26455Y2.52537
X4.55589Y2.62380
X4.63463
X4.71337
X4.79211
X4.87085
X4.94959
X5.10707
X5.18581
X5.26455
X4.59526Y2.70254
X4.67400
X4.75274
X4.83148
X4.91022
X5.06770
X5.14644
X5.22518
X5.30392
X4.55589Y2.52537
X4.59526Y2.44663
X6.68187Y1.34427
X6.72124Y1.26553
X6.76061Y1.34427
X6.79998Y1.26553
X6.83935Y1.34427
X6.87872Y1.26553
X6.91809Y1.34427
X6.95746Y1.26553
X6.99683Y1.34427
X7.19368Y1.26553
X7.11494
X7.15431Y1.34427
X7.27242Y1.26553
X7.23305Y1.34427
X7.35116Y1.26553
X7.31179Y1.34427
X6.60313Y1.44270
X6.68187
X6.76061
X6.83935
X6.91809
X6.99683
X7.15431
X7.23305
X7.31179
X6.64250Y1.52144
X6.72124
X6.79998
X6.87872
X6.95746
X7.11494
X7.19368
X7.27242
X7.35116
X6.60313Y1.34427
X6.64250Y1.26553
X6.68187Y0.16317
X6.72124Y0.08443
X6.76061Y0.16317
X6.79998Y0.08443
X6.83935Y0.16317
X6.87872Y0.08443
X6.91809Y0.16317
X6.95746Y0.08443
X6.99683Y0.16317
X7.19368Y0.08443
X7.11494
X7.15431Y0.16317
X7.27242Y0.08443
X7.23305Y0.16317
X7.35116Y0.08443
X7.31179Y0.16317
X6.60313Y0.26159
X6.68187
X6.76061
X6.83935
X6.91809
X6.99683
X7.15431
X7.23305
X7.31179
X6.64250Y0.34033
X6.72124
X6.79998
X6.87872
X6.95746
X7.11494
X7.19368
X7.27242
X7.35116
X6.60313Y0.16317
X6.64250Y0.08443
X6.68187Y-1.01793
X6.72124Y-1.09667
X6.76061Y-1.01793
X6.79998Y-1.09667
X6.83935Y-1.01793
X6.87872Y-1.09667
X6.91809Y-1.01793
X6.95746Y-1.09667
X6.99683Y-1.01793
X7.19368Y-1.09667
X7.11494
X7.15431Y-1.01793
X7.27242Y-1.09667
X7.23305Y-1.01793
X7.35116Y-1.09667
X7.31179Y-1.01793
X6.60313Y-0.91951
X6.68187
X6.76061
X6.83935
X6.91809
X6.99683
X7.15431
X7.23305
X7.31179
X6.64250Y-0.84077
X6.72124
X6.79998
X6.87872
X6.95746
X7.11494
X7.19368
X7.27242
X7.35116
X6.60313Y-1.01793
X6.64250Y-1.09667
X6.68187Y2.52537
X6.72124Y2.44663
X6.76061Y2.52537
X6.79998Y2.44663
X6.83935Y2.52537
X6.87872Y2.44663
X6.91809Y2.52537
X6.95746Y2.44663
X6.99683Y2.52537
X7.19368Y2.44663
X7.11494
X7.15431Y2.52537
X7.27242Y2.44663
X7.23305Y2.52537
X7.35116Y2.44663
X7.31179Y2.52537
X6.60313Y2.62380
X6.68187
X6.76061
X6.83935
X6.91809
X6.99683
X7.15431
X7.23305
X7.31179
X6.64250Y2.70254
X6.72124
X6.79998
X6.87872
X6.95746
X7.11494
X7.19368
X7.27242
X7.35116
X6.60313Y2.52537
X6.64250Y2.44663
T3
X0.92006Y2.57459
X1.28030
X0.92006Y0.21238
X1.28030
X0.92006Y1.39348
X1.28030
X0.92006Y-0.96872
X1.28030
X2.96730Y2.57459
X3.32754
X2.96730Y1.39348
X3.32754
X2.96730Y0.21238
X3.32754
X2.96730Y-0.96872
X3.32754
X5.01455Y1.39348
X5.37478
X5.01455Y0.21238
X5.37478
X5.01455Y-0.96872
X5.37478
X5.01455Y2.57459
X5.37478
X7.06179Y1.39348
X7.42203
X7.06179Y0.21238
X7.42203
X7.06179Y-0.96872
X7.42203
X7.06179Y2.57459
X7.42203
T4
X0.15354Y2.82874
X0.44488Y3.16732
X0.50000Y3.56693
X0.91339Y3.51378
X2.62205Y2.94094
X1.47244Y3.12598
X0.45866Y-1.69094
X0.94488Y-1.68504
X1.57677Y-1.66929
X0.41535Y-1.30906
X0.55512Y-1.23031
X1.64961Y-1.25000
X1.72441Y-1.30118
X0.94685Y-1.22244
X1.53937Y-1.19882
X0.02756Y-1.10630
X-0.05906Y-0.50591
X0.45866Y-0.50984
X0.41535Y-0.12795
X0.94291Y-0.13780
X1.09449Y-0.12795
X0.55512Y-0.04921
X1.04921
X1.31906Y-0.10630
X1.75591Y-0.07283
X0.90551Y-0.00197
X0.99213Y-0.01969
X1.52362Y-0.00984
X1.55709Y0.11220
X1.39173Y0.19291
X1.68898Y0.33465
X1.72441Y0.37992
X1.81890Y0.41732
X1.57874Y0.44291
X1.65945Y0.56496
X0.45866Y0.67126
X0.94488Y0.67717
X1.57677Y0.69291
X1.72441Y0.67323
X0.41535Y1.05315
X1.04921Y1.04724
X1.10039Y1.04921
X0.55512Y1.13189
X1.64961Y1.11220
X1.72441Y1.06102
X0.94685Y1.13976
X1.53937Y1.16339
X0.02756Y1.25591
X1.47835Y1.42913
X1.14961Y1.83268
X0.45866Y1.85236
X1.57677Y1.87008
X1.72441Y1.85827
X0.41535Y2.23425
X1.09449
X1.57677Y2.21654
X1.72638
X0.55512Y2.31299
X1.67323Y2.25591
X0.97441Y2.31890
X2.50591Y-1.69094
X3.62402Y-1.66929
X3.77165Y-1.68898
X2.11297Y-1.36636
X2.46260Y-1.30906
X3.04528Y-1.31496
X2.60236Y-1.23031
X3.69685Y-1.25000
X2.99409Y-1.22244
X3.58661Y-1.19882
X2.07480Y-1.10630
X1.98819Y-0.50591
X2.50591Y-0.50984
X2.11297Y-0.18526
X2.46260Y-0.12795
X2.99016Y-0.13780
X3.04528Y-0.13386
X3.14173Y-0.12795
X3.67323Y-0.12992
X2.60236Y-0.04921
X3.09646
X3.36630Y-0.10630
X3.80315Y-0.07283
X2.95276Y-0.00197
X3.03937Y-0.01969
X3.57087Y-0.00984
X3.60433Y0.11220
X3.43898Y0.19291
X3.73622Y0.33465
X3.77165Y0.37992
X3.86614Y0.41732
X3.62598Y0.44291
X3.70669Y0.56496
X2.50591Y0.67126
X2.99213Y0.67717
X3.62402Y0.69291
X3.77165Y0.67323
X2.11297Y0.99585
X2.46260Y1.05315
X3.04528Y1.04724
X3.09646
X3.14764Y1.04921
X2.60236Y1.13189
X3.69685Y1.11220
X3.65945Y1.07283
X3.77165Y1.06102
X2.99409Y1.13976
X3.58661Y1.16339
X2.07480Y1.25591
X3.48622Y1.37205
X3.52559Y1.42913
X3.19685Y1.83268
X2.50591Y1.85236
X3.62402Y1.87008
X3.77165Y1.85827
X2.11297Y2.17695
X2.46260Y2.23425
X2.99016Y2.22441
X3.04528Y2.22835
X3.14173Y2.23425
X3.62402Y2.21654
X3.67323Y2.23228
X3.77362Y2.21654
X2.60236Y2.31299
X3.72047Y2.25591
X3.02165Y2.31890
X3.47441Y2.46457
X6.60039Y-1.69094
X7.08661Y-1.68504
X7.71850Y-1.66929
X7.86614Y-1.68898
X6.20746Y-1.36636
X6.55709Y-1.30906
X7.13976Y-1.31496
X7.19882Y-1.31299
X6.69685Y-1.23031
X7.86614Y-1.30118
X7.08858Y-1.22244
X7.68110Y-1.19882
X6.16929Y-1.10630
X6.08268Y-0.50591
X6.60039Y-0.50984
X6.20746Y-0.18526
X6.55709Y-0.12795
X7.08465Y-0.13780
X7.13976Y-0.13386
X7.23622Y-0.12795
X7.76772Y-0.12992
X6.69685Y-0.04921
X7.19094
X7.46079Y-0.10630
X7.89764Y-0.07283
X7.04724Y-0.00197
X7.13386Y-0.01969
X7.66535Y-0.00984
X7.53346Y0.19291
X7.83071Y0.33465
X7.86614Y0.37992
X7.96063Y0.41732
X7.72047Y0.44291
X7.80118Y0.56496
X6.60039Y0.67126
X7.08661Y0.67717
X7.71850Y0.69291
X7.86614Y0.67323
X6.20746Y0.99585
X6.55709Y1.05315
X7.13976Y1.04724
X7.19094
X7.24213Y1.04921
X6.69685Y1.13189
X7.79134Y1.11220
X7.75394Y1.07283
X7.86614Y1.06102
X7.08858Y1.13976
X7.68110Y1.16339
X6.16929Y1.25591
X7.58071Y1.37205
X7.62008Y1.42913
X7.29134Y1.83268
X6.60039Y1.85236
X7.71850Y1.87008
X7.86614Y1.85827
X6.20746Y2.17695
X6.55709Y2.23425
X7.08465Y2.22441
X7.13976Y2.22835
X7.23622Y2.23425
X7.71850Y2.21654
X7.76772Y2.23228
X7.86811Y2.21654
X6.69685Y2.31299
X7.81496Y2.25591
X7.11614Y2.31890
X7.56890Y2.46457
X4.55315Y-1.69094
X5.03937Y-1.68504
X5.81890Y-1.68898
X4.16022Y-1.36636
X4.50984Y-1.30906
X5.09252Y-1.31496
X5.15157Y-1.31299
X4.64961Y-1.23031
X5.74409Y-1.25000
X5.81890Y-1.30118
X5.04134Y-1.22244
X5.63386Y-1.19882
X4.12205Y-1.10630
X4.03543Y-0.50591
X4.55315Y-0.50984
X4.16022Y-0.18526
X4.50984Y-0.12795
X5.03740Y-0.13780
X5.09252Y-0.13386
X5.18898Y-0.12795
X5.72047Y-0.12992
X4.64961Y-0.04921
X5.14370
X5.41355Y-0.10630
X5.85039Y-0.07283
X5.00000Y-0.00197
X5.08661Y-0.01969
X5.61811Y-0.00984
X5.65157Y0.11220
X5.48622Y0.19291
X5.78346Y0.33465
X5.81890Y0.37992
X5.91339Y0.41732
X5.67323Y0.44291
X5.75394Y0.56496
X4.55315Y0.67126
X5.03937Y0.67717
X5.67126Y0.69291
X5.81890Y0.67323
X4.16022Y0.99585
X4.50984Y1.05315
X5.09252Y1.04724
X5.14370
X5.19488Y1.04921
X4.64961Y1.13189
X5.74409Y1.11220
X5.70669Y1.07283
X5.81890Y1.06102
X5.04134Y1.13976
X5.63386Y1.16339
X4.12205Y1.25591
X5.53346Y1.37205
X5.57283Y1.42913
X5.24409Y1.83268
X4.55315Y1.85236
X5.67126Y1.87008
X5.81890Y1.85827
X4.16022Y2.17695
X4.50984Y2.23425
X5.03740Y2.22441
X5.09252Y2.22835
X5.18898Y2.23425
X5.67126Y2.21654
X5.72047Y2.23228
X5.82087Y2.21654
X4.64961Y2.31299
X5.76772Y2.25591
X5.06890Y2.31890
X5.52165Y2.46457
X6.59449Y-1.89764
X4.54528
X2.59646Y-1.94488
X1.38780Y-1.94094
X2.48425Y-1.99016
X3.83268Y-1.98622
X1.04921Y-1.30315
X1.60827Y-1.75984
X1.82480
X1.72441Y-1.68110
X3.11024Y-2.02165
X2.99213Y-1.68504
X3.37008Y-2.32480
X3.17323Y-2.04724
X3.46654Y-2.28740
X3.26181Y-2.04528
X0.06573Y-1.36636
X0.99803Y-1.31496
X0.06573Y-0.18526
X0.99803Y-0.13386
X1.62598Y-0.12992
X0.06573Y0.99585
X0.99803Y1.04724
X1.61220Y1.07283
X1.43898Y1.37205
X0.06573Y2.17695
X0.99803Y2.22835
X1.62598Y2.23228
X1.42717Y2.46457
X1.58661Y-1.24016
X3.10433Y-1.31299
X3.53543Y-2.24803
X3.32874Y-2.04528
X3.63780Y-1.25984
X3.61417Y-2.17913
X3.56890Y-2.04528
X3.71850Y-2.21654
X3.62598Y-2.02953
X3.75197Y-2.13976
X3.70276Y-2.03740
X3.27559Y-2.36811
X7.74213Y-1.26181
X6.89370Y-2.05906
X5.81496Y-2.13976
X5.73425Y-2.02165
X5.57283Y-2.03937
X5.50591Y-2.17913
X5.44882Y-2.04528
X5.10039Y-2.24803
X5.05906Y-2.06102
X4.81890Y-2.28543
X4.96654Y-2.05512
X4.62402Y-2.02559
X4.17323Y-2.31693
X1.68307Y3.34449
X4.65354Y2.78937
X5.74606Y2.93110
X5.23819Y3.05315
X5.94094Y2.86811
X6.75984Y2.86220
X2.37008Y3.63386
X7.98425Y-1.28937
X7.33858Y-1.64764
X7.99016Y-0.08268
X2.88583Y3.52165
X7.95866Y1.09055
X3.10236Y3.28937
X7.97047Y2.24213
X6.74213Y-1.64764
X4.69291Y-1.64961
X5.29134Y-1.64567
Y-0.46457
Y0.71654
X3.24213Y1.89370
X3.24409Y0.71654
Y-0.46260
Y-1.64370
X1.19685Y1.89370
X1.19488Y0.71850
Y-0.46654
X1.19685Y-1.64567
X6.74409Y-0.41535
X6.99016Y-0.47047
X6.99409Y0.70669
X6.75394Y0.76181
X6.99409Y1.88780
X6.74803Y1.94291
X4.94291Y-0.47047
X4.70669Y-0.41535
X4.94094Y0.70472
X4.70866Y0.75984
X4.94094Y1.88386
X4.69488Y1.93898
X2.89370Y1.89567
X2.64764Y1.95079
X2.89764Y0.71063
X2.65945Y0.76575
X2.89567Y-0.47638
X2.65945Y-0.42126
X2.89370Y-1.65748
X2.64764Y-1.60236
X0.84646Y-1.65551
X0.60039Y-1.60039
X0.85039Y-0.47441
X0.61220Y-0.41929
X0.85236Y0.70079
X0.61220Y0.75591
X0.84252Y1.88583
X0.59646Y1.94094
X3.07677Y3.23622
X4.30118Y2.28543
X2.95669Y3.43898
X4.30118Y1.08268
X2.51969Y2.96260
X2.31693Y3.63189
X2.22047Y3.60827
X4.30118Y-0.08661
X2.28740Y3.53543
X4.29724Y-1.25394
X2.20079Y3.38780
X2.85630
X2.87008Y3.18701
X2.56890Y2.94685
X2.31693Y2.83465
X2.25787Y2.28543
X2.26575Y2.87795
X2.07283Y1.64173
X1.98425Y0.59843
X2.25787Y-0.06102
X1.96654Y3.15551
X1.96850Y0.50787
X2.25394Y-1.22244
X5.29331Y1.89173
X7.34252
X7.61811
X7.34646Y0.71260
X7.34449Y-0.46850
X7.61024Y-0.47638
X2.88780Y3.34055
X2.85827Y3.07480
X2.36614Y2.82677
X2.30315Y2.66142
X1.82480Y2.23228
X2.37205Y2.61024
X1.84646Y1.07677
X2.00984Y2.37795
X1.86024Y-0.09646
X2.19685Y3.33661
X2.07874Y3.03740
X2.07480Y2.36220
X1.84252Y-1.27165
X7.12402Y-2.05118
X7.30906Y-2.06102
X7.22835Y-2.05906
X7.56299Y-2.01378
X7.59449Y-2.09252
X2.04724Y-1.99016
X7.73228Y0.10433
X7.78150Y-1.19291
X0.94291Y2.20669
X4.43110Y-2.05906
X7.20472Y1.77362
X5.15748Y1.75394
X1.05906Y1.74213
X3.10433Y0.55906
X5.15748Y0.57087
X7.20472Y0.56496
X1.05906Y-0.62795
X3.11024Y-0.63386
X5.15354Y-0.63780
X7.20472Y-0.62992
X7.22244Y-1.78740
X6.56890Y-1.77953
X5.12598Y-1.79528
X4.52165Y-1.77559
X3.12205Y-1.77165
X2.47441Y-1.76772
X0.41339Y-1.76575
X6.60039Y-0.72638
X6.59055Y0.51181
X4.55709Y0.48031
X0.44882
X4.55118Y-0.72244
X0.45669Y1.62992
X2.50000Y1.64764
X4.55118Y1.63780
X6.60039Y1.64370
X2.25787Y2.50984
X1.79724Y3.41831
X6.06299Y2.54921
X4.08858Y2.98622
X4.40157Y0.11024
X4.15354Y0.24213
X4.39961Y-0.74016
X4.37008Y-1.06890
X4.18701Y-0.88976
X2.10827Y-0.93701
X2.11614Y0.26181
X0.81299Y0.52559
X1.48228Y0.50787
X3.53543Y0.51969
X3.68504Y0.19291
X1.57874Y-0.87008
X3.88386Y1.61024
X4.18701Y1.44882
X4.37598Y1.64961
X2.03740Y1.46654
X2.23228Y1.70079
X1.42520Y1.68307
X0.28150Y1.67717
X6.02756Y1.64370
X6.26181Y1.47835
X6.20472Y0.31890
X6.30315Y-0.86614
X6.26181Y-2.02953
X5.67913Y-0.86811
X5.97638Y-1.05118
X0.07874Y1.12992
X0.25984Y0.11024
X0.26969Y-1.08858
X2.34055Y-1.07480
X2.12008Y-1.20866
X2.32480Y0.11417
X2.32677Y1.29134
X2.19685Y1.22835
X2.37992Y2.42126
X2.17126Y2.31102
X4.39370Y2.42323
X4.37992Y1.27165
X6.41142Y-1.09055
X6.45866Y0.10630
X6.41339Y1.25591
X6.37402Y2.39567
X2.19291Y2.97244
X0.44685Y3.31693
X4.98228Y2.80315
X2.38583Y3.81496
X7.53150Y2.77165
X2.57087Y3.61417
X1.55118Y3.04134
X3.43701Y2.56299
X5.76969Y-0.10688
X7.81693
X3.72244
X1.67520
X4.60827Y-1.94291
X6.68701
X2.67126Y-1.22441
X4.72244Y-1.21949
X6.77478Y-1.21932
X0.62795Y-1.21949
X2.67323Y-0.03740
X4.72047
X6.76772
X0.62598
X2.67323Y1.14370
X4.72047
X0.62598
X6.76772
X2.67323Y2.32480
X4.72047
X0.62598
X6.76772
X0.06573Y1.93482
X0.35904Y1.87774
X0.40974Y1.78150
X0.99409Y1.82468
X4.16022Y1.93482
X0.06573Y0.75372
X6.20746Y1.93482
X2.11297
X4.45352Y1.87774
X0.35904Y0.69663
X4.48622Y1.77559
X0.40945Y0.59449
X6.50077Y1.87774
X2.40628
X6.55315Y1.80315
X2.45669Y1.78937
X5.08778Y1.82364
X0.99016Y0.63583
X1.05709Y0.56890
X7.13780Y1.84449
X3.04134Y1.82622
X4.16022Y0.75372
X3.10630Y1.75591
X0.06573Y-0.42738
X6.20746Y0.75372
X2.11297
X4.45352Y0.69663
X0.35904Y-0.48447
X4.52165Y0.58858
X6.50077Y0.69663
X2.40628
X0.41142Y-0.59055
X6.55315Y0.59646
X2.45571Y0.60827
X5.09055Y0.64720
X0.99213Y-0.53822
X7.13780Y0.64524
X3.04134Y0.64358
X4.16022Y-0.42738
X0.06573Y-1.60848
X6.20746Y-0.42738
X2.11297
X4.45352Y-0.48447
X0.35904Y-1.66557
X4.50492Y-0.59449
X6.50077Y-0.48447
X2.40628
X6.55315Y-0.60630
X2.45866Y-0.58268
X5.08969Y-0.53665
X0.99213Y-1.71654
X7.13693Y-0.53665
X3.04134Y-0.53937
X1.12402Y-1.76772
X4.16022Y-1.60848
X6.20746
X2.11297
X4.45352Y-1.66557
X6.50077
X2.40628
X5.09055Y-1.68547
X7.13600Y-1.71868
X3.03937Y-1.71654
X0.87598Y3.26969
X2.46850Y2.97835
X0.81693Y3.11614
X1.40354Y3.45276
X2.51969Y3.05118
X1.59646Y4.12008
X3.32283Y3.84843
X3.20276Y3.11811
X0.35707Y2.22321
X3.78937Y2.70866
X5.52165Y2.64130
X1.33465Y2.18307
X2.40431Y2.22321
X4.45156
X6.49880
X0.35707Y1.04211
X3.38189Y2.18307
X5.42913
X0.70669Y2.17913
X1.33465Y1.00197
X2.40431Y1.04211
X7.47638Y2.18307
X2.75394Y2.17913
X6.49880Y1.04211
X4.80118Y2.17913
X4.45156Y1.04211
X1.77953Y0.56496
X3.38189Y1.00197
X5.42913
X0.35707Y-0.13900
X0.70669Y0.99803
X6.84843Y2.17913
X1.33465Y-0.17913
X3.82677Y0.56496
X7.47638Y1.00197
X5.87402Y0.56496
X2.40431Y-0.13900
X2.75394Y0.99803
X4.80118
X3.38189Y-0.17913
X7.92126Y0.56496
X6.49880Y-0.13900
X5.42913Y-0.17913
X0.70669Y-0.18307
X1.33465Y-1.36024
X4.45156Y-0.13900
X3.38189Y-0.23819
X5.43110Y-0.25787
X6.84843Y0.99803
X0.35707Y-1.32010
X7.47638Y-0.17913
X7.47441Y-0.23524
X2.75394Y-0.18307
X4.80118
X0.70669Y-1.36417
X2.40431Y-1.32010
X5.68504Y-1.25591
X3.38189Y-1.36024
X6.84843Y-0.18307
X6.49880Y-1.32010
X5.42913Y-1.36024
X4.45156Y-1.32010
X7.47638Y-1.36024
X2.75394Y-1.36417
X4.80118
X6.84843
X0.75394Y-1.89567
X2.50000Y-1.89764
X0.30512Y-1.29232
X6.44685Y-1.30709
X4.39764Y-1.29921
X2.35236Y-1.30353
X2.44094Y2.81299
X1.47638Y0.71654
X2.25394Y1.13583
X3.52559Y0.71457
X5.57283
X7.62008Y0.71063
X1.47638Y-0.46850
X3.52559Y-0.46457
X5.57283Y-0.46654
X1.47835Y-1.64764
X3.52559Y-1.64567
X4.93701Y-1.64961
X5.57283Y-1.64764
X7.62008Y-1.64961
X6.98622Y-1.64764
X5.87795Y-1.98622
X4.01969Y-1.79921
X6.22244Y0.51378
X4.17520
X2.50591Y-0.72835
X2.12795Y0.51378
X0.45866Y-0.72441
X2.50000Y0.48622
X0.08071Y0.51378
X5.04134Y-0.50787
X2.99409
X0.94685
X7.08858
X5.04134Y1.85433
X2.99409
X0.94685
X7.08858
X0.94488Y-1.30315
X7.08661Y-1.32677
X2.99213Y-1.30512
X5.03937Y-1.32776
X0.94488Y1.04724
X7.08661
X5.03937
X2.99213
X7.23819Y-1.33268
X5.19094Y-1.33465
X1.09646Y-1.32087
X7.16339Y-1.23031
X3.14370Y-1.33071
X1.02165Y-1.22244
X5.11614Y-1.23031
X3.06890
X7.15748Y1.13976
X1.01575
X5.11024
X3.06299
X1.23425Y-1.71260
X7.36183Y-1.71063
X3.26734
X1.32480Y-1.28740
X7.46654
X5.31459Y-1.71063
X3.37205Y-1.28740
X1.14845Y-0.53346
X7.29019
X5.41929Y-1.28740
X3.19570Y-0.53346
X5.24294
X1.22047Y0.64961
X7.36220
X3.26772
X1.32480Y1.07480
X7.46654
X5.31496Y0.64961
X3.37205Y1.07480
X5.41929
X5.59449Y-2.21850
X5.67126Y-1.67323
X1.57677Y-0.49311
X3.62402
X5.67126
X7.71850
X7.45472Y-2.07283
X3.62402Y-1.32677
X7.71850Y-1.33268
X5.67056Y-1.32747
X1.57480Y-1.31890
X3.62205Y-0.14469
X7.71654
X5.66929
X1.57480
X3.88386Y1.29921
X8.04528Y1.23031
X5.93110Y1.29921
X1.83661
X3.77096Y-1.29991
X7.86811Y-0.50295
X5.82087
X3.77362
X1.72638
X1.47835Y1.89173
X3.52362
X5.57283Y1.89370
T5
X0.40945Y3.95276
T6
X0.50945Y3.95276
X1.16246Y-2.63106
X1.93106
X2.69967
X0.39386Y-2.64551
T7
X0.23622Y3.74016
Y3.64016
Y3.54016
Y3.44016
Y3.34016
Y3.24016
Y3.14016
Y3.04016
T8
X0.96246Y-2.43106
Y-2.83106
X1.36246Y-2.43106
Y-2.83106
X1.73106Y-2.43106
Y-2.83106
X2.13106Y-2.43106
Y-2.83106
X2.49967Y-2.43106
Y-2.83106
X2.89967Y-2.43106
Y-2.83106
X0.19386Y-2.44551
Y-2.84551
X0.59386Y-2.44551
Y-2.84551
T9
X8.00787Y3.97244
X-0.00787Y3.98622
X-0.03346Y-2.76969
X8.04528Y-2.80906
M30
