G04 Generated by Ultiboard 13.0 *
%FSLAX34Y34*%
%MOMM*%

%ADD10C,0.0001*%
%ADD11C,0.1000*%
%ADD12C,0.0100*%
%ADD13C,0.1270*%


G04 ColorRGB 000000 for the following layer *
%LNDrill Symbols-Copper Top-Copper Bottom*%
%LPD*%
G54D11*
X1275000Y890000D02*
X1305000Y890000D01*
X1290000Y875000D02*
X1290000Y905000D01*
X906688Y900000D02*
X936688Y900000D01*
X921688Y885000D02*
X921688Y915000D01*
X1627013Y890000D02*
X1657013Y890000D01*
X1642013Y875000D02*
X1642013Y905000D01*
X1831938Y890000D02*
X1861938Y890000D01*
X1846938Y875000D02*
X1846938Y905000D01*
X221945Y653945D02*
G75*
D01*
G02X221945Y653945I11750J0*
G01*
X313445Y653945D02*
G75*
D01*
G02X313445Y653945I11750J0*
G01*
X221945Y53945D02*
G75*
D01*
G02X221945Y53945I11750J0*
G01*
X313445Y53945D02*
G75*
D01*
G02X313445Y53945I11750J0*
G01*
X221945Y353945D02*
G75*
D01*
G02X221945Y353945I11750J0*
G01*
X313445Y353945D02*
G75*
D01*
G02X313445Y353945I11750J0*
G01*
X221945Y-246055D02*
G75*
D01*
G02X221945Y-246055I11750J0*
G01*
X313445Y-246055D02*
G75*
D01*
G02X313445Y-246055I11750J0*
G01*
X741945Y653945D02*
G75*
D01*
G02X741945Y653945I11750J0*
G01*
X833445Y653945D02*
G75*
D01*
G02X833445Y653945I11750J0*
G01*
X741945Y353945D02*
G75*
D01*
G02X741945Y353945I11750J0*
G01*
X833445Y353945D02*
G75*
D01*
G02X833445Y353945I11750J0*
G01*
X741945Y53945D02*
G75*
D01*
G02X741945Y53945I11750J0*
G01*
X833445Y53945D02*
G75*
D01*
G02X833445Y53945I11750J0*
G01*
X741945Y-246055D02*
G75*
D01*
G02X741945Y-246055I11750J0*
G01*
X833445Y-246055D02*
G75*
D01*
G02X833445Y-246055I11750J0*
G01*
X1261945Y353945D02*
G75*
D01*
G02X1261945Y353945I11750J0*
G01*
X1353445Y353945D02*
G75*
D01*
G02X1353445Y353945I11750J0*
G01*
X1261945Y53945D02*
G75*
D01*
G02X1261945Y53945I11750J0*
G01*
X1353445Y53945D02*
G75*
D01*
G02X1353445Y53945I11750J0*
G01*
X1261945Y-246055D02*
G75*
D01*
G02X1261945Y-246055I11750J0*
G01*
X1353445Y-246055D02*
G75*
D01*
G02X1353445Y-246055I11750J0*
G01*
X1261945Y653945D02*
G75*
D01*
G02X1261945Y653945I11750J0*
G01*
X1353445Y653945D02*
G75*
D01*
G02X1353445Y653945I11750J0*
G01*
X1781945Y353945D02*
G75*
D01*
G02X1781945Y353945I11750J0*
G01*
X1873445Y353945D02*
G75*
D01*
G02X1873445Y353945I11750J0*
G01*
X1781945Y53945D02*
G75*
D01*
G02X1781945Y53945I11750J0*
G01*
X1873445Y53945D02*
G75*
D01*
G02X1873445Y53945I11750J0*
G01*
X1781945Y-246055D02*
G75*
D01*
G02X1781945Y-246055I11750J0*
G01*
X1873445Y-246055D02*
G75*
D01*
G02X1873445Y-246055I11750J0*
G01*
X1781945Y653945D02*
G75*
D01*
G02X1781945Y653945I11750J0*
G01*
X1873445Y653945D02*
G75*
D01*
G02X1873445Y653945I11750J0*
G01*
X1102838Y900000D02*
X1132838Y900000D01*
X1117838Y885000D02*
X1117838Y915000D01*
X57704Y948313D02*
X57704Y950844D01*
X59016Y952531D01*
X60328Y952531D01*
X61640Y950844D01*
X61640Y948313D01*
X57704Y949578D02*
X61640Y949578D01*
X54095Y950000D02*
G75*
D01*
G02X54095Y950000I5905J0*
G01*
X57704Y922913D02*
X57704Y925444D01*
X59016Y927131D01*
X60328Y927131D01*
X61640Y925444D01*
X61640Y922913D01*
X57704Y924178D02*
X61640Y924178D01*
X54095Y924600D02*
G75*
D01*
G02X54095Y924600I5905J0*
G01*
X57704Y897513D02*
X57704Y900044D01*
X59016Y901731D01*
X60328Y901731D01*
X61640Y900044D01*
X61640Y897513D01*
X57704Y898778D02*
X61640Y898778D01*
X54095Y899200D02*
G75*
D01*
G02X54095Y899200I5905J0*
G01*
X57704Y872113D02*
X57704Y874644D01*
X59016Y876331D01*
X60328Y876331D01*
X61640Y874644D01*
X61640Y872113D01*
X57704Y873378D02*
X61640Y873378D01*
X54095Y873800D02*
G75*
D01*
G02X54095Y873800I5905J0*
G01*
X57704Y846713D02*
X57704Y849244D01*
X59016Y850931D01*
X60328Y850931D01*
X61640Y849244D01*
X61640Y846713D01*
X57704Y847978D02*
X61640Y847978D01*
X54095Y848400D02*
G75*
D01*
G02X54095Y848400I5905J0*
G01*
X57704Y821313D02*
X57704Y823844D01*
X59016Y825531D01*
X60328Y825531D01*
X61640Y823844D01*
X61640Y821313D01*
X57704Y822578D02*
X61640Y822578D01*
X54095Y823000D02*
G75*
D01*
G02X54095Y823000I5905J0*
G01*
X57704Y795913D02*
X57704Y798444D01*
X59016Y800131D01*
X60328Y800131D01*
X61640Y798444D01*
X61640Y795913D01*
X57704Y797178D02*
X61640Y797178D01*
X54095Y797600D02*
G75*
D01*
G02X54095Y797600I5905J0*
G01*
X57704Y770513D02*
X57704Y773044D01*
X59016Y774731D01*
X60328Y774731D01*
X61640Y773044D01*
X61640Y770513D01*
X57704Y771778D02*
X61640Y771778D01*
X54095Y772200D02*
G75*
D01*
G02X54095Y772200I5905J0*
G01*
X242325Y-619062D02*
X242325Y-616704D01*
X243548Y-615131D01*
X244771Y-615131D01*
X245994Y-616704D01*
X245994Y-619062D01*
X242325Y-617883D02*
X245994Y-617883D01*
X238962Y-622993D02*
X249968Y-622993D01*
X249968Y-611987D01*
X238962Y-611987D01*
X238962Y-622993D01*
X242325Y-720662D02*
X242325Y-718304D01*
X243548Y-716731D01*
X244771Y-716731D01*
X245994Y-718304D01*
X245994Y-720662D01*
X242325Y-719483D02*
X245994Y-719483D01*
X238962Y-724593D02*
X249968Y-724593D01*
X249968Y-713587D01*
X238962Y-713587D01*
X238962Y-724593D01*
X343925Y-619062D02*
X343925Y-616704D01*
X345148Y-615131D01*
X346371Y-615131D01*
X347594Y-616704D01*
X347594Y-619062D01*
X343925Y-617883D02*
X347594Y-617883D01*
X340562Y-622993D02*
X351568Y-622993D01*
X351568Y-611987D01*
X340562Y-611987D01*
X340562Y-622993D01*
X343925Y-720662D02*
X343925Y-718304D01*
X345148Y-716731D01*
X346371Y-716731D01*
X347594Y-718304D01*
X347594Y-720662D01*
X343925Y-719483D02*
X347594Y-719483D01*
X340562Y-724593D02*
X351568Y-724593D01*
X351568Y-713587D01*
X340562Y-713587D01*
X340562Y-724593D01*
X437550Y-619062D02*
X437550Y-616704D01*
X438773Y-615131D01*
X439996Y-615131D01*
X441219Y-616704D01*
X441219Y-619062D01*
X437550Y-617883D02*
X441219Y-617883D01*
X434188Y-622993D02*
X445193Y-622993D01*
X445193Y-611987D01*
X434188Y-611987D01*
X434188Y-622993D01*
X437550Y-720662D02*
X437550Y-718304D01*
X438773Y-716731D01*
X439996Y-716731D01*
X441219Y-718304D01*
X441219Y-720662D01*
X437550Y-719483D02*
X441219Y-719483D01*
X434188Y-724593D02*
X445193Y-724593D01*
X445193Y-713587D01*
X434188Y-713587D01*
X434188Y-724593D01*
X539150Y-619062D02*
X539150Y-616704D01*
X540373Y-615131D01*
X541596Y-615131D01*
X542819Y-616704D01*
X542819Y-619062D01*
X539150Y-617883D02*
X542819Y-617883D01*
X535788Y-622993D02*
X546793Y-622993D01*
X546793Y-611987D01*
X535788Y-611987D01*
X535788Y-622993D01*
X539150Y-720662D02*
X539150Y-718304D01*
X540373Y-716731D01*
X541596Y-716731D01*
X542819Y-718304D01*
X542819Y-720662D01*
X539150Y-719483D02*
X542819Y-719483D01*
X535788Y-724593D02*
X546793Y-724593D01*
X546793Y-713587D01*
X535788Y-713587D01*
X535788Y-724593D01*
X632776Y-619062D02*
X632776Y-616704D01*
X633999Y-615131D01*
X635221Y-615131D01*
X636444Y-616704D01*
X636444Y-619062D01*
X632776Y-617883D02*
X636444Y-617883D01*
X629413Y-622993D02*
X640419Y-622993D01*
X640419Y-611987D01*
X629413Y-611987D01*
X629413Y-622993D01*
X632776Y-720662D02*
X632776Y-718304D01*
X633999Y-716731D01*
X635221Y-716731D01*
X636444Y-718304D01*
X636444Y-720662D01*
X632776Y-719483D02*
X636444Y-719483D01*
X629413Y-724593D02*
X640419Y-724593D01*
X640419Y-713587D01*
X629413Y-713587D01*
X629413Y-724593D01*
X734376Y-619062D02*
X734376Y-616704D01*
X735599Y-615131D01*
X736821Y-615131D01*
X738044Y-616704D01*
X738044Y-619062D01*
X734376Y-617883D02*
X738044Y-617883D01*
X731013Y-622993D02*
X742019Y-622993D01*
X742019Y-611987D01*
X731013Y-611987D01*
X731013Y-622993D01*
X734376Y-720662D02*
X734376Y-718304D01*
X735599Y-716731D01*
X736821Y-716731D01*
X738044Y-718304D01*
X738044Y-720662D01*
X734376Y-719483D02*
X738044Y-719483D01*
X731013Y-724593D02*
X742019Y-724593D01*
X742019Y-713587D01*
X731013Y-713587D01*
X731013Y-724593D01*
X47100Y-622732D02*
X47100Y-620374D01*
X48323Y-618802D01*
X49546Y-618802D01*
X50769Y-620374D01*
X50769Y-622732D01*
X47100Y-621553D02*
X50769Y-621553D01*
X43737Y-626663D02*
X54743Y-626663D01*
X54743Y-615657D01*
X43737Y-615657D01*
X43737Y-626663D01*
X47100Y-724332D02*
X47100Y-721974D01*
X48323Y-720402D01*
X49546Y-720402D01*
X50769Y-721974D01*
X50769Y-724332D01*
X47100Y-723153D02*
X50769Y-723153D01*
X43737Y-728263D02*
X54743Y-728263D01*
X54743Y-717257D01*
X43737Y-717257D01*
X43737Y-728263D01*
X148700Y-622732D02*
X148700Y-620374D01*
X149923Y-618802D01*
X151146Y-618802D01*
X152369Y-620374D01*
X152369Y-622732D01*
X148700Y-621553D02*
X152369Y-621553D01*
X145337Y-626663D02*
X156343Y-626663D01*
X156343Y-615657D01*
X145337Y-615657D01*
X145337Y-626663D01*
X148700Y-724332D02*
X148700Y-721974D01*
X149923Y-720402D01*
X151146Y-720402D01*
X152369Y-721974D01*
X152369Y-724332D01*
X148700Y-723153D02*
X152369Y-723153D01*
X145337Y-728263D02*
X156343Y-728263D01*
X156343Y-717257D01*
X145337Y-717257D01*
X145337Y-728263D01*
X849276Y-661790D02*
X879276Y-661790D01*
X864276Y-676790D02*
X864276Y-646790D01*
X1008671Y-661790D02*
X1038671Y-661790D01*
X1023671Y-676790D02*
X1023671Y-646790D01*
X1168066Y-661790D02*
X1198066Y-661790D01*
X1183066Y-676790D02*
X1183066Y-646790D01*
X1327460Y-661790D02*
X1357460Y-661790D01*
X1342460Y-676790D02*
X1342460Y-646790D01*
X1485605Y-660540D02*
X1515605Y-660540D01*
X1500605Y-675540D02*
X1500605Y-645540D01*
X1645000Y-660540D02*
X1675000Y-660540D01*
X1660000Y-675540D02*
X1660000Y-645540D01*
X1804395Y-660540D02*
X1834395Y-660540D01*
X1819395Y-675540D02*
X1819395Y-645540D01*
X1965040Y-665460D02*
X1995040Y-665460D01*
X1980040Y-680460D02*
X1980040Y-650460D01*
X2022333Y1000429D02*
X2022333Y1013286D01*
X2029000Y1021857D01*
X2035667Y1021857D01*
X2042333Y1013286D01*
X2042333Y1000429D01*
X2022333Y1006857D02*
X2042333Y1006857D01*
X2034000Y966574D02*
X2076426Y1009000D01*
X2034000Y1051426D01*
X1991574Y1009000D01*
X2034000Y966574D01*
X-13667Y1003929D02*
X-13667Y1016786D01*
X-7000Y1025357D01*
X-333Y1025357D01*
X6333Y1016786D01*
X6333Y1003929D01*
X-13667Y1010357D02*
X6333Y1010357D01*
X-2000Y970074D02*
X40426Y1012500D01*
X-2000Y1054926D01*
X-44426Y1012500D01*
X-2000Y970074D01*
X-20167Y-712071D02*
X-20167Y-699214D01*
X-13500Y-690643D01*
X-6833Y-690643D01*
X-167Y-699214D01*
X-167Y-712071D01*
X-20167Y-705643D02*
X-167Y-705643D01*
X-8500Y-745926D02*
X33926Y-703500D01*
X-8500Y-661074D01*
X-50926Y-703500D01*
X-8500Y-745926D01*
X2031833Y-722071D02*
X2031833Y-709214D01*
X2038500Y-700643D01*
X2045167Y-700643D01*
X2051833Y-709214D01*
X2051833Y-722071D01*
X2031833Y-715643D02*
X2051833Y-715643D01*
X2043500Y-755926D02*
X2085926Y-713500D01*
X2043500Y-671074D01*
X2001074Y-713500D01*
X2043500Y-755926D01*
X2497315Y-21419D02*
X2539741Y21008D01*
X2497315Y63434D01*
X2454889Y21008D01*
X2497315Y-21419D01*
X2485648Y12436D02*
X2485648Y25294D01*
X2492315Y33865D01*
X2498982Y33865D01*
X2505648Y25294D01*
X2505648Y12436D01*
X2485648Y18865D02*
X2505648Y18865D01*
X2618315Y33865D02*
X2608315Y33865D01*
X2601648Y29579D01*
X2601648Y21008D01*
X2601648Y16722D01*
X2608315Y12436D01*
X2614982Y12436D01*
X2621648Y16722D01*
X2621648Y21008D01*
X2614982Y25294D01*
X2608315Y25294D01*
X2601648Y21008D01*
X2641648Y12436D02*
X2641648Y14579D01*
X2661648Y29579D02*
X2668315Y33865D01*
X2674982Y33865D01*
X2681648Y29579D01*
X2681648Y16722D01*
X2674982Y12436D01*
X2668315Y12436D01*
X2661648Y16722D01*
X2661648Y29579D01*
X2681648Y29579D02*
X2661648Y16722D01*
X2691648Y29579D02*
X2698315Y33865D01*
X2704982Y33865D01*
X2711648Y29579D01*
X2711648Y16722D01*
X2704982Y12436D01*
X2698315Y12436D01*
X2691648Y16722D01*
X2691648Y29579D01*
X2711648Y29579D02*
X2691648Y16722D01*
X2721648Y29579D02*
X2728315Y33865D01*
X2734982Y33865D01*
X2741648Y29579D01*
X2741648Y16722D01*
X2734982Y12436D01*
X2728315Y12436D01*
X2721648Y16722D01*
X2721648Y29579D01*
X2741648Y29579D02*
X2721648Y16722D01*
X2751648Y29579D02*
X2758315Y33865D01*
X2764982Y33865D01*
X2771648Y29579D01*
X2771648Y16722D01*
X2764982Y12436D01*
X2758315Y12436D01*
X2751648Y16722D01*
X2751648Y29579D01*
X2771648Y29579D02*
X2751648Y16722D01*
X2917648Y21008D02*
X2897648Y21008D01*
X2914315Y33865D01*
X2914315Y12436D01*
X2910982Y12436D02*
X2917648Y12436D01*
X3073648Y12436D02*
X3073648Y33865D01*
X3093648Y12436D01*
X3093648Y33865D01*
X3103648Y12436D02*
X3103648Y33865D01*
X3116982Y33865D01*
X3123648Y29579D01*
X3123648Y27436D01*
X3116982Y23151D01*
X3103648Y23151D01*
X3143648Y12436D02*
X3143648Y33865D01*
X3133648Y33865D02*
X3153648Y33865D01*
X3163648Y12436D02*
X3163648Y33865D01*
X3183648Y12436D02*
X3183648Y33865D01*
X3163648Y23151D02*
X3183648Y23151D01*
X3264648Y29579D02*
X3271315Y33865D01*
X3277982Y33865D01*
X3284648Y29579D01*
X3284648Y16722D01*
X3277982Y12436D01*
X3271315Y12436D01*
X3264648Y16722D01*
X3264648Y29579D01*
X3284648Y29579D02*
X3264648Y16722D01*
X3341315Y12436D02*
X3337982Y12436D01*
X3331315Y16722D01*
X3331315Y29579D01*
X3337982Y33865D01*
X3341315Y33865D01*
X3354648Y12436D02*
X3354648Y33865D01*
X3367982Y33865D01*
X3374648Y29579D01*
X3374648Y27436D01*
X3367982Y23151D01*
X3354648Y23151D01*
X3357982Y23151D02*
X3374648Y12436D01*
X3384648Y16722D02*
X3391315Y12436D01*
X3397982Y12436D01*
X3404648Y16722D01*
X3404648Y29579D01*
X3397982Y33865D01*
X3391315Y33865D01*
X3384648Y29579D01*
X3384648Y16722D01*
X3414648Y33865D02*
X3414648Y16722D01*
X3421315Y12436D01*
X3427982Y12436D01*
X3434648Y16722D01*
X3434648Y33865D01*
X3444648Y12436D02*
X3444648Y33865D01*
X3464648Y12436D01*
X3464648Y33865D01*
X3474648Y12436D02*
X3487982Y12436D01*
X3494648Y16722D01*
X3494648Y29579D01*
X3487982Y33865D01*
X3474648Y33865D01*
X3477982Y33865D02*
X3477982Y12436D01*
X3507982Y33865D02*
X3511315Y33865D01*
X3517982Y29579D01*
X3517982Y16722D01*
X3511315Y12436D01*
X3507982Y12436D01*
X2482315Y116861D02*
X2512315Y116861D01*
X2497315Y101861D02*
X2497315Y131861D01*
X2604982Y127575D02*
X2608315Y129718D01*
X2614982Y129718D01*
X2621648Y125432D01*
X2621648Y121146D01*
X2618315Y119003D01*
X2621648Y116861D01*
X2621648Y112575D01*
X2614982Y108289D01*
X2608315Y108289D01*
X2604982Y110432D01*
X2608315Y119003D02*
X2618315Y119003D01*
X2641648Y108289D02*
X2641648Y110432D01*
X2661648Y125432D02*
X2668315Y129718D01*
X2674982Y129718D01*
X2681648Y125432D01*
X2681648Y112575D01*
X2674982Y108289D01*
X2668315Y108289D01*
X2661648Y112575D01*
X2661648Y125432D01*
X2681648Y125432D02*
X2661648Y112575D01*
X2691648Y125432D02*
X2698315Y129718D01*
X2704982Y129718D01*
X2711648Y125432D01*
X2711648Y112575D01*
X2704982Y108289D01*
X2698315Y108289D01*
X2691648Y112575D01*
X2691648Y125432D01*
X2711648Y125432D02*
X2691648Y112575D01*
X2721648Y125432D02*
X2728315Y129718D01*
X2734982Y129718D01*
X2741648Y125432D01*
X2741648Y112575D01*
X2734982Y108289D01*
X2728315Y108289D01*
X2721648Y112575D01*
X2721648Y125432D01*
X2741648Y125432D02*
X2721648Y112575D01*
X2751648Y125432D02*
X2758315Y129718D01*
X2764982Y129718D01*
X2771648Y125432D01*
X2771648Y112575D01*
X2764982Y108289D01*
X2758315Y108289D01*
X2751648Y112575D01*
X2751648Y125432D01*
X2771648Y125432D02*
X2751648Y112575D01*
X2885982Y125432D02*
X2892648Y129718D01*
X2892648Y108289D01*
X2882648Y108289D02*
X2902648Y108289D01*
X2915982Y127575D02*
X2919315Y129718D01*
X2925982Y129718D01*
X2932648Y125432D01*
X2932648Y121146D01*
X2929315Y119003D01*
X2932648Y116861D01*
X2932648Y112575D01*
X2925982Y108289D01*
X2919315Y108289D01*
X2915982Y110432D01*
X2919315Y119003D02*
X2929315Y119003D01*
X3088648Y108289D02*
X3088648Y129718D01*
X3101982Y129718D01*
X3108648Y125432D01*
X3108648Y123289D01*
X3101982Y119003D01*
X3088648Y119003D01*
X3128648Y108289D02*
X3128648Y129718D01*
X3118648Y129718D02*
X3138648Y129718D01*
X3148648Y108289D02*
X3148648Y129718D01*
X3168648Y108289D02*
X3168648Y129718D01*
X3148648Y119003D02*
X3168648Y119003D01*
X3264648Y125432D02*
X3271315Y129718D01*
X3277982Y129718D01*
X3284648Y125432D01*
X3284648Y112575D01*
X3277982Y108289D01*
X3271315Y108289D01*
X3264648Y112575D01*
X3264648Y125432D01*
X3284648Y125432D02*
X3264648Y112575D01*
X3341315Y108289D02*
X3337982Y108289D01*
X3331315Y112575D01*
X3331315Y125432D01*
X3337982Y129718D01*
X3341315Y129718D01*
X3354648Y108289D02*
X3354648Y129718D01*
X3367982Y129718D01*
X3374648Y125432D01*
X3374648Y123289D01*
X3367982Y119003D01*
X3354648Y119003D01*
X3357982Y119003D02*
X3374648Y108289D01*
X3384648Y112575D02*
X3391315Y108289D01*
X3397982Y108289D01*
X3404648Y112575D01*
X3404648Y125432D01*
X3397982Y129718D01*
X3391315Y129718D01*
X3384648Y125432D01*
X3384648Y112575D01*
X3414648Y129718D02*
X3414648Y112575D01*
X3421315Y108289D01*
X3427982Y108289D01*
X3434648Y112575D01*
X3434648Y129718D01*
X3444648Y108289D02*
X3444648Y129718D01*
X3464648Y108289D01*
X3464648Y129718D01*
X3474648Y108289D02*
X3487982Y108289D01*
X3494648Y112575D01*
X3494648Y125432D01*
X3487982Y129718D01*
X3474648Y129718D01*
X3477982Y129718D02*
X3477982Y108289D01*
X3507982Y129718D02*
X3511315Y129718D01*
X3517982Y125432D01*
X3517982Y112575D01*
X3511315Y108289D01*
X3507982Y108289D01*
X2601648Y221285D02*
X2608315Y225571D01*
X2614982Y225571D01*
X2621648Y221285D01*
X2621648Y219142D01*
X2601648Y204142D01*
X2621648Y204142D01*
X2621648Y206285D01*
X2641648Y204142D02*
X2641648Y206285D01*
X2664982Y223428D02*
X2668315Y225571D01*
X2674982Y225571D01*
X2681648Y221285D01*
X2681648Y216999D01*
X2678315Y214856D01*
X2681648Y212713D01*
X2681648Y208428D01*
X2674982Y204142D01*
X2668315Y204142D01*
X2664982Y206285D01*
X2668315Y214856D02*
X2678315Y214856D01*
X2711648Y225571D02*
X2691648Y225571D01*
X2691648Y216999D01*
X2704982Y216999D01*
X2711648Y212713D01*
X2711648Y208428D01*
X2704982Y204142D01*
X2691648Y204142D01*
X2721648Y221285D02*
X2728315Y225571D01*
X2734982Y225571D01*
X2741648Y221285D01*
X2741648Y208428D01*
X2734982Y204142D01*
X2728315Y204142D01*
X2721648Y208428D01*
X2721648Y221285D01*
X2741648Y221285D02*
X2721648Y208428D01*
X2751648Y221285D02*
X2758315Y225571D01*
X2764982Y225571D01*
X2771648Y221285D01*
X2771648Y208428D01*
X2764982Y204142D01*
X2758315Y204142D01*
X2751648Y208428D01*
X2751648Y221285D01*
X2771648Y221285D02*
X2751648Y208428D01*
X2885982Y223428D02*
X2889315Y225571D01*
X2895982Y225571D01*
X2902648Y221285D01*
X2902648Y216999D01*
X2899315Y214856D01*
X2902648Y212713D01*
X2902648Y208428D01*
X2895982Y204142D01*
X2889315Y204142D01*
X2885982Y206285D01*
X2889315Y214856D02*
X2899315Y214856D01*
X2912648Y221285D02*
X2919315Y225571D01*
X2925982Y225571D01*
X2932648Y221285D01*
X2932648Y219142D01*
X2912648Y204142D01*
X2932648Y204142D01*
X2932648Y206285D01*
X3073648Y204142D02*
X3073648Y225571D01*
X3093648Y204142D01*
X3093648Y225571D01*
X3103648Y204142D02*
X3103648Y225571D01*
X3116982Y225571D01*
X3123648Y221285D01*
X3123648Y219142D01*
X3116982Y214856D01*
X3103648Y214856D01*
X3143648Y204142D02*
X3143648Y225571D01*
X3133648Y225571D02*
X3153648Y225571D01*
X3163648Y204142D02*
X3163648Y225571D01*
X3183648Y204142D02*
X3183648Y225571D01*
X3163648Y214856D02*
X3183648Y214856D01*
X3264648Y221285D02*
X3271315Y225571D01*
X3277982Y225571D01*
X3284648Y221285D01*
X3284648Y208428D01*
X3277982Y204142D01*
X3271315Y204142D01*
X3264648Y208428D01*
X3264648Y221285D01*
X3284648Y221285D02*
X3264648Y208428D01*
X3341315Y204142D02*
X3337982Y204142D01*
X3331315Y208428D01*
X3331315Y221285D01*
X3337982Y225571D01*
X3341315Y225571D01*
X3354648Y204142D02*
X3354648Y225571D01*
X3367982Y225571D01*
X3374648Y221285D01*
X3374648Y219142D01*
X3367982Y214856D01*
X3354648Y214856D01*
X3357982Y214856D02*
X3374648Y204142D01*
X3384648Y208428D02*
X3391315Y204142D01*
X3397982Y204142D01*
X3404648Y208428D01*
X3404648Y221285D01*
X3397982Y225571D01*
X3391315Y225571D01*
X3384648Y221285D01*
X3384648Y208428D01*
X3414648Y225571D02*
X3414648Y208428D01*
X3421315Y204142D01*
X3427982Y204142D01*
X3434648Y208428D01*
X3434648Y225571D01*
X3444648Y204142D02*
X3444648Y225571D01*
X3464648Y204142D01*
X3464648Y225571D01*
X3474648Y204142D02*
X3487982Y204142D01*
X3494648Y208428D01*
X3494648Y221285D01*
X3487982Y225571D01*
X3474648Y225571D01*
X3477982Y225571D02*
X3477982Y204142D01*
X3507982Y225571D02*
X3511315Y225571D01*
X3517982Y221285D01*
X3517982Y208428D01*
X3511315Y204142D01*
X3507982Y204142D01*
X2485565Y212713D02*
G75*
D01*
G02X2485565Y212713I11750J0*
G01*
X2604982Y317138D02*
X2611648Y321423D01*
X2611648Y299995D01*
X2601648Y299995D02*
X2621648Y299995D01*
X2641648Y299995D02*
X2641648Y302138D01*
X2664982Y317138D02*
X2671648Y321423D01*
X2671648Y299995D01*
X2661648Y299995D02*
X2681648Y299995D01*
X2704982Y299995D02*
X2698315Y299995D01*
X2691648Y304280D01*
X2691648Y308566D01*
X2694982Y310709D01*
X2691648Y312852D01*
X2691648Y317138D01*
X2698315Y321423D01*
X2704982Y321423D01*
X2711648Y317138D01*
X2711648Y312852D01*
X2708315Y310709D01*
X2711648Y308566D01*
X2711648Y304280D01*
X2704982Y299995D01*
X2694982Y310709D02*
X2708315Y310709D01*
X2724982Y317138D02*
X2731648Y321423D01*
X2731648Y299995D01*
X2721648Y299995D02*
X2741648Y299995D01*
X2751648Y317138D02*
X2758315Y321423D01*
X2764982Y321423D01*
X2771648Y317138D01*
X2771648Y304280D01*
X2764982Y299995D01*
X2758315Y299995D01*
X2751648Y304280D01*
X2751648Y317138D01*
X2771648Y317138D02*
X2751648Y304280D01*
X2910982Y299995D02*
X2904315Y299995D01*
X2897648Y304280D01*
X2897648Y308566D01*
X2900982Y310709D01*
X2897648Y312852D01*
X2897648Y317138D01*
X2904315Y321423D01*
X2910982Y321423D01*
X2917648Y317138D01*
X2917648Y312852D01*
X2914315Y310709D01*
X2917648Y308566D01*
X2917648Y304280D01*
X2910982Y299995D01*
X2900982Y310709D02*
X2914315Y310709D01*
X3088648Y299995D02*
X3088648Y321423D01*
X3101982Y321423D01*
X3108648Y317138D01*
X3108648Y314995D01*
X3101982Y310709D01*
X3088648Y310709D01*
X3128648Y299995D02*
X3128648Y321423D01*
X3118648Y321423D02*
X3138648Y321423D01*
X3148648Y299995D02*
X3148648Y321423D01*
X3168648Y299995D02*
X3168648Y321423D01*
X3148648Y310709D02*
X3168648Y310709D01*
X3264648Y317138D02*
X3271315Y321423D01*
X3277982Y321423D01*
X3284648Y317138D01*
X3284648Y304280D01*
X3277982Y299995D01*
X3271315Y299995D01*
X3264648Y304280D01*
X3264648Y317138D01*
X3284648Y317138D02*
X3264648Y304280D01*
X3341315Y299995D02*
X3337982Y299995D01*
X3331315Y304280D01*
X3331315Y317138D01*
X3337982Y321423D01*
X3341315Y321423D01*
X3354648Y299995D02*
X3354648Y321423D01*
X3367982Y321423D01*
X3374648Y317138D01*
X3374648Y314995D01*
X3367982Y310709D01*
X3354648Y310709D01*
X3357982Y310709D02*
X3374648Y299995D01*
X3384648Y304280D02*
X3391315Y299995D01*
X3397982Y299995D01*
X3404648Y304280D01*
X3404648Y317138D01*
X3397982Y321423D01*
X3391315Y321423D01*
X3384648Y317138D01*
X3384648Y304280D01*
X3414648Y321423D02*
X3414648Y304280D01*
X3421315Y299995D01*
X3427982Y299995D01*
X3434648Y304280D01*
X3434648Y321423D01*
X3444648Y299995D02*
X3444648Y321423D01*
X3464648Y299995D01*
X3464648Y321423D01*
X3474648Y299995D02*
X3487982Y299995D01*
X3494648Y304280D01*
X3494648Y317138D01*
X3487982Y321423D01*
X3474648Y321423D01*
X3477982Y321423D02*
X3477982Y299995D01*
X3507982Y321423D02*
X3511315Y321423D01*
X3517982Y317138D01*
X3517982Y304280D01*
X3511315Y299995D01*
X3507982Y299995D01*
X2491410Y308566D02*
G75*
D01*
G02X2491410Y308566I5905J0*
G01*
X2495019Y306879D02*
X2495019Y309410D01*
X2496331Y311097D01*
X2497643Y311097D01*
X2498955Y309410D01*
X2498955Y306879D01*
X2495019Y308144D02*
X2498955Y308144D01*
X2491812Y398916D02*
X2502818Y398916D01*
X2502818Y409922D01*
X2491812Y409922D01*
X2491812Y398916D01*
X2495175Y402847D02*
X2495175Y405205D01*
X2496398Y406777D01*
X2497621Y406777D01*
X2498844Y405205D01*
X2498844Y402847D01*
X2495175Y404026D02*
X2498844Y404026D01*
X2604982Y412990D02*
X2611648Y417276D01*
X2611648Y395848D01*
X2601648Y395848D02*
X2621648Y395848D01*
X2641648Y395848D02*
X2641648Y397990D01*
X2664982Y412990D02*
X2671648Y417276D01*
X2671648Y395848D01*
X2661648Y395848D02*
X2681648Y395848D01*
X2691648Y412990D02*
X2698315Y417276D01*
X2704982Y417276D01*
X2711648Y412990D01*
X2711648Y400133D01*
X2704982Y395848D01*
X2698315Y395848D01*
X2691648Y400133D01*
X2691648Y412990D01*
X2711648Y412990D02*
X2691648Y400133D01*
X2721648Y412990D02*
X2728315Y417276D01*
X2734982Y417276D01*
X2741648Y412990D01*
X2741648Y400133D01*
X2734982Y395848D01*
X2728315Y395848D01*
X2721648Y400133D01*
X2721648Y412990D01*
X2741648Y412990D02*
X2721648Y400133D01*
X2768315Y417276D02*
X2758315Y417276D01*
X2751648Y412990D01*
X2751648Y404419D01*
X2751648Y400133D01*
X2758315Y395848D01*
X2764982Y395848D01*
X2771648Y400133D01*
X2771648Y404419D01*
X2764982Y408705D01*
X2758315Y408705D01*
X2751648Y404419D01*
X2885982Y412990D02*
X2892648Y417276D01*
X2892648Y395848D01*
X2882648Y395848D02*
X2902648Y395848D01*
X2929315Y417276D02*
X2919315Y417276D01*
X2912648Y412990D01*
X2912648Y404419D01*
X2912648Y400133D01*
X2919315Y395848D01*
X2925982Y395848D01*
X2932648Y400133D01*
X2932648Y404419D01*
X2925982Y408705D01*
X2919315Y408705D01*
X2912648Y404419D01*
X3088648Y395848D02*
X3088648Y417276D01*
X3101982Y417276D01*
X3108648Y412990D01*
X3108648Y410848D01*
X3101982Y406562D01*
X3088648Y406562D01*
X3128648Y395848D02*
X3128648Y417276D01*
X3118648Y417276D02*
X3138648Y417276D01*
X3148648Y395848D02*
X3148648Y417276D01*
X3168648Y395848D02*
X3168648Y417276D01*
X3148648Y406562D02*
X3168648Y406562D01*
X3264648Y412990D02*
X3271315Y417276D01*
X3277982Y417276D01*
X3284648Y412990D01*
X3284648Y400133D01*
X3277982Y395848D01*
X3271315Y395848D01*
X3264648Y400133D01*
X3264648Y412990D01*
X3284648Y412990D02*
X3264648Y400133D01*
X3341315Y395848D02*
X3337982Y395848D01*
X3331315Y400133D01*
X3331315Y412990D01*
X3337982Y417276D01*
X3341315Y417276D01*
X3354648Y395848D02*
X3354648Y417276D01*
X3367982Y417276D01*
X3374648Y412990D01*
X3374648Y410848D01*
X3367982Y406562D01*
X3354648Y406562D01*
X3357982Y406562D02*
X3374648Y395848D01*
X3384648Y400133D02*
X3391315Y395848D01*
X3397982Y395848D01*
X3404648Y400133D01*
X3404648Y412990D01*
X3397982Y417276D01*
X3391315Y417276D01*
X3384648Y412990D01*
X3384648Y400133D01*
X3414648Y417276D02*
X3414648Y400133D01*
X3421315Y395848D01*
X3427982Y395848D01*
X3434648Y400133D01*
X3434648Y417276D01*
X3444648Y395848D02*
X3444648Y417276D01*
X3464648Y395848D01*
X3464648Y417276D01*
X3474648Y395848D02*
X3487982Y395848D01*
X3494648Y400133D01*
X3494648Y412990D01*
X3487982Y417276D01*
X3474648Y417276D01*
X3477982Y417276D02*
X3477982Y395848D01*
X3507982Y417276D02*
X3511315Y417276D01*
X3517982Y412990D01*
X3517982Y400133D01*
X3511315Y395848D01*
X3507982Y395848D01*
X2601648Y508843D02*
X2608315Y513129D01*
X2614982Y513129D01*
X2621648Y508843D01*
X2621648Y495986D01*
X2614982Y491700D01*
X2608315Y491700D01*
X2601648Y495986D01*
X2601648Y508843D01*
X2621648Y508843D02*
X2601648Y495986D01*
X2641648Y491700D02*
X2641648Y493843D01*
X2661648Y495986D02*
X2668315Y491700D01*
X2674982Y491700D01*
X2681648Y495986D01*
X2681648Y504558D01*
X2681648Y508843D01*
X2674982Y513129D01*
X2668315Y513129D01*
X2661648Y508843D01*
X2661648Y504558D01*
X2668315Y500272D01*
X2674982Y500272D01*
X2681648Y504558D01*
X2691648Y495986D02*
X2698315Y491700D01*
X2704982Y491700D01*
X2711648Y495986D01*
X2711648Y504558D01*
X2711648Y508843D01*
X2704982Y513129D01*
X2698315Y513129D01*
X2691648Y508843D01*
X2691648Y504558D01*
X2698315Y500272D01*
X2704982Y500272D01*
X2711648Y504558D01*
X2741648Y500272D02*
X2721648Y500272D01*
X2738315Y513129D01*
X2738315Y491700D01*
X2734982Y491700D02*
X2741648Y491700D01*
X2751648Y495986D02*
X2758315Y491700D01*
X2764982Y491700D01*
X2771648Y495986D01*
X2771648Y504558D01*
X2771648Y508843D01*
X2764982Y513129D01*
X2758315Y513129D01*
X2751648Y508843D01*
X2751648Y504558D01*
X2758315Y500272D01*
X2764982Y500272D01*
X2771648Y504558D01*
X2900982Y508843D02*
X2907648Y513129D01*
X2907648Y491700D01*
X2897648Y491700D02*
X2917648Y491700D01*
X3088648Y491700D02*
X3088648Y513129D01*
X3101982Y513129D01*
X3108648Y508843D01*
X3108648Y506700D01*
X3101982Y502415D01*
X3088648Y502415D01*
X3128648Y491700D02*
X3128648Y513129D01*
X3118648Y513129D02*
X3138648Y513129D01*
X3148648Y491700D02*
X3148648Y513129D01*
X3168648Y491700D02*
X3168648Y513129D01*
X3148648Y502415D02*
X3168648Y502415D01*
X3264648Y508843D02*
X3271315Y513129D01*
X3277982Y513129D01*
X3284648Y508843D01*
X3284648Y495986D01*
X3277982Y491700D01*
X3271315Y491700D01*
X3264648Y495986D01*
X3264648Y508843D01*
X3284648Y508843D02*
X3264648Y495986D01*
X3341315Y491700D02*
X3337982Y491700D01*
X3331315Y495986D01*
X3331315Y508843D01*
X3337982Y513129D01*
X3341315Y513129D01*
X3354648Y491700D02*
X3354648Y513129D01*
X3367982Y513129D01*
X3374648Y508843D01*
X3374648Y506700D01*
X3367982Y502415D01*
X3354648Y502415D01*
X3357982Y502415D02*
X3374648Y491700D01*
X3384648Y495986D02*
X3391315Y491700D01*
X3397982Y491700D01*
X3404648Y495986D01*
X3404648Y508843D01*
X3397982Y513129D01*
X3391315Y513129D01*
X3384648Y508843D01*
X3384648Y495986D01*
X3414648Y513129D02*
X3414648Y495986D01*
X3421315Y491700D01*
X3427982Y491700D01*
X3434648Y495986D01*
X3434648Y513129D01*
X3444648Y491700D02*
X3444648Y513129D01*
X3464648Y491700D01*
X3464648Y513129D01*
X3474648Y491700D02*
X3487982Y491700D01*
X3494648Y495986D01*
X3494648Y508843D01*
X3487982Y513129D01*
X3474648Y513129D01*
X3477982Y513129D02*
X3477982Y491700D01*
X3507982Y513129D02*
X3511315Y513129D01*
X3517982Y508843D01*
X3517982Y495986D01*
X3511315Y491700D01*
X3507982Y491700D01*
X2601648Y604696D02*
X2608315Y608982D01*
X2614982Y608982D01*
X2621648Y604696D01*
X2621648Y591839D01*
X2614982Y587553D01*
X2608315Y587553D01*
X2601648Y591839D01*
X2601648Y604696D01*
X2621648Y604696D02*
X2601648Y591839D01*
X2641648Y587553D02*
X2641648Y589696D01*
X2674982Y587553D02*
X2668315Y587553D01*
X2661648Y591839D01*
X2661648Y596125D01*
X2664982Y598267D01*
X2661648Y600410D01*
X2661648Y604696D01*
X2668315Y608982D01*
X2674982Y608982D01*
X2681648Y604696D01*
X2681648Y600410D01*
X2678315Y598267D01*
X2681648Y596125D01*
X2681648Y591839D01*
X2674982Y587553D01*
X2664982Y598267D02*
X2678315Y598267D01*
X2704982Y587553D02*
X2698315Y587553D01*
X2691648Y591839D01*
X2691648Y596125D01*
X2694982Y598267D01*
X2691648Y600410D01*
X2691648Y604696D01*
X2698315Y608982D01*
X2704982Y608982D01*
X2711648Y604696D01*
X2711648Y600410D01*
X2708315Y598267D01*
X2711648Y596125D01*
X2711648Y591839D01*
X2704982Y587553D01*
X2694982Y598267D02*
X2708315Y598267D01*
X2721648Y591839D02*
X2728315Y587553D01*
X2734982Y587553D01*
X2741648Y591839D01*
X2741648Y600410D01*
X2741648Y604696D01*
X2734982Y608982D01*
X2728315Y608982D01*
X2721648Y604696D01*
X2721648Y600410D01*
X2728315Y596125D01*
X2734982Y596125D01*
X2741648Y600410D01*
X2751648Y604696D02*
X2758315Y608982D01*
X2764982Y608982D01*
X2771648Y604696D01*
X2771648Y591839D01*
X2764982Y587553D01*
X2758315Y587553D01*
X2751648Y591839D01*
X2751648Y604696D01*
X2771648Y604696D02*
X2751648Y591839D01*
X2917648Y608982D02*
X2897648Y608982D01*
X2897648Y600410D01*
X2910982Y600410D01*
X2917648Y596125D01*
X2917648Y591839D01*
X2910982Y587553D01*
X2897648Y587553D01*
X3088648Y587553D02*
X3088648Y608982D01*
X3101982Y608982D01*
X3108648Y604696D01*
X3108648Y602553D01*
X3101982Y598267D01*
X3088648Y598267D01*
X3128648Y587553D02*
X3128648Y608982D01*
X3118648Y608982D02*
X3138648Y608982D01*
X3148648Y587553D02*
X3148648Y608982D01*
X3168648Y587553D02*
X3168648Y608982D01*
X3148648Y598267D02*
X3168648Y598267D01*
X3264648Y604696D02*
X3271315Y608982D01*
X3277982Y608982D01*
X3284648Y604696D01*
X3284648Y591839D01*
X3277982Y587553D01*
X3271315Y587553D01*
X3264648Y591839D01*
X3264648Y604696D01*
X3284648Y604696D02*
X3264648Y591839D01*
X3341315Y587553D02*
X3337982Y587553D01*
X3331315Y591839D01*
X3331315Y604696D01*
X3337982Y608982D01*
X3341315Y608982D01*
X3354648Y587553D02*
X3354648Y608982D01*
X3367982Y608982D01*
X3374648Y604696D01*
X3374648Y602553D01*
X3367982Y598267D01*
X3354648Y598267D01*
X3357982Y598267D02*
X3374648Y587553D01*
X3384648Y591839D02*
X3391315Y587553D01*
X3397982Y587553D01*
X3404648Y591839D01*
X3404648Y604696D01*
X3397982Y608982D01*
X3391315Y608982D01*
X3384648Y604696D01*
X3384648Y591839D01*
X3414648Y608982D02*
X3414648Y591839D01*
X3421315Y587553D01*
X3427982Y587553D01*
X3434648Y591839D01*
X3434648Y608982D01*
X3444648Y587553D02*
X3444648Y608982D01*
X3464648Y587553D01*
X3464648Y608982D01*
X3474648Y587553D02*
X3487982Y587553D01*
X3494648Y591839D01*
X3494648Y604696D01*
X3487982Y608982D01*
X3474648Y608982D01*
X3477982Y608982D02*
X3477982Y587553D01*
X3507982Y608982D02*
X3511315Y608982D01*
X3517982Y604696D01*
X3517982Y591839D01*
X3511315Y587553D01*
X3507982Y587553D01*
X2601648Y700549D02*
X2608315Y704835D01*
X2614982Y704835D01*
X2621648Y700549D01*
X2621648Y687692D01*
X2614982Y683406D01*
X2608315Y683406D01*
X2601648Y687692D01*
X2601648Y700549D01*
X2621648Y700549D02*
X2601648Y687692D01*
X2641648Y683406D02*
X2641648Y685549D01*
X2671648Y683406D02*
X2671648Y694120D01*
X2681648Y700549D01*
X2681648Y704835D01*
X2661648Y704835D01*
X2661648Y700549D01*
X2691648Y700549D02*
X2698315Y704835D01*
X2704982Y704835D01*
X2711648Y700549D01*
X2711648Y687692D01*
X2704982Y683406D01*
X2698315Y683406D01*
X2691648Y687692D01*
X2691648Y700549D01*
X2711648Y700549D02*
X2691648Y687692D01*
X2721648Y700549D02*
X2728315Y704835D01*
X2734982Y704835D01*
X2741648Y700549D01*
X2741648Y687692D01*
X2734982Y683406D01*
X2728315Y683406D01*
X2721648Y687692D01*
X2721648Y700549D01*
X2741648Y700549D02*
X2721648Y687692D01*
X2751648Y700549D02*
X2758315Y704835D01*
X2764982Y704835D01*
X2771648Y700549D01*
X2771648Y687692D01*
X2764982Y683406D01*
X2758315Y683406D01*
X2751648Y687692D01*
X2751648Y700549D01*
X2771648Y700549D02*
X2751648Y687692D01*
X2887648Y704835D02*
X2867648Y704835D01*
X2867648Y696263D01*
X2880982Y696263D01*
X2887648Y691977D01*
X2887648Y687692D01*
X2880982Y683406D01*
X2867648Y683406D01*
X2907648Y683406D02*
X2907648Y694120D01*
X2917648Y700549D01*
X2917648Y704835D01*
X2897648Y704835D01*
X2897648Y700549D01*
X2944315Y704835D02*
X2934315Y704835D01*
X2927648Y700549D01*
X2927648Y691977D01*
X2927648Y687692D01*
X2934315Y683406D01*
X2940982Y683406D01*
X2947648Y687692D01*
X2947648Y691977D01*
X2940982Y696263D01*
X2934315Y696263D01*
X2927648Y691977D01*
X3088648Y683406D02*
X3088648Y704835D01*
X3101982Y704835D01*
X3108648Y700549D01*
X3108648Y698406D01*
X3101982Y694120D01*
X3088648Y694120D01*
X3128648Y683406D02*
X3128648Y704835D01*
X3118648Y704835D02*
X3138648Y704835D01*
X3148648Y683406D02*
X3148648Y704835D01*
X3168648Y683406D02*
X3168648Y704835D01*
X3148648Y694120D02*
X3168648Y694120D01*
X3264648Y700549D02*
X3271315Y704835D01*
X3277982Y704835D01*
X3284648Y700549D01*
X3284648Y687692D01*
X3277982Y683406D01*
X3271315Y683406D01*
X3264648Y687692D01*
X3264648Y700549D01*
X3284648Y700549D02*
X3264648Y687692D01*
X3341315Y683406D02*
X3337982Y683406D01*
X3331315Y687692D01*
X3331315Y700549D01*
X3337982Y704835D01*
X3341315Y704835D01*
X3354648Y683406D02*
X3354648Y704835D01*
X3367982Y704835D01*
X3374648Y700549D01*
X3374648Y698406D01*
X3367982Y694120D01*
X3354648Y694120D01*
X3357982Y694120D02*
X3374648Y683406D01*
X3384648Y687692D02*
X3391315Y683406D01*
X3397982Y683406D01*
X3404648Y687692D01*
X3404648Y700549D01*
X3397982Y704835D01*
X3391315Y704835D01*
X3384648Y700549D01*
X3384648Y687692D01*
X3414648Y704835D02*
X3414648Y687692D01*
X3421315Y683406D01*
X3427982Y683406D01*
X3434648Y687692D01*
X3434648Y704835D01*
X3444648Y683406D02*
X3444648Y704835D01*
X3464648Y683406D01*
X3464648Y704835D01*
X3474648Y683406D02*
X3487982Y683406D01*
X3494648Y687692D01*
X3494648Y700549D01*
X3487982Y704835D01*
X3474648Y704835D01*
X3477982Y704835D02*
X3477982Y683406D01*
X3507982Y704835D02*
X3511315Y704835D01*
X3517982Y700549D01*
X3517982Y687692D01*
X3511315Y683406D01*
X3507982Y683406D01*
X2601648Y796402D02*
X2608315Y800687D01*
X2614982Y800687D01*
X2621648Y796402D01*
X2621648Y783544D01*
X2614982Y779259D01*
X2608315Y779259D01*
X2601648Y783544D01*
X2601648Y796402D01*
X2621648Y796402D02*
X2601648Y783544D01*
X2641648Y779259D02*
X2641648Y781402D01*
X2681648Y800687D02*
X2661648Y800687D01*
X2661648Y792116D01*
X2674982Y792116D01*
X2681648Y787830D01*
X2681648Y783544D01*
X2674982Y779259D01*
X2661648Y779259D01*
X2691648Y796402D02*
X2698315Y800687D01*
X2704982Y800687D01*
X2711648Y796402D01*
X2711648Y783544D01*
X2704982Y779259D01*
X2698315Y779259D01*
X2691648Y783544D01*
X2691648Y796402D01*
X2711648Y796402D02*
X2691648Y783544D01*
X2721648Y796402D02*
X2728315Y800687D01*
X2734982Y800687D01*
X2741648Y796402D01*
X2741648Y783544D01*
X2734982Y779259D01*
X2728315Y779259D01*
X2721648Y783544D01*
X2721648Y796402D01*
X2741648Y796402D02*
X2721648Y783544D01*
X2751648Y796402D02*
X2758315Y800687D01*
X2764982Y800687D01*
X2771648Y796402D01*
X2771648Y783544D01*
X2764982Y779259D01*
X2758315Y779259D01*
X2751648Y783544D01*
X2751648Y796402D01*
X2771648Y796402D02*
X2751648Y783544D01*
X2877648Y779259D02*
X2877648Y789973D01*
X2887648Y796402D01*
X2887648Y800687D01*
X2867648Y800687D01*
X2867648Y796402D01*
X2914315Y800687D02*
X2904315Y800687D01*
X2897648Y796402D01*
X2897648Y787830D01*
X2897648Y783544D01*
X2904315Y779259D01*
X2910982Y779259D01*
X2917648Y783544D01*
X2917648Y787830D01*
X2910982Y792116D01*
X2904315Y792116D01*
X2897648Y787830D01*
X2930982Y796402D02*
X2937648Y800687D01*
X2937648Y779259D01*
X2927648Y779259D02*
X2947648Y779259D01*
X3088648Y779259D02*
X3088648Y800687D01*
X3101982Y800687D01*
X3108648Y796402D01*
X3108648Y794259D01*
X3101982Y789973D01*
X3088648Y789973D01*
X3128648Y779259D02*
X3128648Y800687D01*
X3118648Y800687D02*
X3138648Y800687D01*
X3148648Y779259D02*
X3148648Y800687D01*
X3168648Y779259D02*
X3168648Y800687D01*
X3148648Y789973D02*
X3168648Y789973D01*
X3264648Y796402D02*
X3271315Y800687D01*
X3277982Y800687D01*
X3284648Y796402D01*
X3284648Y783544D01*
X3277982Y779259D01*
X3271315Y779259D01*
X3264648Y783544D01*
X3264648Y796402D01*
X3284648Y796402D02*
X3264648Y783544D01*
X3341315Y779259D02*
X3337982Y779259D01*
X3331315Y783544D01*
X3331315Y796402D01*
X3337982Y800687D01*
X3341315Y800687D01*
X3354648Y779259D02*
X3354648Y800687D01*
X3367982Y800687D01*
X3374648Y796402D01*
X3374648Y794259D01*
X3367982Y789973D01*
X3354648Y789973D01*
X3357982Y789973D02*
X3374648Y779259D01*
X3384648Y783544D02*
X3391315Y779259D01*
X3397982Y779259D01*
X3404648Y783544D01*
X3404648Y796402D01*
X3397982Y800687D01*
X3391315Y800687D01*
X3384648Y796402D01*
X3384648Y783544D01*
X3414648Y800687D02*
X3414648Y783544D01*
X3421315Y779259D01*
X3427982Y779259D01*
X3434648Y783544D01*
X3434648Y800687D01*
X3444648Y779259D02*
X3444648Y800687D01*
X3464648Y779259D01*
X3464648Y800687D01*
X3474648Y779259D02*
X3487982Y779259D01*
X3494648Y783544D01*
X3494648Y796402D01*
X3487982Y800687D01*
X3474648Y800687D01*
X3477982Y800687D02*
X3477982Y779259D01*
X3507982Y800687D02*
X3511315Y800687D01*
X3517982Y796402D01*
X3517982Y783544D01*
X3511315Y779259D01*
X3507982Y779259D01*
G54D12*
X134720Y638970D02*
X139670Y643920D01*
X134720Y643920D02*
X139670Y638970D01*
X144720Y618970D02*
X149670Y623920D01*
X144720Y623920D02*
X149670Y618970D01*
X154720Y638970D02*
X159670Y643920D01*
X154720Y643920D02*
X159670Y638970D01*
X164720Y618970D02*
X169670Y623920D01*
X164720Y623920D02*
X169670Y618970D01*
X174720Y638970D02*
X179670Y643920D01*
X174720Y643920D02*
X179670Y638970D01*
X184720Y618970D02*
X189670Y623920D01*
X184720Y623920D02*
X189670Y618970D01*
X194720Y638970D02*
X199670Y643920D01*
X194720Y643920D02*
X199670Y638970D01*
X204720Y618970D02*
X209670Y623920D01*
X204720Y623920D02*
X209670Y618970D01*
X214720Y638970D02*
X219670Y643920D01*
X214720Y643920D02*
X219670Y638970D01*
X264720Y618970D02*
X269670Y623920D01*
X264720Y623920D02*
X269670Y618970D01*
X244720Y618970D02*
X249670Y623920D01*
X244720Y623920D02*
X249670Y618970D01*
X254720Y638970D02*
X259670Y643920D01*
X254720Y643920D02*
X259670Y638970D01*
X284720Y618970D02*
X289670Y623920D01*
X284720Y623920D02*
X289670Y618970D01*
X274720Y638970D02*
X279670Y643920D01*
X274720Y643920D02*
X279670Y638970D01*
X304720Y618970D02*
X309670Y623920D01*
X304720Y623920D02*
X309670Y618970D01*
X294720Y638970D02*
X299670Y643920D01*
X294720Y643920D02*
X299670Y638970D01*
X114720Y663970D02*
X119670Y668920D01*
X114720Y668920D02*
X119670Y663970D01*
X134720Y663970D02*
X139670Y668920D01*
X134720Y668920D02*
X139670Y663970D01*
X154720Y663970D02*
X159670Y668920D01*
X154720Y668920D02*
X159670Y663970D01*
X174720Y663970D02*
X179670Y668920D01*
X174720Y668920D02*
X179670Y663970D01*
X194720Y663970D02*
X199670Y668920D01*
X194720Y668920D02*
X199670Y663970D01*
X214720Y663970D02*
X219670Y668920D01*
X214720Y668920D02*
X219670Y663970D01*
X254720Y663970D02*
X259670Y668920D01*
X254720Y668920D02*
X259670Y663970D01*
X274720Y663970D02*
X279670Y668920D01*
X274720Y668920D02*
X279670Y663970D01*
X294720Y663970D02*
X299670Y668920D01*
X294720Y668920D02*
X299670Y663970D01*
X124720Y683970D02*
X129670Y688920D01*
X124720Y688920D02*
X129670Y683970D01*
X144720Y683970D02*
X149670Y688920D01*
X144720Y688920D02*
X149670Y683970D01*
X164720Y683970D02*
X169670Y688920D01*
X164720Y688920D02*
X169670Y683970D01*
X184720Y683970D02*
X189670Y688920D01*
X184720Y688920D02*
X189670Y683970D01*
X204720Y683970D02*
X209670Y688920D01*
X204720Y688920D02*
X209670Y683970D01*
X244720Y683970D02*
X249670Y688920D01*
X244720Y688920D02*
X249670Y683970D01*
X264720Y683970D02*
X269670Y688920D01*
X264720Y688920D02*
X269670Y683970D01*
X284720Y683970D02*
X289670Y688920D01*
X284720Y688920D02*
X289670Y683970D01*
X304720Y683970D02*
X309670Y688920D01*
X304720Y688920D02*
X309670Y683970D01*
X114720Y638970D02*
X119670Y643920D01*
X114720Y643920D02*
X119670Y638970D01*
X124720Y618970D02*
X129670Y623920D01*
X124720Y623920D02*
X129670Y618970D01*
X134720Y38970D02*
X139670Y43920D01*
X134720Y43920D02*
X139670Y38970D01*
X144720Y18970D02*
X149670Y23920D01*
X144720Y23920D02*
X149670Y18970D01*
X154720Y38970D02*
X159670Y43920D01*
X154720Y43920D02*
X159670Y38970D01*
X164720Y18970D02*
X169670Y23920D01*
X164720Y23920D02*
X169670Y18970D01*
X174720Y38970D02*
X179670Y43920D01*
X174720Y43920D02*
X179670Y38970D01*
X184720Y18970D02*
X189670Y23920D01*
X184720Y23920D02*
X189670Y18970D01*
X194720Y38970D02*
X199670Y43920D01*
X194720Y43920D02*
X199670Y38970D01*
X204720Y18970D02*
X209670Y23920D01*
X204720Y23920D02*
X209670Y18970D01*
X214720Y38970D02*
X219670Y43920D01*
X214720Y43920D02*
X219670Y38970D01*
X264720Y18970D02*
X269670Y23920D01*
X264720Y23920D02*
X269670Y18970D01*
X244720Y18970D02*
X249670Y23920D01*
X244720Y23920D02*
X249670Y18970D01*
X254720Y38970D02*
X259670Y43920D01*
X254720Y43920D02*
X259670Y38970D01*
X284720Y18970D02*
X289670Y23920D01*
X284720Y23920D02*
X289670Y18970D01*
X274720Y38970D02*
X279670Y43920D01*
X274720Y43920D02*
X279670Y38970D01*
X304720Y18970D02*
X309670Y23920D01*
X304720Y23920D02*
X309670Y18970D01*
X294720Y38970D02*
X299670Y43920D01*
X294720Y43920D02*
X299670Y38970D01*
X114720Y63970D02*
X119670Y68920D01*
X114720Y68920D02*
X119670Y63970D01*
X134720Y63970D02*
X139670Y68920D01*
X134720Y68920D02*
X139670Y63970D01*
X154720Y63970D02*
X159670Y68920D01*
X154720Y68920D02*
X159670Y63970D01*
X174720Y63970D02*
X179670Y68920D01*
X174720Y68920D02*
X179670Y63970D01*
X194720Y63970D02*
X199670Y68920D01*
X194720Y68920D02*
X199670Y63970D01*
X214720Y63970D02*
X219670Y68920D01*
X214720Y68920D02*
X219670Y63970D01*
X254720Y63970D02*
X259670Y68920D01*
X254720Y68920D02*
X259670Y63970D01*
X274720Y63970D02*
X279670Y68920D01*
X274720Y68920D02*
X279670Y63970D01*
X294720Y63970D02*
X299670Y68920D01*
X294720Y68920D02*
X299670Y63970D01*
X124720Y83970D02*
X129670Y88920D01*
X124720Y88920D02*
X129670Y83970D01*
X144720Y83970D02*
X149670Y88920D01*
X144720Y88920D02*
X149670Y83970D01*
X164720Y83970D02*
X169670Y88920D01*
X164720Y88920D02*
X169670Y83970D01*
X184720Y83970D02*
X189670Y88920D01*
X184720Y88920D02*
X189670Y83970D01*
X204720Y83970D02*
X209670Y88920D01*
X204720Y88920D02*
X209670Y83970D01*
X244720Y83970D02*
X249670Y88920D01*
X244720Y88920D02*
X249670Y83970D01*
X264720Y83970D02*
X269670Y88920D01*
X264720Y88920D02*
X269670Y83970D01*
X284720Y83970D02*
X289670Y88920D01*
X284720Y88920D02*
X289670Y83970D01*
X304720Y83970D02*
X309670Y88920D01*
X304720Y88920D02*
X309670Y83970D01*
X114720Y38970D02*
X119670Y43920D01*
X114720Y43920D02*
X119670Y38970D01*
X124720Y18970D02*
X129670Y23920D01*
X124720Y23920D02*
X129670Y18970D01*
X134720Y338970D02*
X139670Y343920D01*
X134720Y343920D02*
X139670Y338970D01*
X144720Y318970D02*
X149670Y323920D01*
X144720Y323920D02*
X149670Y318970D01*
X154720Y338970D02*
X159670Y343920D01*
X154720Y343920D02*
X159670Y338970D01*
X164720Y318970D02*
X169670Y323920D01*
X164720Y323920D02*
X169670Y318970D01*
X174720Y338970D02*
X179670Y343920D01*
X174720Y343920D02*
X179670Y338970D01*
X184720Y318970D02*
X189670Y323920D01*
X184720Y323920D02*
X189670Y318970D01*
X194720Y338970D02*
X199670Y343920D01*
X194720Y343920D02*
X199670Y338970D01*
X204720Y318970D02*
X209670Y323920D01*
X204720Y323920D02*
X209670Y318970D01*
X214720Y338970D02*
X219670Y343920D01*
X214720Y343920D02*
X219670Y338970D01*
X264720Y318970D02*
X269670Y323920D01*
X264720Y323920D02*
X269670Y318970D01*
X244720Y318970D02*
X249670Y323920D01*
X244720Y323920D02*
X249670Y318970D01*
X254720Y338970D02*
X259670Y343920D01*
X254720Y343920D02*
X259670Y338970D01*
X284720Y318970D02*
X289670Y323920D01*
X284720Y323920D02*
X289670Y318970D01*
X274720Y338970D02*
X279670Y343920D01*
X274720Y343920D02*
X279670Y338970D01*
X304720Y318970D02*
X309670Y323920D01*
X304720Y323920D02*
X309670Y318970D01*
X294720Y338970D02*
X299670Y343920D01*
X294720Y343920D02*
X299670Y338970D01*
X114720Y363970D02*
X119670Y368920D01*
X114720Y368920D02*
X119670Y363970D01*
X134720Y363970D02*
X139670Y368920D01*
X134720Y368920D02*
X139670Y363970D01*
X154720Y363970D02*
X159670Y368920D01*
X154720Y368920D02*
X159670Y363970D01*
X174720Y363970D02*
X179670Y368920D01*
X174720Y368920D02*
X179670Y363970D01*
X194720Y363970D02*
X199670Y368920D01*
X194720Y368920D02*
X199670Y363970D01*
X214720Y363970D02*
X219670Y368920D01*
X214720Y368920D02*
X219670Y363970D01*
X254720Y363970D02*
X259670Y368920D01*
X254720Y368920D02*
X259670Y363970D01*
X274720Y363970D02*
X279670Y368920D01*
X274720Y368920D02*
X279670Y363970D01*
X294720Y363970D02*
X299670Y368920D01*
X294720Y368920D02*
X299670Y363970D01*
X124720Y383970D02*
X129670Y388920D01*
X124720Y388920D02*
X129670Y383970D01*
X144720Y383970D02*
X149670Y388920D01*
X144720Y388920D02*
X149670Y383970D01*
X164720Y383970D02*
X169670Y388920D01*
X164720Y388920D02*
X169670Y383970D01*
X184720Y383970D02*
X189670Y388920D01*
X184720Y388920D02*
X189670Y383970D01*
X204720Y383970D02*
X209670Y388920D01*
X204720Y388920D02*
X209670Y383970D01*
X244720Y383970D02*
X249670Y388920D01*
X244720Y388920D02*
X249670Y383970D01*
X264720Y383970D02*
X269670Y388920D01*
X264720Y388920D02*
X269670Y383970D01*
X284720Y383970D02*
X289670Y388920D01*
X284720Y388920D02*
X289670Y383970D01*
X304720Y383970D02*
X309670Y388920D01*
X304720Y388920D02*
X309670Y383970D01*
X114720Y338970D02*
X119670Y343920D01*
X114720Y343920D02*
X119670Y338970D01*
X124720Y318970D02*
X129670Y323920D01*
X124720Y323920D02*
X129670Y318970D01*
X134720Y-261030D02*
X139670Y-256080D01*
X134720Y-256080D02*
X139670Y-261030D01*
X144720Y-281030D02*
X149670Y-276080D01*
X144720Y-276080D02*
X149670Y-281030D01*
X154720Y-261030D02*
X159670Y-256080D01*
X154720Y-256080D02*
X159670Y-261030D01*
X164720Y-281030D02*
X169670Y-276080D01*
X164720Y-276080D02*
X169670Y-281030D01*
X174720Y-261030D02*
X179670Y-256080D01*
X174720Y-256080D02*
X179670Y-261030D01*
X184720Y-281030D02*
X189670Y-276080D01*
X184720Y-276080D02*
X189670Y-281030D01*
X194720Y-261030D02*
X199670Y-256080D01*
X194720Y-256080D02*
X199670Y-261030D01*
X204720Y-281030D02*
X209670Y-276080D01*
X204720Y-276080D02*
X209670Y-281030D01*
X214720Y-261030D02*
X219670Y-256080D01*
X214720Y-256080D02*
X219670Y-261030D01*
X264720Y-281030D02*
X269670Y-276080D01*
X264720Y-276080D02*
X269670Y-281030D01*
X244720Y-281030D02*
X249670Y-276080D01*
X244720Y-276080D02*
X249670Y-281030D01*
X254720Y-261030D02*
X259670Y-256080D01*
X254720Y-256080D02*
X259670Y-261030D01*
X284720Y-281030D02*
X289670Y-276080D01*
X284720Y-276080D02*
X289670Y-281030D01*
X274720Y-261030D02*
X279670Y-256080D01*
X274720Y-256080D02*
X279670Y-261030D01*
X304720Y-281030D02*
X309670Y-276080D01*
X304720Y-276080D02*
X309670Y-281030D01*
X294720Y-261030D02*
X299670Y-256080D01*
X294720Y-256080D02*
X299670Y-261030D01*
X114720Y-236030D02*
X119670Y-231080D01*
X114720Y-231080D02*
X119670Y-236030D01*
X134720Y-236030D02*
X139670Y-231080D01*
X134720Y-231080D02*
X139670Y-236030D01*
X154720Y-236030D02*
X159670Y-231080D01*
X154720Y-231080D02*
X159670Y-236030D01*
X174720Y-236030D02*
X179670Y-231080D01*
X174720Y-231080D02*
X179670Y-236030D01*
X194720Y-236030D02*
X199670Y-231080D01*
X194720Y-231080D02*
X199670Y-236030D01*
X214720Y-236030D02*
X219670Y-231080D01*
X214720Y-231080D02*
X219670Y-236030D01*
X254720Y-236030D02*
X259670Y-231080D01*
X254720Y-231080D02*
X259670Y-236030D01*
X274720Y-236030D02*
X279670Y-231080D01*
X274720Y-231080D02*
X279670Y-236030D01*
X294720Y-236030D02*
X299670Y-231080D01*
X294720Y-231080D02*
X299670Y-236030D01*
X124720Y-216030D02*
X129670Y-211080D01*
X124720Y-211080D02*
X129670Y-216030D01*
X144720Y-216030D02*
X149670Y-211080D01*
X144720Y-211080D02*
X149670Y-216030D01*
X164720Y-216030D02*
X169670Y-211080D01*
X164720Y-211080D02*
X169670Y-216030D01*
X184720Y-216030D02*
X189670Y-211080D01*
X184720Y-211080D02*
X189670Y-216030D01*
X204720Y-216030D02*
X209670Y-211080D01*
X204720Y-211080D02*
X209670Y-216030D01*
X244720Y-216030D02*
X249670Y-211080D01*
X244720Y-211080D02*
X249670Y-216030D01*
X264720Y-216030D02*
X269670Y-211080D01*
X264720Y-211080D02*
X269670Y-216030D01*
X284720Y-216030D02*
X289670Y-211080D01*
X284720Y-211080D02*
X289670Y-216030D01*
X304720Y-216030D02*
X309670Y-211080D01*
X304720Y-211080D02*
X309670Y-216030D01*
X114720Y-261030D02*
X119670Y-256080D01*
X114720Y-256080D02*
X119670Y-261030D01*
X124720Y-281030D02*
X129670Y-276080D01*
X124720Y-276080D02*
X129670Y-281030D01*
X654720Y638970D02*
X659670Y643920D01*
X654720Y643920D02*
X659670Y638970D01*
X664720Y618970D02*
X669670Y623920D01*
X664720Y623920D02*
X669670Y618970D01*
X674720Y638970D02*
X679670Y643920D01*
X674720Y643920D02*
X679670Y638970D01*
X684720Y618970D02*
X689670Y623920D01*
X684720Y623920D02*
X689670Y618970D01*
X694720Y638970D02*
X699670Y643920D01*
X694720Y643920D02*
X699670Y638970D01*
X704720Y618970D02*
X709670Y623920D01*
X704720Y623920D02*
X709670Y618970D01*
X714720Y638970D02*
X719670Y643920D01*
X714720Y643920D02*
X719670Y638970D01*
X724720Y618970D02*
X729670Y623920D01*
X724720Y623920D02*
X729670Y618970D01*
X734720Y638970D02*
X739670Y643920D01*
X734720Y643920D02*
X739670Y638970D01*
X784720Y618970D02*
X789670Y623920D01*
X784720Y623920D02*
X789670Y618970D01*
X764720Y618970D02*
X769670Y623920D01*
X764720Y623920D02*
X769670Y618970D01*
X774720Y638970D02*
X779670Y643920D01*
X774720Y643920D02*
X779670Y638970D01*
X804720Y618970D02*
X809670Y623920D01*
X804720Y623920D02*
X809670Y618970D01*
X794720Y638970D02*
X799670Y643920D01*
X794720Y643920D02*
X799670Y638970D01*
X824720Y618970D02*
X829670Y623920D01*
X824720Y623920D02*
X829670Y618970D01*
X814720Y638970D02*
X819670Y643920D01*
X814720Y643920D02*
X819670Y638970D01*
X634720Y663970D02*
X639670Y668920D01*
X634720Y668920D02*
X639670Y663970D01*
X654720Y663970D02*
X659670Y668920D01*
X654720Y668920D02*
X659670Y663970D01*
X674720Y663970D02*
X679670Y668920D01*
X674720Y668920D02*
X679670Y663970D01*
X694720Y663970D02*
X699670Y668920D01*
X694720Y668920D02*
X699670Y663970D01*
X714720Y663970D02*
X719670Y668920D01*
X714720Y668920D02*
X719670Y663970D01*
X734720Y663970D02*
X739670Y668920D01*
X734720Y668920D02*
X739670Y663970D01*
X774720Y663970D02*
X779670Y668920D01*
X774720Y668920D02*
X779670Y663970D01*
X794720Y663970D02*
X799670Y668920D01*
X794720Y668920D02*
X799670Y663970D01*
X814720Y663970D02*
X819670Y668920D01*
X814720Y668920D02*
X819670Y663970D01*
X644720Y683970D02*
X649670Y688920D01*
X644720Y688920D02*
X649670Y683970D01*
X664720Y683970D02*
X669670Y688920D01*
X664720Y688920D02*
X669670Y683970D01*
X684720Y683970D02*
X689670Y688920D01*
X684720Y688920D02*
X689670Y683970D01*
X704720Y683970D02*
X709670Y688920D01*
X704720Y688920D02*
X709670Y683970D01*
X724720Y683970D02*
X729670Y688920D01*
X724720Y688920D02*
X729670Y683970D01*
X764720Y683970D02*
X769670Y688920D01*
X764720Y688920D02*
X769670Y683970D01*
X784720Y683970D02*
X789670Y688920D01*
X784720Y688920D02*
X789670Y683970D01*
X804720Y683970D02*
X809670Y688920D01*
X804720Y688920D02*
X809670Y683970D01*
X824720Y683970D02*
X829670Y688920D01*
X824720Y688920D02*
X829670Y683970D01*
X634720Y638970D02*
X639670Y643920D01*
X634720Y643920D02*
X639670Y638970D01*
X644720Y618970D02*
X649670Y623920D01*
X644720Y623920D02*
X649670Y618970D01*
X654720Y338970D02*
X659670Y343920D01*
X654720Y343920D02*
X659670Y338970D01*
X664720Y318970D02*
X669670Y323920D01*
X664720Y323920D02*
X669670Y318970D01*
X674720Y338970D02*
X679670Y343920D01*
X674720Y343920D02*
X679670Y338970D01*
X684720Y318970D02*
X689670Y323920D01*
X684720Y323920D02*
X689670Y318970D01*
X694720Y338970D02*
X699670Y343920D01*
X694720Y343920D02*
X699670Y338970D01*
X704720Y318970D02*
X709670Y323920D01*
X704720Y323920D02*
X709670Y318970D01*
X714720Y338970D02*
X719670Y343920D01*
X714720Y343920D02*
X719670Y338970D01*
X724720Y318970D02*
X729670Y323920D01*
X724720Y323920D02*
X729670Y318970D01*
X734720Y338970D02*
X739670Y343920D01*
X734720Y343920D02*
X739670Y338970D01*
X784720Y318970D02*
X789670Y323920D01*
X784720Y323920D02*
X789670Y318970D01*
X764720Y318970D02*
X769670Y323920D01*
X764720Y323920D02*
X769670Y318970D01*
X774720Y338970D02*
X779670Y343920D01*
X774720Y343920D02*
X779670Y338970D01*
X804720Y318970D02*
X809670Y323920D01*
X804720Y323920D02*
X809670Y318970D01*
X794720Y338970D02*
X799670Y343920D01*
X794720Y343920D02*
X799670Y338970D01*
X824720Y318970D02*
X829670Y323920D01*
X824720Y323920D02*
X829670Y318970D01*
X814720Y338970D02*
X819670Y343920D01*
X814720Y343920D02*
X819670Y338970D01*
X634720Y363970D02*
X639670Y368920D01*
X634720Y368920D02*
X639670Y363970D01*
X654720Y363970D02*
X659670Y368920D01*
X654720Y368920D02*
X659670Y363970D01*
X674720Y363970D02*
X679670Y368920D01*
X674720Y368920D02*
X679670Y363970D01*
X694720Y363970D02*
X699670Y368920D01*
X694720Y368920D02*
X699670Y363970D01*
X714720Y363970D02*
X719670Y368920D01*
X714720Y368920D02*
X719670Y363970D01*
X734720Y363970D02*
X739670Y368920D01*
X734720Y368920D02*
X739670Y363970D01*
X774720Y363970D02*
X779670Y368920D01*
X774720Y368920D02*
X779670Y363970D01*
X794720Y363970D02*
X799670Y368920D01*
X794720Y368920D02*
X799670Y363970D01*
X814720Y363970D02*
X819670Y368920D01*
X814720Y368920D02*
X819670Y363970D01*
X644720Y383970D02*
X649670Y388920D01*
X644720Y388920D02*
X649670Y383970D01*
X664720Y383970D02*
X669670Y388920D01*
X664720Y388920D02*
X669670Y383970D01*
X684720Y383970D02*
X689670Y388920D01*
X684720Y388920D02*
X689670Y383970D01*
X704720Y383970D02*
X709670Y388920D01*
X704720Y388920D02*
X709670Y383970D01*
X724720Y383970D02*
X729670Y388920D01*
X724720Y388920D02*
X729670Y383970D01*
X764720Y383970D02*
X769670Y388920D01*
X764720Y388920D02*
X769670Y383970D01*
X784720Y383970D02*
X789670Y388920D01*
X784720Y388920D02*
X789670Y383970D01*
X804720Y383970D02*
X809670Y388920D01*
X804720Y388920D02*
X809670Y383970D01*
X824720Y383970D02*
X829670Y388920D01*
X824720Y388920D02*
X829670Y383970D01*
X634720Y338970D02*
X639670Y343920D01*
X634720Y343920D02*
X639670Y338970D01*
X644720Y318970D02*
X649670Y323920D01*
X644720Y323920D02*
X649670Y318970D01*
X654720Y38970D02*
X659670Y43920D01*
X654720Y43920D02*
X659670Y38970D01*
X664720Y18970D02*
X669670Y23920D01*
X664720Y23920D02*
X669670Y18970D01*
X674720Y38970D02*
X679670Y43920D01*
X674720Y43920D02*
X679670Y38970D01*
X684720Y18970D02*
X689670Y23920D01*
X684720Y23920D02*
X689670Y18970D01*
X694720Y38970D02*
X699670Y43920D01*
X694720Y43920D02*
X699670Y38970D01*
X704720Y18970D02*
X709670Y23920D01*
X704720Y23920D02*
X709670Y18970D01*
X714720Y38970D02*
X719670Y43920D01*
X714720Y43920D02*
X719670Y38970D01*
X724720Y18970D02*
X729670Y23920D01*
X724720Y23920D02*
X729670Y18970D01*
X734720Y38970D02*
X739670Y43920D01*
X734720Y43920D02*
X739670Y38970D01*
X784720Y18970D02*
X789670Y23920D01*
X784720Y23920D02*
X789670Y18970D01*
X764720Y18970D02*
X769670Y23920D01*
X764720Y23920D02*
X769670Y18970D01*
X774720Y38970D02*
X779670Y43920D01*
X774720Y43920D02*
X779670Y38970D01*
X804720Y18970D02*
X809670Y23920D01*
X804720Y23920D02*
X809670Y18970D01*
X794720Y38970D02*
X799670Y43920D01*
X794720Y43920D02*
X799670Y38970D01*
X824720Y18970D02*
X829670Y23920D01*
X824720Y23920D02*
X829670Y18970D01*
X814720Y38970D02*
X819670Y43920D01*
X814720Y43920D02*
X819670Y38970D01*
X634720Y63970D02*
X639670Y68920D01*
X634720Y68920D02*
X639670Y63970D01*
X654720Y63970D02*
X659670Y68920D01*
X654720Y68920D02*
X659670Y63970D01*
X674720Y63970D02*
X679670Y68920D01*
X674720Y68920D02*
X679670Y63970D01*
X694720Y63970D02*
X699670Y68920D01*
X694720Y68920D02*
X699670Y63970D01*
X714720Y63970D02*
X719670Y68920D01*
X714720Y68920D02*
X719670Y63970D01*
X734720Y63970D02*
X739670Y68920D01*
X734720Y68920D02*
X739670Y63970D01*
X774720Y63970D02*
X779670Y68920D01*
X774720Y68920D02*
X779670Y63970D01*
X794720Y63970D02*
X799670Y68920D01*
X794720Y68920D02*
X799670Y63970D01*
X814720Y63970D02*
X819670Y68920D01*
X814720Y68920D02*
X819670Y63970D01*
X644720Y83970D02*
X649670Y88920D01*
X644720Y88920D02*
X649670Y83970D01*
X664720Y83970D02*
X669670Y88920D01*
X664720Y88920D02*
X669670Y83970D01*
X684720Y83970D02*
X689670Y88920D01*
X684720Y88920D02*
X689670Y83970D01*
X704720Y83970D02*
X709670Y88920D01*
X704720Y88920D02*
X709670Y83970D01*
X724720Y83970D02*
X729670Y88920D01*
X724720Y88920D02*
X729670Y83970D01*
X764720Y83970D02*
X769670Y88920D01*
X764720Y88920D02*
X769670Y83970D01*
X784720Y83970D02*
X789670Y88920D01*
X784720Y88920D02*
X789670Y83970D01*
X804720Y83970D02*
X809670Y88920D01*
X804720Y88920D02*
X809670Y83970D01*
X824720Y83970D02*
X829670Y88920D01*
X824720Y88920D02*
X829670Y83970D01*
X634720Y38970D02*
X639670Y43920D01*
X634720Y43920D02*
X639670Y38970D01*
X644720Y18970D02*
X649670Y23920D01*
X644720Y23920D02*
X649670Y18970D01*
X654720Y-261030D02*
X659670Y-256080D01*
X654720Y-256080D02*
X659670Y-261030D01*
X664720Y-281030D02*
X669670Y-276080D01*
X664720Y-276080D02*
X669670Y-281030D01*
X674720Y-261030D02*
X679670Y-256080D01*
X674720Y-256080D02*
X679670Y-261030D01*
X684720Y-281030D02*
X689670Y-276080D01*
X684720Y-276080D02*
X689670Y-281030D01*
X694720Y-261030D02*
X699670Y-256080D01*
X694720Y-256080D02*
X699670Y-261030D01*
X704720Y-281030D02*
X709670Y-276080D01*
X704720Y-276080D02*
X709670Y-281030D01*
X714720Y-261030D02*
X719670Y-256080D01*
X714720Y-256080D02*
X719670Y-261030D01*
X724720Y-281030D02*
X729670Y-276080D01*
X724720Y-276080D02*
X729670Y-281030D01*
X734720Y-261030D02*
X739670Y-256080D01*
X734720Y-256080D02*
X739670Y-261030D01*
X784720Y-281030D02*
X789670Y-276080D01*
X784720Y-276080D02*
X789670Y-281030D01*
X764720Y-281030D02*
X769670Y-276080D01*
X764720Y-276080D02*
X769670Y-281030D01*
X774720Y-261030D02*
X779670Y-256080D01*
X774720Y-256080D02*
X779670Y-261030D01*
X804720Y-281030D02*
X809670Y-276080D01*
X804720Y-276080D02*
X809670Y-281030D01*
X794720Y-261030D02*
X799670Y-256080D01*
X794720Y-256080D02*
X799670Y-261030D01*
X824720Y-281030D02*
X829670Y-276080D01*
X824720Y-276080D02*
X829670Y-281030D01*
X814720Y-261030D02*
X819670Y-256080D01*
X814720Y-256080D02*
X819670Y-261030D01*
X634720Y-236030D02*
X639670Y-231080D01*
X634720Y-231080D02*
X639670Y-236030D01*
X654720Y-236030D02*
X659670Y-231080D01*
X654720Y-231080D02*
X659670Y-236030D01*
X674720Y-236030D02*
X679670Y-231080D01*
X674720Y-231080D02*
X679670Y-236030D01*
X694720Y-236030D02*
X699670Y-231080D01*
X694720Y-231080D02*
X699670Y-236030D01*
X714720Y-236030D02*
X719670Y-231080D01*
X714720Y-231080D02*
X719670Y-236030D01*
X734720Y-236030D02*
X739670Y-231080D01*
X734720Y-231080D02*
X739670Y-236030D01*
X774720Y-236030D02*
X779670Y-231080D01*
X774720Y-231080D02*
X779670Y-236030D01*
X794720Y-236030D02*
X799670Y-231080D01*
X794720Y-231080D02*
X799670Y-236030D01*
X814720Y-236030D02*
X819670Y-231080D01*
X814720Y-231080D02*
X819670Y-236030D01*
X644720Y-216030D02*
X649670Y-211080D01*
X644720Y-211080D02*
X649670Y-216030D01*
X664720Y-216030D02*
X669670Y-211080D01*
X664720Y-211080D02*
X669670Y-216030D01*
X684720Y-216030D02*
X689670Y-211080D01*
X684720Y-211080D02*
X689670Y-216030D01*
X704720Y-216030D02*
X709670Y-211080D01*
X704720Y-211080D02*
X709670Y-216030D01*
X724720Y-216030D02*
X729670Y-211080D01*
X724720Y-211080D02*
X729670Y-216030D01*
X764720Y-216030D02*
X769670Y-211080D01*
X764720Y-211080D02*
X769670Y-216030D01*
X784720Y-216030D02*
X789670Y-211080D01*
X784720Y-211080D02*
X789670Y-216030D01*
X804720Y-216030D02*
X809670Y-211080D01*
X804720Y-211080D02*
X809670Y-216030D01*
X824720Y-216030D02*
X829670Y-211080D01*
X824720Y-211080D02*
X829670Y-216030D01*
X634720Y-261030D02*
X639670Y-256080D01*
X634720Y-256080D02*
X639670Y-261030D01*
X644720Y-281030D02*
X649670Y-276080D01*
X644720Y-276080D02*
X649670Y-281030D01*
X1174720Y338970D02*
X1179670Y343920D01*
X1174720Y343920D02*
X1179670Y338970D01*
X1184720Y318970D02*
X1189670Y323920D01*
X1184720Y323920D02*
X1189670Y318970D01*
X1194720Y338970D02*
X1199670Y343920D01*
X1194720Y343920D02*
X1199670Y338970D01*
X1204720Y318970D02*
X1209670Y323920D01*
X1204720Y323920D02*
X1209670Y318970D01*
X1214720Y338970D02*
X1219670Y343920D01*
X1214720Y343920D02*
X1219670Y338970D01*
X1224720Y318970D02*
X1229670Y323920D01*
X1224720Y323920D02*
X1229670Y318970D01*
X1234720Y338970D02*
X1239670Y343920D01*
X1234720Y343920D02*
X1239670Y338970D01*
X1244720Y318970D02*
X1249670Y323920D01*
X1244720Y323920D02*
X1249670Y318970D01*
X1254720Y338970D02*
X1259670Y343920D01*
X1254720Y343920D02*
X1259670Y338970D01*
X1304720Y318970D02*
X1309670Y323920D01*
X1304720Y323920D02*
X1309670Y318970D01*
X1284720Y318970D02*
X1289670Y323920D01*
X1284720Y323920D02*
X1289670Y318970D01*
X1294720Y338970D02*
X1299670Y343920D01*
X1294720Y343920D02*
X1299670Y338970D01*
X1324720Y318970D02*
X1329670Y323920D01*
X1324720Y323920D02*
X1329670Y318970D01*
X1314720Y338970D02*
X1319670Y343920D01*
X1314720Y343920D02*
X1319670Y338970D01*
X1344720Y318970D02*
X1349670Y323920D01*
X1344720Y323920D02*
X1349670Y318970D01*
X1334720Y338970D02*
X1339670Y343920D01*
X1334720Y343920D02*
X1339670Y338970D01*
X1154720Y363970D02*
X1159670Y368920D01*
X1154720Y368920D02*
X1159670Y363970D01*
X1174720Y363970D02*
X1179670Y368920D01*
X1174720Y368920D02*
X1179670Y363970D01*
X1194720Y363970D02*
X1199670Y368920D01*
X1194720Y368920D02*
X1199670Y363970D01*
X1214720Y363970D02*
X1219670Y368920D01*
X1214720Y368920D02*
X1219670Y363970D01*
X1234720Y363970D02*
X1239670Y368920D01*
X1234720Y368920D02*
X1239670Y363970D01*
X1254720Y363970D02*
X1259670Y368920D01*
X1254720Y368920D02*
X1259670Y363970D01*
X1294720Y363970D02*
X1299670Y368920D01*
X1294720Y368920D02*
X1299670Y363970D01*
X1314720Y363970D02*
X1319670Y368920D01*
X1314720Y368920D02*
X1319670Y363970D01*
X1334720Y363970D02*
X1339670Y368920D01*
X1334720Y368920D02*
X1339670Y363970D01*
X1164720Y383970D02*
X1169670Y388920D01*
X1164720Y388920D02*
X1169670Y383970D01*
X1184720Y383970D02*
X1189670Y388920D01*
X1184720Y388920D02*
X1189670Y383970D01*
X1204720Y383970D02*
X1209670Y388920D01*
X1204720Y388920D02*
X1209670Y383970D01*
X1224720Y383970D02*
X1229670Y388920D01*
X1224720Y388920D02*
X1229670Y383970D01*
X1244720Y383970D02*
X1249670Y388920D01*
X1244720Y388920D02*
X1249670Y383970D01*
X1284720Y383970D02*
X1289670Y388920D01*
X1284720Y388920D02*
X1289670Y383970D01*
X1304720Y383970D02*
X1309670Y388920D01*
X1304720Y388920D02*
X1309670Y383970D01*
X1324720Y383970D02*
X1329670Y388920D01*
X1324720Y388920D02*
X1329670Y383970D01*
X1344720Y383970D02*
X1349670Y388920D01*
X1344720Y388920D02*
X1349670Y383970D01*
X1154720Y338970D02*
X1159670Y343920D01*
X1154720Y343920D02*
X1159670Y338970D01*
X1164720Y318970D02*
X1169670Y323920D01*
X1164720Y323920D02*
X1169670Y318970D01*
X1174720Y38970D02*
X1179670Y43920D01*
X1174720Y43920D02*
X1179670Y38970D01*
X1184720Y18970D02*
X1189670Y23920D01*
X1184720Y23920D02*
X1189670Y18970D01*
X1194720Y38970D02*
X1199670Y43920D01*
X1194720Y43920D02*
X1199670Y38970D01*
X1204720Y18970D02*
X1209670Y23920D01*
X1204720Y23920D02*
X1209670Y18970D01*
X1214720Y38970D02*
X1219670Y43920D01*
X1214720Y43920D02*
X1219670Y38970D01*
X1224720Y18970D02*
X1229670Y23920D01*
X1224720Y23920D02*
X1229670Y18970D01*
X1234720Y38970D02*
X1239670Y43920D01*
X1234720Y43920D02*
X1239670Y38970D01*
X1244720Y18970D02*
X1249670Y23920D01*
X1244720Y23920D02*
X1249670Y18970D01*
X1254720Y38970D02*
X1259670Y43920D01*
X1254720Y43920D02*
X1259670Y38970D01*
X1304720Y18970D02*
X1309670Y23920D01*
X1304720Y23920D02*
X1309670Y18970D01*
X1284720Y18970D02*
X1289670Y23920D01*
X1284720Y23920D02*
X1289670Y18970D01*
X1294720Y38970D02*
X1299670Y43920D01*
X1294720Y43920D02*
X1299670Y38970D01*
X1324720Y18970D02*
X1329670Y23920D01*
X1324720Y23920D02*
X1329670Y18970D01*
X1314720Y38970D02*
X1319670Y43920D01*
X1314720Y43920D02*
X1319670Y38970D01*
X1344720Y18970D02*
X1349670Y23920D01*
X1344720Y23920D02*
X1349670Y18970D01*
X1334720Y38970D02*
X1339670Y43920D01*
X1334720Y43920D02*
X1339670Y38970D01*
X1154720Y63970D02*
X1159670Y68920D01*
X1154720Y68920D02*
X1159670Y63970D01*
X1174720Y63970D02*
X1179670Y68920D01*
X1174720Y68920D02*
X1179670Y63970D01*
X1194720Y63970D02*
X1199670Y68920D01*
X1194720Y68920D02*
X1199670Y63970D01*
X1214720Y63970D02*
X1219670Y68920D01*
X1214720Y68920D02*
X1219670Y63970D01*
X1234720Y63970D02*
X1239670Y68920D01*
X1234720Y68920D02*
X1239670Y63970D01*
X1254720Y63970D02*
X1259670Y68920D01*
X1254720Y68920D02*
X1259670Y63970D01*
X1294720Y63970D02*
X1299670Y68920D01*
X1294720Y68920D02*
X1299670Y63970D01*
X1314720Y63970D02*
X1319670Y68920D01*
X1314720Y68920D02*
X1319670Y63970D01*
X1334720Y63970D02*
X1339670Y68920D01*
X1334720Y68920D02*
X1339670Y63970D01*
X1164720Y83970D02*
X1169670Y88920D01*
X1164720Y88920D02*
X1169670Y83970D01*
X1184720Y83970D02*
X1189670Y88920D01*
X1184720Y88920D02*
X1189670Y83970D01*
X1204720Y83970D02*
X1209670Y88920D01*
X1204720Y88920D02*
X1209670Y83970D01*
X1224720Y83970D02*
X1229670Y88920D01*
X1224720Y88920D02*
X1229670Y83970D01*
X1244720Y83970D02*
X1249670Y88920D01*
X1244720Y88920D02*
X1249670Y83970D01*
X1284720Y83970D02*
X1289670Y88920D01*
X1284720Y88920D02*
X1289670Y83970D01*
X1304720Y83970D02*
X1309670Y88920D01*
X1304720Y88920D02*
X1309670Y83970D01*
X1324720Y83970D02*
X1329670Y88920D01*
X1324720Y88920D02*
X1329670Y83970D01*
X1344720Y83970D02*
X1349670Y88920D01*
X1344720Y88920D02*
X1349670Y83970D01*
X1154720Y38970D02*
X1159670Y43920D01*
X1154720Y43920D02*
X1159670Y38970D01*
X1164720Y18970D02*
X1169670Y23920D01*
X1164720Y23920D02*
X1169670Y18970D01*
X1174720Y-261030D02*
X1179670Y-256080D01*
X1174720Y-256080D02*
X1179670Y-261030D01*
X1184720Y-281030D02*
X1189670Y-276080D01*
X1184720Y-276080D02*
X1189670Y-281030D01*
X1194720Y-261030D02*
X1199670Y-256080D01*
X1194720Y-256080D02*
X1199670Y-261030D01*
X1204720Y-281030D02*
X1209670Y-276080D01*
X1204720Y-276080D02*
X1209670Y-281030D01*
X1214720Y-261030D02*
X1219670Y-256080D01*
X1214720Y-256080D02*
X1219670Y-261030D01*
X1224720Y-281030D02*
X1229670Y-276080D01*
X1224720Y-276080D02*
X1229670Y-281030D01*
X1234720Y-261030D02*
X1239670Y-256080D01*
X1234720Y-256080D02*
X1239670Y-261030D01*
X1244720Y-281030D02*
X1249670Y-276080D01*
X1244720Y-276080D02*
X1249670Y-281030D01*
X1254720Y-261030D02*
X1259670Y-256080D01*
X1254720Y-256080D02*
X1259670Y-261030D01*
X1304720Y-281030D02*
X1309670Y-276080D01*
X1304720Y-276080D02*
X1309670Y-281030D01*
X1284720Y-281030D02*
X1289670Y-276080D01*
X1284720Y-276080D02*
X1289670Y-281030D01*
X1294720Y-261030D02*
X1299670Y-256080D01*
X1294720Y-256080D02*
X1299670Y-261030D01*
X1324720Y-281030D02*
X1329670Y-276080D01*
X1324720Y-276080D02*
X1329670Y-281030D01*
X1314720Y-261030D02*
X1319670Y-256080D01*
X1314720Y-256080D02*
X1319670Y-261030D01*
X1344720Y-281030D02*
X1349670Y-276080D01*
X1344720Y-276080D02*
X1349670Y-281030D01*
X1334720Y-261030D02*
X1339670Y-256080D01*
X1334720Y-256080D02*
X1339670Y-261030D01*
X1154720Y-236030D02*
X1159670Y-231080D01*
X1154720Y-231080D02*
X1159670Y-236030D01*
X1174720Y-236030D02*
X1179670Y-231080D01*
X1174720Y-231080D02*
X1179670Y-236030D01*
X1194720Y-236030D02*
X1199670Y-231080D01*
X1194720Y-231080D02*
X1199670Y-236030D01*
X1214720Y-236030D02*
X1219670Y-231080D01*
X1214720Y-231080D02*
X1219670Y-236030D01*
X1234720Y-236030D02*
X1239670Y-231080D01*
X1234720Y-231080D02*
X1239670Y-236030D01*
X1254720Y-236030D02*
X1259670Y-231080D01*
X1254720Y-231080D02*
X1259670Y-236030D01*
X1294720Y-236030D02*
X1299670Y-231080D01*
X1294720Y-231080D02*
X1299670Y-236030D01*
X1314720Y-236030D02*
X1319670Y-231080D01*
X1314720Y-231080D02*
X1319670Y-236030D01*
X1334720Y-236030D02*
X1339670Y-231080D01*
X1334720Y-231080D02*
X1339670Y-236030D01*
X1164720Y-216030D02*
X1169670Y-211080D01*
X1164720Y-211080D02*
X1169670Y-216030D01*
X1184720Y-216030D02*
X1189670Y-211080D01*
X1184720Y-211080D02*
X1189670Y-216030D01*
X1204720Y-216030D02*
X1209670Y-211080D01*
X1204720Y-211080D02*
X1209670Y-216030D01*
X1224720Y-216030D02*
X1229670Y-211080D01*
X1224720Y-211080D02*
X1229670Y-216030D01*
X1244720Y-216030D02*
X1249670Y-211080D01*
X1244720Y-211080D02*
X1249670Y-216030D01*
X1284720Y-216030D02*
X1289670Y-211080D01*
X1284720Y-211080D02*
X1289670Y-216030D01*
X1304720Y-216030D02*
X1309670Y-211080D01*
X1304720Y-211080D02*
X1309670Y-216030D01*
X1324720Y-216030D02*
X1329670Y-211080D01*
X1324720Y-211080D02*
X1329670Y-216030D01*
X1344720Y-216030D02*
X1349670Y-211080D01*
X1344720Y-211080D02*
X1349670Y-216030D01*
X1154720Y-261030D02*
X1159670Y-256080D01*
X1154720Y-256080D02*
X1159670Y-261030D01*
X1164720Y-281030D02*
X1169670Y-276080D01*
X1164720Y-276080D02*
X1169670Y-281030D01*
X1174720Y638970D02*
X1179670Y643920D01*
X1174720Y643920D02*
X1179670Y638970D01*
X1184720Y618970D02*
X1189670Y623920D01*
X1184720Y623920D02*
X1189670Y618970D01*
X1194720Y638970D02*
X1199670Y643920D01*
X1194720Y643920D02*
X1199670Y638970D01*
X1204720Y618970D02*
X1209670Y623920D01*
X1204720Y623920D02*
X1209670Y618970D01*
X1214720Y638970D02*
X1219670Y643920D01*
X1214720Y643920D02*
X1219670Y638970D01*
X1224720Y618970D02*
X1229670Y623920D01*
X1224720Y623920D02*
X1229670Y618970D01*
X1234720Y638970D02*
X1239670Y643920D01*
X1234720Y643920D02*
X1239670Y638970D01*
X1244720Y618970D02*
X1249670Y623920D01*
X1244720Y623920D02*
X1249670Y618970D01*
X1254720Y638970D02*
X1259670Y643920D01*
X1254720Y643920D02*
X1259670Y638970D01*
X1304720Y618970D02*
X1309670Y623920D01*
X1304720Y623920D02*
X1309670Y618970D01*
X1284720Y618970D02*
X1289670Y623920D01*
X1284720Y623920D02*
X1289670Y618970D01*
X1294720Y638970D02*
X1299670Y643920D01*
X1294720Y643920D02*
X1299670Y638970D01*
X1324720Y618970D02*
X1329670Y623920D01*
X1324720Y623920D02*
X1329670Y618970D01*
X1314720Y638970D02*
X1319670Y643920D01*
X1314720Y643920D02*
X1319670Y638970D01*
X1344720Y618970D02*
X1349670Y623920D01*
X1344720Y623920D02*
X1349670Y618970D01*
X1334720Y638970D02*
X1339670Y643920D01*
X1334720Y643920D02*
X1339670Y638970D01*
X1154720Y663970D02*
X1159670Y668920D01*
X1154720Y668920D02*
X1159670Y663970D01*
X1174720Y663970D02*
X1179670Y668920D01*
X1174720Y668920D02*
X1179670Y663970D01*
X1194720Y663970D02*
X1199670Y668920D01*
X1194720Y668920D02*
X1199670Y663970D01*
X1214720Y663970D02*
X1219670Y668920D01*
X1214720Y668920D02*
X1219670Y663970D01*
X1234720Y663970D02*
X1239670Y668920D01*
X1234720Y668920D02*
X1239670Y663970D01*
X1254720Y663970D02*
X1259670Y668920D01*
X1254720Y668920D02*
X1259670Y663970D01*
X1294720Y663970D02*
X1299670Y668920D01*
X1294720Y668920D02*
X1299670Y663970D01*
X1314720Y663970D02*
X1319670Y668920D01*
X1314720Y668920D02*
X1319670Y663970D01*
X1334720Y663970D02*
X1339670Y668920D01*
X1334720Y668920D02*
X1339670Y663970D01*
X1164720Y683970D02*
X1169670Y688920D01*
X1164720Y688920D02*
X1169670Y683970D01*
X1184720Y683970D02*
X1189670Y688920D01*
X1184720Y688920D02*
X1189670Y683970D01*
X1204720Y683970D02*
X1209670Y688920D01*
X1204720Y688920D02*
X1209670Y683970D01*
X1224720Y683970D02*
X1229670Y688920D01*
X1224720Y688920D02*
X1229670Y683970D01*
X1244720Y683970D02*
X1249670Y688920D01*
X1244720Y688920D02*
X1249670Y683970D01*
X1284720Y683970D02*
X1289670Y688920D01*
X1284720Y688920D02*
X1289670Y683970D01*
X1304720Y683970D02*
X1309670Y688920D01*
X1304720Y688920D02*
X1309670Y683970D01*
X1324720Y683970D02*
X1329670Y688920D01*
X1324720Y688920D02*
X1329670Y683970D01*
X1344720Y683970D02*
X1349670Y688920D01*
X1344720Y688920D02*
X1349670Y683970D01*
X1154720Y638970D02*
X1159670Y643920D01*
X1154720Y643920D02*
X1159670Y638970D01*
X1164720Y618970D02*
X1169670Y623920D01*
X1164720Y623920D02*
X1169670Y618970D01*
X1694720Y338970D02*
X1699670Y343920D01*
X1694720Y343920D02*
X1699670Y338970D01*
X1704720Y318970D02*
X1709670Y323920D01*
X1704720Y323920D02*
X1709670Y318970D01*
X1714720Y338970D02*
X1719670Y343920D01*
X1714720Y343920D02*
X1719670Y338970D01*
X1724720Y318970D02*
X1729670Y323920D01*
X1724720Y323920D02*
X1729670Y318970D01*
X1734720Y338970D02*
X1739670Y343920D01*
X1734720Y343920D02*
X1739670Y338970D01*
X1744720Y318970D02*
X1749670Y323920D01*
X1744720Y323920D02*
X1749670Y318970D01*
X1754720Y338970D02*
X1759670Y343920D01*
X1754720Y343920D02*
X1759670Y338970D01*
X1764720Y318970D02*
X1769670Y323920D01*
X1764720Y323920D02*
X1769670Y318970D01*
X1774720Y338970D02*
X1779670Y343920D01*
X1774720Y343920D02*
X1779670Y338970D01*
X1824720Y318970D02*
X1829670Y323920D01*
X1824720Y323920D02*
X1829670Y318970D01*
X1804720Y318970D02*
X1809670Y323920D01*
X1804720Y323920D02*
X1809670Y318970D01*
X1814720Y338970D02*
X1819670Y343920D01*
X1814720Y343920D02*
X1819670Y338970D01*
X1844720Y318970D02*
X1849670Y323920D01*
X1844720Y323920D02*
X1849670Y318970D01*
X1834720Y338970D02*
X1839670Y343920D01*
X1834720Y343920D02*
X1839670Y338970D01*
X1864720Y318970D02*
X1869670Y323920D01*
X1864720Y323920D02*
X1869670Y318970D01*
X1854720Y338970D02*
X1859670Y343920D01*
X1854720Y343920D02*
X1859670Y338970D01*
X1674720Y363970D02*
X1679670Y368920D01*
X1674720Y368920D02*
X1679670Y363970D01*
X1694720Y363970D02*
X1699670Y368920D01*
X1694720Y368920D02*
X1699670Y363970D01*
X1714720Y363970D02*
X1719670Y368920D01*
X1714720Y368920D02*
X1719670Y363970D01*
X1734720Y363970D02*
X1739670Y368920D01*
X1734720Y368920D02*
X1739670Y363970D01*
X1754720Y363970D02*
X1759670Y368920D01*
X1754720Y368920D02*
X1759670Y363970D01*
X1774720Y363970D02*
X1779670Y368920D01*
X1774720Y368920D02*
X1779670Y363970D01*
X1814720Y363970D02*
X1819670Y368920D01*
X1814720Y368920D02*
X1819670Y363970D01*
X1834720Y363970D02*
X1839670Y368920D01*
X1834720Y368920D02*
X1839670Y363970D01*
X1854720Y363970D02*
X1859670Y368920D01*
X1854720Y368920D02*
X1859670Y363970D01*
X1684720Y383970D02*
X1689670Y388920D01*
X1684720Y388920D02*
X1689670Y383970D01*
X1704720Y383970D02*
X1709670Y388920D01*
X1704720Y388920D02*
X1709670Y383970D01*
X1724720Y383970D02*
X1729670Y388920D01*
X1724720Y388920D02*
X1729670Y383970D01*
X1744720Y383970D02*
X1749670Y388920D01*
X1744720Y388920D02*
X1749670Y383970D01*
X1764720Y383970D02*
X1769670Y388920D01*
X1764720Y388920D02*
X1769670Y383970D01*
X1804720Y383970D02*
X1809670Y388920D01*
X1804720Y388920D02*
X1809670Y383970D01*
X1824720Y383970D02*
X1829670Y388920D01*
X1824720Y388920D02*
X1829670Y383970D01*
X1844720Y383970D02*
X1849670Y388920D01*
X1844720Y388920D02*
X1849670Y383970D01*
X1864720Y383970D02*
X1869670Y388920D01*
X1864720Y388920D02*
X1869670Y383970D01*
X1674720Y338970D02*
X1679670Y343920D01*
X1674720Y343920D02*
X1679670Y338970D01*
X1684720Y318970D02*
X1689670Y323920D01*
X1684720Y323920D02*
X1689670Y318970D01*
X1694720Y38970D02*
X1699670Y43920D01*
X1694720Y43920D02*
X1699670Y38970D01*
X1704720Y18970D02*
X1709670Y23920D01*
X1704720Y23920D02*
X1709670Y18970D01*
X1714720Y38970D02*
X1719670Y43920D01*
X1714720Y43920D02*
X1719670Y38970D01*
X1724720Y18970D02*
X1729670Y23920D01*
X1724720Y23920D02*
X1729670Y18970D01*
X1734720Y38970D02*
X1739670Y43920D01*
X1734720Y43920D02*
X1739670Y38970D01*
X1744720Y18970D02*
X1749670Y23920D01*
X1744720Y23920D02*
X1749670Y18970D01*
X1754720Y38970D02*
X1759670Y43920D01*
X1754720Y43920D02*
X1759670Y38970D01*
X1764720Y18970D02*
X1769670Y23920D01*
X1764720Y23920D02*
X1769670Y18970D01*
X1774720Y38970D02*
X1779670Y43920D01*
X1774720Y43920D02*
X1779670Y38970D01*
X1824720Y18970D02*
X1829670Y23920D01*
X1824720Y23920D02*
X1829670Y18970D01*
X1804720Y18970D02*
X1809670Y23920D01*
X1804720Y23920D02*
X1809670Y18970D01*
X1814720Y38970D02*
X1819670Y43920D01*
X1814720Y43920D02*
X1819670Y38970D01*
X1844720Y18970D02*
X1849670Y23920D01*
X1844720Y23920D02*
X1849670Y18970D01*
X1834720Y38970D02*
X1839670Y43920D01*
X1834720Y43920D02*
X1839670Y38970D01*
X1864720Y18970D02*
X1869670Y23920D01*
X1864720Y23920D02*
X1869670Y18970D01*
X1854720Y38970D02*
X1859670Y43920D01*
X1854720Y43920D02*
X1859670Y38970D01*
X1674720Y63970D02*
X1679670Y68920D01*
X1674720Y68920D02*
X1679670Y63970D01*
X1694720Y63970D02*
X1699670Y68920D01*
X1694720Y68920D02*
X1699670Y63970D01*
X1714720Y63970D02*
X1719670Y68920D01*
X1714720Y68920D02*
X1719670Y63970D01*
X1734720Y63970D02*
X1739670Y68920D01*
X1734720Y68920D02*
X1739670Y63970D01*
X1754720Y63970D02*
X1759670Y68920D01*
X1754720Y68920D02*
X1759670Y63970D01*
X1774720Y63970D02*
X1779670Y68920D01*
X1774720Y68920D02*
X1779670Y63970D01*
X1814720Y63970D02*
X1819670Y68920D01*
X1814720Y68920D02*
X1819670Y63970D01*
X1834720Y63970D02*
X1839670Y68920D01*
X1834720Y68920D02*
X1839670Y63970D01*
X1854720Y63970D02*
X1859670Y68920D01*
X1854720Y68920D02*
X1859670Y63970D01*
X1684720Y83970D02*
X1689670Y88920D01*
X1684720Y88920D02*
X1689670Y83970D01*
X1704720Y83970D02*
X1709670Y88920D01*
X1704720Y88920D02*
X1709670Y83970D01*
X1724720Y83970D02*
X1729670Y88920D01*
X1724720Y88920D02*
X1729670Y83970D01*
X1744720Y83970D02*
X1749670Y88920D01*
X1744720Y88920D02*
X1749670Y83970D01*
X1764720Y83970D02*
X1769670Y88920D01*
X1764720Y88920D02*
X1769670Y83970D01*
X1804720Y83970D02*
X1809670Y88920D01*
X1804720Y88920D02*
X1809670Y83970D01*
X1824720Y83970D02*
X1829670Y88920D01*
X1824720Y88920D02*
X1829670Y83970D01*
X1844720Y83970D02*
X1849670Y88920D01*
X1844720Y88920D02*
X1849670Y83970D01*
X1864720Y83970D02*
X1869670Y88920D01*
X1864720Y88920D02*
X1869670Y83970D01*
X1674720Y38970D02*
X1679670Y43920D01*
X1674720Y43920D02*
X1679670Y38970D01*
X1684720Y18970D02*
X1689670Y23920D01*
X1684720Y23920D02*
X1689670Y18970D01*
X1694720Y-261030D02*
X1699670Y-256080D01*
X1694720Y-256080D02*
X1699670Y-261030D01*
X1704720Y-281030D02*
X1709670Y-276080D01*
X1704720Y-276080D02*
X1709670Y-281030D01*
X1714720Y-261030D02*
X1719670Y-256080D01*
X1714720Y-256080D02*
X1719670Y-261030D01*
X1724720Y-281030D02*
X1729670Y-276080D01*
X1724720Y-276080D02*
X1729670Y-281030D01*
X1734720Y-261030D02*
X1739670Y-256080D01*
X1734720Y-256080D02*
X1739670Y-261030D01*
X1744720Y-281030D02*
X1749670Y-276080D01*
X1744720Y-276080D02*
X1749670Y-281030D01*
X1754720Y-261030D02*
X1759670Y-256080D01*
X1754720Y-256080D02*
X1759670Y-261030D01*
X1764720Y-281030D02*
X1769670Y-276080D01*
X1764720Y-276080D02*
X1769670Y-281030D01*
X1774720Y-261030D02*
X1779670Y-256080D01*
X1774720Y-256080D02*
X1779670Y-261030D01*
X1824720Y-281030D02*
X1829670Y-276080D01*
X1824720Y-276080D02*
X1829670Y-281030D01*
X1804720Y-281030D02*
X1809670Y-276080D01*
X1804720Y-276080D02*
X1809670Y-281030D01*
X1814720Y-261030D02*
X1819670Y-256080D01*
X1814720Y-256080D02*
X1819670Y-261030D01*
X1844720Y-281030D02*
X1849670Y-276080D01*
X1844720Y-276080D02*
X1849670Y-281030D01*
X1834720Y-261030D02*
X1839670Y-256080D01*
X1834720Y-256080D02*
X1839670Y-261030D01*
X1864720Y-281030D02*
X1869670Y-276080D01*
X1864720Y-276080D02*
X1869670Y-281030D01*
X1854720Y-261030D02*
X1859670Y-256080D01*
X1854720Y-256080D02*
X1859670Y-261030D01*
X1674720Y-236030D02*
X1679670Y-231080D01*
X1674720Y-231080D02*
X1679670Y-236030D01*
X1694720Y-236030D02*
X1699670Y-231080D01*
X1694720Y-231080D02*
X1699670Y-236030D01*
X1714720Y-236030D02*
X1719670Y-231080D01*
X1714720Y-231080D02*
X1719670Y-236030D01*
X1734720Y-236030D02*
X1739670Y-231080D01*
X1734720Y-231080D02*
X1739670Y-236030D01*
X1754720Y-236030D02*
X1759670Y-231080D01*
X1754720Y-231080D02*
X1759670Y-236030D01*
X1774720Y-236030D02*
X1779670Y-231080D01*
X1774720Y-231080D02*
X1779670Y-236030D01*
X1814720Y-236030D02*
X1819670Y-231080D01*
X1814720Y-231080D02*
X1819670Y-236030D01*
X1834720Y-236030D02*
X1839670Y-231080D01*
X1834720Y-231080D02*
X1839670Y-236030D01*
X1854720Y-236030D02*
X1859670Y-231080D01*
X1854720Y-231080D02*
X1859670Y-236030D01*
X1684720Y-216030D02*
X1689670Y-211080D01*
X1684720Y-211080D02*
X1689670Y-216030D01*
X1704720Y-216030D02*
X1709670Y-211080D01*
X1704720Y-211080D02*
X1709670Y-216030D01*
X1724720Y-216030D02*
X1729670Y-211080D01*
X1724720Y-211080D02*
X1729670Y-216030D01*
X1744720Y-216030D02*
X1749670Y-211080D01*
X1744720Y-211080D02*
X1749670Y-216030D01*
X1764720Y-216030D02*
X1769670Y-211080D01*
X1764720Y-211080D02*
X1769670Y-216030D01*
X1804720Y-216030D02*
X1809670Y-211080D01*
X1804720Y-211080D02*
X1809670Y-216030D01*
X1824720Y-216030D02*
X1829670Y-211080D01*
X1824720Y-211080D02*
X1829670Y-216030D01*
X1844720Y-216030D02*
X1849670Y-211080D01*
X1844720Y-211080D02*
X1849670Y-216030D01*
X1864720Y-216030D02*
X1869670Y-211080D01*
X1864720Y-211080D02*
X1869670Y-216030D01*
X1674720Y-261030D02*
X1679670Y-256080D01*
X1674720Y-256080D02*
X1679670Y-261030D01*
X1684720Y-281030D02*
X1689670Y-276080D01*
X1684720Y-276080D02*
X1689670Y-281030D01*
X1694720Y638970D02*
X1699670Y643920D01*
X1694720Y643920D02*
X1699670Y638970D01*
X1704720Y618970D02*
X1709670Y623920D01*
X1704720Y623920D02*
X1709670Y618970D01*
X1714720Y638970D02*
X1719670Y643920D01*
X1714720Y643920D02*
X1719670Y638970D01*
X1724720Y618970D02*
X1729670Y623920D01*
X1724720Y623920D02*
X1729670Y618970D01*
X1734720Y638970D02*
X1739670Y643920D01*
X1734720Y643920D02*
X1739670Y638970D01*
X1744720Y618970D02*
X1749670Y623920D01*
X1744720Y623920D02*
X1749670Y618970D01*
X1754720Y638970D02*
X1759670Y643920D01*
X1754720Y643920D02*
X1759670Y638970D01*
X1764720Y618970D02*
X1769670Y623920D01*
X1764720Y623920D02*
X1769670Y618970D01*
X1774720Y638970D02*
X1779670Y643920D01*
X1774720Y643920D02*
X1779670Y638970D01*
X1824720Y618970D02*
X1829670Y623920D01*
X1824720Y623920D02*
X1829670Y618970D01*
X1804720Y618970D02*
X1809670Y623920D01*
X1804720Y623920D02*
X1809670Y618970D01*
X1814720Y638970D02*
X1819670Y643920D01*
X1814720Y643920D02*
X1819670Y638970D01*
X1844720Y618970D02*
X1849670Y623920D01*
X1844720Y623920D02*
X1849670Y618970D01*
X1834720Y638970D02*
X1839670Y643920D01*
X1834720Y643920D02*
X1839670Y638970D01*
X1864720Y618970D02*
X1869670Y623920D01*
X1864720Y623920D02*
X1869670Y618970D01*
X1854720Y638970D02*
X1859670Y643920D01*
X1854720Y643920D02*
X1859670Y638970D01*
X1674720Y663970D02*
X1679670Y668920D01*
X1674720Y668920D02*
X1679670Y663970D01*
X1694720Y663970D02*
X1699670Y668920D01*
X1694720Y668920D02*
X1699670Y663970D01*
X1714720Y663970D02*
X1719670Y668920D01*
X1714720Y668920D02*
X1719670Y663970D01*
X1734720Y663970D02*
X1739670Y668920D01*
X1734720Y668920D02*
X1739670Y663970D01*
X1754720Y663970D02*
X1759670Y668920D01*
X1754720Y668920D02*
X1759670Y663970D01*
X1774720Y663970D02*
X1779670Y668920D01*
X1774720Y668920D02*
X1779670Y663970D01*
X1814720Y663970D02*
X1819670Y668920D01*
X1814720Y668920D02*
X1819670Y663970D01*
X1834720Y663970D02*
X1839670Y668920D01*
X1834720Y668920D02*
X1839670Y663970D01*
X1854720Y663970D02*
X1859670Y668920D01*
X1854720Y668920D02*
X1859670Y663970D01*
X1684720Y683970D02*
X1689670Y688920D01*
X1684720Y688920D02*
X1689670Y683970D01*
X1704720Y683970D02*
X1709670Y688920D01*
X1704720Y688920D02*
X1709670Y683970D01*
X1724720Y683970D02*
X1729670Y688920D01*
X1724720Y688920D02*
X1729670Y683970D01*
X1744720Y683970D02*
X1749670Y688920D01*
X1744720Y688920D02*
X1749670Y683970D01*
X1764720Y683970D02*
X1769670Y688920D01*
X1764720Y688920D02*
X1769670Y683970D01*
X1804720Y683970D02*
X1809670Y688920D01*
X1804720Y688920D02*
X1809670Y683970D01*
X1824720Y683970D02*
X1829670Y688920D01*
X1824720Y688920D02*
X1829670Y683970D01*
X1844720Y683970D02*
X1849670Y688920D01*
X1844720Y688920D02*
X1849670Y683970D01*
X1864720Y683970D02*
X1869670Y688920D01*
X1864720Y688920D02*
X1869670Y683970D01*
X1674720Y638970D02*
X1679670Y643920D01*
X1674720Y643920D02*
X1679670Y638970D01*
X1684720Y618970D02*
X1689670Y623920D01*
X1684720Y623920D02*
X1689670Y618970D01*
X36500Y716000D02*
X41500Y716000D01*
X41500Y721000D01*
X36500Y721000D01*
X36500Y716000D01*
X110500Y802000D02*
X115500Y802000D01*
X115500Y807000D01*
X110500Y807000D01*
X110500Y802000D01*
X124500Y903500D02*
X129500Y903500D01*
X129500Y908500D01*
X124500Y908500D01*
X124500Y903500D01*
X229500Y890000D02*
X234500Y890000D01*
X234500Y895000D01*
X229500Y895000D01*
X229500Y890000D01*
X663500Y744500D02*
X668500Y744500D01*
X668500Y749500D01*
X663500Y749500D01*
X663500Y744500D01*
X371500Y791500D02*
X376500Y791500D01*
X376500Y796500D01*
X371500Y796500D01*
X371500Y791500D01*
X114000Y-432000D02*
X119000Y-432000D01*
X119000Y-427000D01*
X114000Y-427000D01*
X114000Y-432000D01*
X237500Y-430500D02*
X242500Y-430500D01*
X242500Y-425500D01*
X237500Y-425500D01*
X237500Y-430500D01*
X398000Y-426500D02*
X403000Y-426500D01*
X403000Y-421500D01*
X398000Y-421500D01*
X398000Y-426500D01*
X103000Y-335000D02*
X108000Y-335000D01*
X108000Y-330000D01*
X103000Y-330000D01*
X103000Y-335000D01*
X138500Y-315000D02*
X143500Y-315000D01*
X143500Y-310000D01*
X138500Y-310000D01*
X138500Y-315000D01*
X416500Y-320000D02*
X421500Y-320000D01*
X421500Y-315000D01*
X416500Y-315000D01*
X416500Y-320000D01*
X435500Y-333000D02*
X440500Y-333000D01*
X440500Y-328000D01*
X435500Y-328000D01*
X435500Y-333000D01*
X238000Y-313000D02*
X243000Y-313000D01*
X243000Y-308000D01*
X238000Y-308000D01*
X238000Y-313000D01*
X388500Y-307000D02*
X393500Y-307000D01*
X393500Y-302000D01*
X388500Y-302000D01*
X388500Y-307000D01*
X4500Y-283500D02*
X9500Y-283500D01*
X9500Y-278500D01*
X4500Y-278500D01*
X4500Y-283500D01*
X-17500Y-131000D02*
X-12500Y-131000D01*
X-12500Y-126000D01*
X-17500Y-126000D01*
X-17500Y-131000D01*
X114000Y-132000D02*
X119000Y-132000D01*
X119000Y-127000D01*
X114000Y-127000D01*
X114000Y-132000D01*
X103000Y-35000D02*
X108000Y-35000D01*
X108000Y-30000D01*
X103000Y-30000D01*
X103000Y-35000D01*
X237000Y-37500D02*
X242000Y-37500D01*
X242000Y-32500D01*
X237000Y-32500D01*
X237000Y-37500D01*
X275500Y-35000D02*
X280500Y-35000D01*
X280500Y-30000D01*
X275500Y-30000D01*
X275500Y-35000D01*
X138500Y-15000D02*
X143500Y-15000D01*
X143500Y-10000D01*
X138500Y-10000D01*
X138500Y-15000D01*
X264000Y-15000D02*
X269000Y-15000D01*
X269000Y-10000D01*
X264000Y-10000D01*
X264000Y-15000D01*
X332541Y-29500D02*
X337541Y-29500D01*
X337541Y-24500D01*
X332541Y-24500D01*
X332541Y-29500D01*
X443500Y-21000D02*
X448500Y-21000D01*
X448500Y-16000D01*
X443500Y-16000D01*
X443500Y-21000D01*
X227500Y-3000D02*
X232500Y-3000D01*
X232500Y2000D01*
X227500Y2000D01*
X227500Y-3000D01*
X249500Y-7500D02*
X254500Y-7500D01*
X254500Y-2500D01*
X249500Y-2500D01*
X249500Y-7500D01*
X384500Y-5000D02*
X389500Y-5000D01*
X389500Y0D01*
X384500Y0D01*
X384500Y-5000D01*
X393000Y26000D02*
X398000Y26000D01*
X398000Y31000D01*
X393000Y31000D01*
X393000Y26000D01*
X351000Y46500D02*
X356000Y46500D01*
X356000Y51500D01*
X351000Y51500D01*
X351000Y46500D01*
X426500Y82500D02*
X431500Y82500D01*
X431500Y87500D01*
X426500Y87500D01*
X426500Y82500D01*
X435500Y94000D02*
X440500Y94000D01*
X440500Y99000D01*
X435500Y99000D01*
X435500Y94000D01*
X459500Y103500D02*
X464500Y103500D01*
X464500Y108500D01*
X459500Y108500D01*
X459500Y103500D01*
X398500Y110000D02*
X403500Y110000D01*
X403500Y115000D01*
X398500Y115000D01*
X398500Y110000D01*
X419000Y141000D02*
X424000Y141000D01*
X424000Y146000D01*
X419000Y146000D01*
X419000Y141000D01*
X114000Y168000D02*
X119000Y168000D01*
X119000Y173000D01*
X114000Y173000D01*
X114000Y168000D01*
X237500Y169500D02*
X242500Y169500D01*
X242500Y174500D01*
X237500Y174500D01*
X237500Y169500D01*
X398000Y173500D02*
X403000Y173500D01*
X403000Y178500D01*
X398000Y178500D01*
X398000Y173500D01*
X435500Y168500D02*
X440500Y168500D01*
X440500Y173500D01*
X435500Y173500D01*
X435500Y168500D01*
X103000Y265000D02*
X108000Y265000D01*
X108000Y270000D01*
X103000Y270000D01*
X103000Y265000D01*
X264000Y263500D02*
X269000Y263500D01*
X269000Y268500D01*
X264000Y268500D01*
X264000Y263500D01*
X277000Y264000D02*
X282000Y264000D01*
X282000Y269000D01*
X277000Y269000D01*
X277000Y264000D01*
X138500Y285000D02*
X143500Y285000D01*
X143500Y290000D01*
X138500Y290000D01*
X138500Y285000D01*
X416500Y280000D02*
X421500Y280000D01*
X421500Y285000D01*
X416500Y285000D01*
X416500Y280000D01*
X435500Y267000D02*
X440500Y267000D01*
X440500Y272000D01*
X435500Y272000D01*
X435500Y267000D01*
X238000Y287000D02*
X243000Y287000D01*
X243000Y292000D01*
X238000Y292000D01*
X238000Y287000D01*
X388500Y293000D02*
X393500Y293000D01*
X393500Y298000D01*
X388500Y298000D01*
X388500Y293000D01*
X4500Y316500D02*
X9500Y316500D01*
X9500Y321500D01*
X4500Y321500D01*
X4500Y316500D01*
X373000Y360500D02*
X378000Y360500D01*
X378000Y365500D01*
X373000Y365500D01*
X373000Y360500D01*
X289500Y463000D02*
X294500Y463000D01*
X294500Y468000D01*
X289500Y468000D01*
X289500Y463000D01*
X114000Y468000D02*
X119000Y468000D01*
X119000Y473000D01*
X114000Y473000D01*
X114000Y468000D01*
X398000Y472500D02*
X403000Y472500D01*
X403000Y477500D01*
X398000Y477500D01*
X398000Y472500D01*
X435500Y469500D02*
X440500Y469500D01*
X440500Y474500D01*
X435500Y474500D01*
X435500Y469500D01*
X103000Y565000D02*
X108000Y565000D01*
X108000Y570000D01*
X103000Y570000D01*
X103000Y565000D01*
X275500Y565000D02*
X280500Y565000D01*
X280500Y570000D01*
X275500Y570000D01*
X275500Y565000D01*
X398000Y560500D02*
X403000Y560500D01*
X403000Y565500D01*
X398000Y565500D01*
X398000Y560500D01*
X436000Y560500D02*
X441000Y560500D01*
X441000Y565500D01*
X436000Y565500D01*
X436000Y560500D01*
X138500Y585000D02*
X143500Y585000D01*
X143500Y590000D01*
X138500Y590000D01*
X138500Y585000D01*
X422500Y570500D02*
X427500Y570500D01*
X427500Y575500D01*
X422500Y575500D01*
X422500Y570500D01*
X245000Y586500D02*
X250000Y586500D01*
X250000Y591500D01*
X245000Y591500D01*
X245000Y586500D01*
X634000Y-432000D02*
X639000Y-432000D01*
X639000Y-427000D01*
X634000Y-427000D01*
X634000Y-432000D01*
X918000Y-426500D02*
X923000Y-426500D01*
X923000Y-421500D01*
X918000Y-421500D01*
X918000Y-426500D01*
X955500Y-431500D02*
X960500Y-431500D01*
X960500Y-426500D01*
X955500Y-426500D01*
X955500Y-431500D01*
X534195Y-349555D02*
X539195Y-349555D01*
X539195Y-344555D01*
X534195Y-344555D01*
X534195Y-349555D01*
X623000Y-335000D02*
X628000Y-335000D01*
X628000Y-330000D01*
X623000Y-330000D01*
X623000Y-335000D01*
X771000Y-336500D02*
X776000Y-336500D01*
X776000Y-331500D01*
X771000Y-331500D01*
X771000Y-336500D01*
X658500Y-315000D02*
X663500Y-315000D01*
X663500Y-310000D01*
X658500Y-310000D01*
X658500Y-315000D01*
X936500Y-320000D02*
X941500Y-320000D01*
X941500Y-315000D01*
X936500Y-315000D01*
X936500Y-320000D01*
X758000Y-313000D02*
X763000Y-313000D01*
X763000Y-308000D01*
X758000Y-308000D01*
X758000Y-313000D01*
X908500Y-307000D02*
X913500Y-307000D01*
X913500Y-302000D01*
X908500Y-302000D01*
X908500Y-307000D01*
X524500Y-283500D02*
X529500Y-283500D01*
X529500Y-278500D01*
X524500Y-278500D01*
X524500Y-283500D01*
X502500Y-131000D02*
X507500Y-131000D01*
X507500Y-126000D01*
X502500Y-126000D01*
X502500Y-131000D01*
X634000Y-132000D02*
X639000Y-132000D01*
X639000Y-127000D01*
X634000Y-127000D01*
X634000Y-132000D01*
X534195Y-49555D02*
X539195Y-49555D01*
X539195Y-44555D01*
X534195Y-44555D01*
X534195Y-49555D01*
X623000Y-35000D02*
X628000Y-35000D01*
X628000Y-30000D01*
X623000Y-30000D01*
X623000Y-35000D01*
X757000Y-37500D02*
X762000Y-37500D01*
X762000Y-32500D01*
X757000Y-32500D01*
X757000Y-37500D01*
X771000Y-36500D02*
X776000Y-36500D01*
X776000Y-31500D01*
X771000Y-31500D01*
X771000Y-36500D01*
X795500Y-35000D02*
X800500Y-35000D01*
X800500Y-30000D01*
X795500Y-30000D01*
X795500Y-35000D01*
X930500Y-35500D02*
X935500Y-35500D01*
X935500Y-30500D01*
X930500Y-30500D01*
X930500Y-35500D01*
X658500Y-15000D02*
X663500Y-15000D01*
X663500Y-10000D01*
X658500Y-10000D01*
X658500Y-15000D01*
X784000Y-15000D02*
X789000Y-15000D01*
X789000Y-10000D01*
X784000Y-10000D01*
X784000Y-15000D01*
X852541Y-29500D02*
X857541Y-29500D01*
X857541Y-24500D01*
X852541Y-24500D01*
X852541Y-29500D01*
X963500Y-21000D02*
X968500Y-21000D01*
X968500Y-16000D01*
X963500Y-16000D01*
X963500Y-21000D01*
X747500Y-3000D02*
X752500Y-3000D01*
X752500Y2000D01*
X747500Y2000D01*
X747500Y-3000D01*
X769500Y-7500D02*
X774500Y-7500D01*
X774500Y-2500D01*
X769500Y-2500D01*
X769500Y-7500D01*
X904500Y-5000D02*
X909500Y-5000D01*
X909500Y0D01*
X904500Y0D01*
X904500Y-5000D01*
X913000Y26000D02*
X918000Y26000D01*
X918000Y31000D01*
X913000Y31000D01*
X913000Y26000D01*
X871000Y46500D02*
X876000Y46500D01*
X876000Y51500D01*
X871000Y51500D01*
X871000Y46500D01*
X946500Y82500D02*
X951500Y82500D01*
X951500Y87500D01*
X946500Y87500D01*
X946500Y82500D01*
X955500Y94000D02*
X960500Y94000D01*
X960500Y99000D01*
X955500Y99000D01*
X955500Y94000D01*
X979500Y103500D02*
X984500Y103500D01*
X984500Y108500D01*
X979500Y108500D01*
X979500Y103500D01*
X918500Y110000D02*
X923500Y110000D01*
X923500Y115000D01*
X918500Y115000D01*
X918500Y110000D01*
X939000Y141000D02*
X944000Y141000D01*
X944000Y146000D01*
X939000Y146000D01*
X939000Y141000D01*
X634000Y168000D02*
X639000Y168000D01*
X639000Y173000D01*
X634000Y173000D01*
X634000Y168000D01*
X757500Y169500D02*
X762500Y169500D01*
X762500Y174500D01*
X757500Y174500D01*
X757500Y169500D01*
X918000Y173500D02*
X923000Y173500D01*
X923000Y178500D01*
X918000Y178500D01*
X918000Y173500D01*
X955500Y168500D02*
X960500Y168500D01*
X960500Y173500D01*
X955500Y173500D01*
X955500Y168500D01*
X534195Y250445D02*
X539195Y250445D01*
X539195Y255445D01*
X534195Y255445D01*
X534195Y250445D01*
X623000Y265000D02*
X628000Y265000D01*
X628000Y270000D01*
X623000Y270000D01*
X623000Y265000D01*
X771000Y263500D02*
X776000Y263500D01*
X776000Y268500D01*
X771000Y268500D01*
X771000Y263500D01*
X784000Y263500D02*
X789000Y263500D01*
X789000Y268500D01*
X784000Y268500D01*
X784000Y263500D01*
X797000Y264000D02*
X802000Y264000D01*
X802000Y269000D01*
X797000Y269000D01*
X797000Y264000D01*
X658500Y285000D02*
X663500Y285000D01*
X663500Y290000D01*
X658500Y290000D01*
X658500Y285000D01*
X936500Y280000D02*
X941500Y280000D01*
X941500Y285000D01*
X936500Y285000D01*
X936500Y280000D01*
X927000Y270000D02*
X932000Y270000D01*
X932000Y275000D01*
X927000Y275000D01*
X927000Y270000D01*
X955500Y267000D02*
X960500Y267000D01*
X960500Y272000D01*
X955500Y272000D01*
X955500Y267000D01*
X758000Y287000D02*
X763000Y287000D01*
X763000Y292000D01*
X758000Y292000D01*
X758000Y287000D01*
X908500Y293000D02*
X913500Y293000D01*
X913500Y298000D01*
X908500Y298000D01*
X908500Y293000D01*
X524500Y316500D02*
X529500Y316500D01*
X529500Y321500D01*
X524500Y321500D01*
X524500Y316500D01*
X883000Y346000D02*
X888000Y346000D01*
X888000Y351000D01*
X883000Y351000D01*
X883000Y346000D01*
X893000Y360500D02*
X898000Y360500D01*
X898000Y365500D01*
X893000Y365500D01*
X893000Y360500D01*
X809500Y463000D02*
X814500Y463000D01*
X814500Y468000D01*
X809500Y468000D01*
X809500Y463000D01*
X634000Y468000D02*
X639000Y468000D01*
X639000Y473000D01*
X634000Y473000D01*
X634000Y468000D01*
X918000Y472500D02*
X923000Y472500D01*
X923000Y477500D01*
X918000Y477500D01*
X918000Y472500D01*
X955500Y469500D02*
X960500Y469500D01*
X960500Y474500D01*
X955500Y474500D01*
X955500Y469500D01*
X534195Y550445D02*
X539195Y550445D01*
X539195Y555445D01*
X534195Y555445D01*
X534195Y550445D01*
X623000Y565000D02*
X628000Y565000D01*
X628000Y570000D01*
X623000Y570000D01*
X623000Y565000D01*
X757000Y562500D02*
X762000Y562500D01*
X762000Y567500D01*
X757000Y567500D01*
X757000Y562500D01*
X771000Y563500D02*
X776000Y563500D01*
X776000Y568500D01*
X771000Y568500D01*
X771000Y563500D01*
X795500Y565000D02*
X800500Y565000D01*
X800500Y570000D01*
X795500Y570000D01*
X795500Y565000D01*
X918000Y560500D02*
X923000Y560500D01*
X923000Y565500D01*
X918000Y565500D01*
X918000Y560500D01*
X930500Y564500D02*
X935500Y564500D01*
X935500Y569500D01*
X930500Y569500D01*
X930500Y564500D01*
X956000Y560500D02*
X961000Y560500D01*
X961000Y565500D01*
X956000Y565500D01*
X956000Y560500D01*
X658500Y585000D02*
X663500Y585000D01*
X663500Y590000D01*
X658500Y590000D01*
X658500Y585000D01*
X942500Y570500D02*
X947500Y570500D01*
X947500Y575500D01*
X942500Y575500D01*
X942500Y570500D01*
X765000Y586500D02*
X770000Y586500D01*
X770000Y591500D01*
X765000Y591500D01*
X765000Y586500D01*
X880000Y623500D02*
X885000Y623500D01*
X885000Y628500D01*
X880000Y628500D01*
X880000Y623500D01*
X1674000Y-432000D02*
X1679000Y-432000D01*
X1679000Y-427000D01*
X1674000Y-427000D01*
X1674000Y-432000D01*
X1797500Y-430500D02*
X1802500Y-430500D01*
X1802500Y-425500D01*
X1797500Y-425500D01*
X1797500Y-430500D01*
X1958000Y-426500D02*
X1963000Y-426500D01*
X1963000Y-421500D01*
X1958000Y-421500D01*
X1958000Y-426500D01*
X1995500Y-431500D02*
X2000500Y-431500D01*
X2000500Y-426500D01*
X1995500Y-426500D01*
X1995500Y-431500D01*
X1574195Y-349555D02*
X1579195Y-349555D01*
X1579195Y-344555D01*
X1574195Y-344555D01*
X1574195Y-349555D01*
X1663000Y-335000D02*
X1668000Y-335000D01*
X1668000Y-330000D01*
X1663000Y-330000D01*
X1663000Y-335000D01*
X1811000Y-336500D02*
X1816000Y-336500D01*
X1816000Y-331500D01*
X1811000Y-331500D01*
X1811000Y-336500D01*
X1826000Y-336000D02*
X1831000Y-336000D01*
X1831000Y-331000D01*
X1826000Y-331000D01*
X1826000Y-336000D01*
X1698500Y-315000D02*
X1703500Y-315000D01*
X1703500Y-310000D01*
X1698500Y-310000D01*
X1698500Y-315000D01*
X1995500Y-333000D02*
X2000500Y-333000D01*
X2000500Y-328000D01*
X1995500Y-328000D01*
X1995500Y-333000D01*
X1798000Y-313000D02*
X1803000Y-313000D01*
X1803000Y-308000D01*
X1798000Y-308000D01*
X1798000Y-313000D01*
X1948500Y-307000D02*
X1953500Y-307000D01*
X1953500Y-302000D01*
X1948500Y-302000D01*
X1948500Y-307000D01*
X1564500Y-283500D02*
X1569500Y-283500D01*
X1569500Y-278500D01*
X1564500Y-278500D01*
X1564500Y-283500D01*
X1542500Y-131000D02*
X1547500Y-131000D01*
X1547500Y-126000D01*
X1542500Y-126000D01*
X1542500Y-131000D01*
X1674000Y-132000D02*
X1679000Y-132000D01*
X1679000Y-127000D01*
X1674000Y-127000D01*
X1674000Y-132000D01*
X1574195Y-49555D02*
X1579195Y-49555D01*
X1579195Y-44555D01*
X1574195Y-44555D01*
X1574195Y-49555D01*
X1663000Y-35000D02*
X1668000Y-35000D01*
X1668000Y-30000D01*
X1663000Y-30000D01*
X1663000Y-35000D01*
X1797000Y-37500D02*
X1802000Y-37500D01*
X1802000Y-32500D01*
X1797000Y-32500D01*
X1797000Y-37500D01*
X1811000Y-36500D02*
X1816000Y-36500D01*
X1816000Y-31500D01*
X1811000Y-31500D01*
X1811000Y-36500D01*
X1835500Y-35000D02*
X1840500Y-35000D01*
X1840500Y-30000D01*
X1835500Y-30000D01*
X1835500Y-35000D01*
X1970500Y-35500D02*
X1975500Y-35500D01*
X1975500Y-30500D01*
X1970500Y-30500D01*
X1970500Y-35500D01*
X1698500Y-15000D02*
X1703500Y-15000D01*
X1703500Y-10000D01*
X1698500Y-10000D01*
X1698500Y-15000D01*
X1824000Y-15000D02*
X1829000Y-15000D01*
X1829000Y-10000D01*
X1824000Y-10000D01*
X1824000Y-15000D01*
X1892541Y-29500D02*
X1897541Y-29500D01*
X1897541Y-24500D01*
X1892541Y-24500D01*
X1892541Y-29500D01*
X2003500Y-21000D02*
X2008500Y-21000D01*
X2008500Y-16000D01*
X2003500Y-16000D01*
X2003500Y-21000D01*
X1787500Y-3000D02*
X1792500Y-3000D01*
X1792500Y2000D01*
X1787500Y2000D01*
X1787500Y-3000D01*
X1809500Y-7500D02*
X1814500Y-7500D01*
X1814500Y-2500D01*
X1809500Y-2500D01*
X1809500Y-7500D01*
X1944500Y-5000D02*
X1949500Y-5000D01*
X1949500Y0D01*
X1944500Y0D01*
X1944500Y-5000D01*
X1911000Y46500D02*
X1916000Y46500D01*
X1916000Y51500D01*
X1911000Y51500D01*
X1911000Y46500D01*
X1986500Y82500D02*
X1991500Y82500D01*
X1991500Y87500D01*
X1986500Y87500D01*
X1986500Y82500D01*
X1995500Y94000D02*
X2000500Y94000D01*
X2000500Y99000D01*
X1995500Y99000D01*
X1995500Y94000D01*
X2019500Y103500D02*
X2024500Y103500D01*
X2024500Y108500D01*
X2019500Y108500D01*
X2019500Y103500D01*
X1958500Y110000D02*
X1963500Y110000D01*
X1963500Y115000D01*
X1958500Y115000D01*
X1958500Y110000D01*
X1979000Y141000D02*
X1984000Y141000D01*
X1984000Y146000D01*
X1979000Y146000D01*
X1979000Y141000D01*
X1674000Y168000D02*
X1679000Y168000D01*
X1679000Y173000D01*
X1674000Y173000D01*
X1674000Y168000D01*
X1797500Y169500D02*
X1802500Y169500D01*
X1802500Y174500D01*
X1797500Y174500D01*
X1797500Y169500D01*
X1958000Y173500D02*
X1963000Y173500D01*
X1963000Y178500D01*
X1958000Y178500D01*
X1958000Y173500D01*
X1995500Y168500D02*
X2000500Y168500D01*
X2000500Y173500D01*
X1995500Y173500D01*
X1995500Y168500D01*
X1574195Y250445D02*
X1579195Y250445D01*
X1579195Y255445D01*
X1574195Y255445D01*
X1574195Y250445D01*
X1663000Y265000D02*
X1668000Y265000D01*
X1668000Y270000D01*
X1663000Y270000D01*
X1663000Y265000D01*
X1811000Y263500D02*
X1816000Y263500D01*
X1816000Y268500D01*
X1811000Y268500D01*
X1811000Y263500D01*
X1824000Y263500D02*
X1829000Y263500D01*
X1829000Y268500D01*
X1824000Y268500D01*
X1824000Y263500D01*
X1837000Y264000D02*
X1842000Y264000D01*
X1842000Y269000D01*
X1837000Y269000D01*
X1837000Y264000D01*
X1698500Y285000D02*
X1703500Y285000D01*
X1703500Y290000D01*
X1698500Y290000D01*
X1698500Y285000D01*
X1976500Y280000D02*
X1981500Y280000D01*
X1981500Y285000D01*
X1976500Y285000D01*
X1976500Y280000D01*
X1967000Y270000D02*
X1972000Y270000D01*
X1972000Y275000D01*
X1967000Y275000D01*
X1967000Y270000D01*
X1995500Y267000D02*
X2000500Y267000D01*
X2000500Y272000D01*
X1995500Y272000D01*
X1995500Y267000D01*
X1798000Y287000D02*
X1803000Y287000D01*
X1803000Y292000D01*
X1798000Y292000D01*
X1798000Y287000D01*
X1948500Y293000D02*
X1953500Y293000D01*
X1953500Y298000D01*
X1948500Y298000D01*
X1948500Y293000D01*
X1564500Y316500D02*
X1569500Y316500D01*
X1569500Y321500D01*
X1564500Y321500D01*
X1564500Y316500D01*
X1923000Y346000D02*
X1928000Y346000D01*
X1928000Y351000D01*
X1923000Y351000D01*
X1923000Y346000D01*
X1933000Y360500D02*
X1938000Y360500D01*
X1938000Y365500D01*
X1933000Y365500D01*
X1933000Y360500D01*
X1849500Y463000D02*
X1854500Y463000D01*
X1854500Y468000D01*
X1849500Y468000D01*
X1849500Y463000D01*
X1674000Y468000D02*
X1679000Y468000D01*
X1679000Y473000D01*
X1674000Y473000D01*
X1674000Y468000D01*
X1958000Y472500D02*
X1963000Y472500D01*
X1963000Y477500D01*
X1958000Y477500D01*
X1958000Y472500D01*
X1995500Y469500D02*
X2000500Y469500D01*
X2000500Y474500D01*
X1995500Y474500D01*
X1995500Y469500D01*
X1574195Y550445D02*
X1579195Y550445D01*
X1579195Y555445D01*
X1574195Y555445D01*
X1574195Y550445D01*
X1663000Y565000D02*
X1668000Y565000D01*
X1668000Y570000D01*
X1663000Y570000D01*
X1663000Y565000D01*
X1797000Y562500D02*
X1802000Y562500D01*
X1802000Y567500D01*
X1797000Y567500D01*
X1797000Y562500D01*
X1811000Y563500D02*
X1816000Y563500D01*
X1816000Y568500D01*
X1811000Y568500D01*
X1811000Y563500D01*
X1835500Y565000D02*
X1840500Y565000D01*
X1840500Y570000D01*
X1835500Y570000D01*
X1835500Y565000D01*
X1958000Y560500D02*
X1963000Y560500D01*
X1963000Y565500D01*
X1958000Y565500D01*
X1958000Y560500D01*
X1970500Y564500D02*
X1975500Y564500D01*
X1975500Y569500D01*
X1970500Y569500D01*
X1970500Y564500D01*
X1996000Y560500D02*
X2001000Y560500D01*
X2001000Y565500D01*
X1996000Y565500D01*
X1996000Y560500D01*
X1698500Y585000D02*
X1703500Y585000D01*
X1703500Y590000D01*
X1698500Y590000D01*
X1698500Y585000D01*
X1982500Y570500D02*
X1987500Y570500D01*
X1987500Y575500D01*
X1982500Y575500D01*
X1982500Y570500D01*
X1805000Y586500D02*
X1810000Y586500D01*
X1810000Y591500D01*
X1805000Y591500D01*
X1805000Y586500D01*
X1920000Y623500D02*
X1925000Y623500D01*
X1925000Y628500D01*
X1920000Y628500D01*
X1920000Y623500D01*
X1154000Y-432000D02*
X1159000Y-432000D01*
X1159000Y-427000D01*
X1154000Y-427000D01*
X1154000Y-432000D01*
X1277500Y-430500D02*
X1282500Y-430500D01*
X1282500Y-425500D01*
X1277500Y-425500D01*
X1277500Y-430500D01*
X1475500Y-431500D02*
X1480500Y-431500D01*
X1480500Y-426500D01*
X1475500Y-426500D01*
X1475500Y-431500D01*
X1054195Y-349555D02*
X1059195Y-349555D01*
X1059195Y-344555D01*
X1054195Y-344555D01*
X1054195Y-349555D01*
X1143000Y-335000D02*
X1148000Y-335000D01*
X1148000Y-330000D01*
X1143000Y-330000D01*
X1143000Y-335000D01*
X1291000Y-336500D02*
X1296000Y-336500D01*
X1296000Y-331500D01*
X1291000Y-331500D01*
X1291000Y-336500D01*
X1306000Y-336000D02*
X1311000Y-336000D01*
X1311000Y-331000D01*
X1306000Y-331000D01*
X1306000Y-336000D01*
X1178500Y-315000D02*
X1183500Y-315000D01*
X1183500Y-310000D01*
X1178500Y-310000D01*
X1178500Y-315000D01*
X1456500Y-320000D02*
X1461500Y-320000D01*
X1461500Y-315000D01*
X1456500Y-315000D01*
X1456500Y-320000D01*
X1475500Y-333000D02*
X1480500Y-333000D01*
X1480500Y-328000D01*
X1475500Y-328000D01*
X1475500Y-333000D01*
X1278000Y-313000D02*
X1283000Y-313000D01*
X1283000Y-308000D01*
X1278000Y-308000D01*
X1278000Y-313000D01*
X1428500Y-307000D02*
X1433500Y-307000D01*
X1433500Y-302000D01*
X1428500Y-302000D01*
X1428500Y-307000D01*
X1044500Y-283500D02*
X1049500Y-283500D01*
X1049500Y-278500D01*
X1044500Y-278500D01*
X1044500Y-283500D01*
X1022500Y-131000D02*
X1027500Y-131000D01*
X1027500Y-126000D01*
X1022500Y-126000D01*
X1022500Y-131000D01*
X1154000Y-132000D02*
X1159000Y-132000D01*
X1159000Y-127000D01*
X1154000Y-127000D01*
X1154000Y-132000D01*
X1054195Y-49555D02*
X1059195Y-49555D01*
X1059195Y-44555D01*
X1054195Y-44555D01*
X1054195Y-49555D01*
X1143000Y-35000D02*
X1148000Y-35000D01*
X1148000Y-30000D01*
X1143000Y-30000D01*
X1143000Y-35000D01*
X1277000Y-37500D02*
X1282000Y-37500D01*
X1282000Y-32500D01*
X1277000Y-32500D01*
X1277000Y-37500D01*
X1291000Y-36500D02*
X1296000Y-36500D01*
X1296000Y-31500D01*
X1291000Y-31500D01*
X1291000Y-36500D01*
X1315500Y-35000D02*
X1320500Y-35000D01*
X1320500Y-30000D01*
X1315500Y-30000D01*
X1315500Y-35000D01*
X1450500Y-35500D02*
X1455500Y-35500D01*
X1455500Y-30500D01*
X1450500Y-30500D01*
X1450500Y-35500D01*
X1178500Y-15000D02*
X1183500Y-15000D01*
X1183500Y-10000D01*
X1178500Y-10000D01*
X1178500Y-15000D01*
X1304000Y-15000D02*
X1309000Y-15000D01*
X1309000Y-10000D01*
X1304000Y-10000D01*
X1304000Y-15000D01*
X1372541Y-29500D02*
X1377541Y-29500D01*
X1377541Y-24500D01*
X1372541Y-24500D01*
X1372541Y-29500D01*
X1483500Y-21000D02*
X1488500Y-21000D01*
X1488500Y-16000D01*
X1483500Y-16000D01*
X1483500Y-21000D01*
X1267500Y-3000D02*
X1272500Y-3000D01*
X1272500Y2000D01*
X1267500Y2000D01*
X1267500Y-3000D01*
X1289500Y-7500D02*
X1294500Y-7500D01*
X1294500Y-2500D01*
X1289500Y-2500D01*
X1289500Y-7500D01*
X1424500Y-5000D02*
X1429500Y-5000D01*
X1429500Y0D01*
X1424500Y0D01*
X1424500Y-5000D01*
X1433000Y26000D02*
X1438000Y26000D01*
X1438000Y31000D01*
X1433000Y31000D01*
X1433000Y26000D01*
X1391000Y46500D02*
X1396000Y46500D01*
X1396000Y51500D01*
X1391000Y51500D01*
X1391000Y46500D01*
X1466500Y82500D02*
X1471500Y82500D01*
X1471500Y87500D01*
X1466500Y87500D01*
X1466500Y82500D01*
X1475500Y94000D02*
X1480500Y94000D01*
X1480500Y99000D01*
X1475500Y99000D01*
X1475500Y94000D01*
X1499500Y103500D02*
X1504500Y103500D01*
X1504500Y108500D01*
X1499500Y108500D01*
X1499500Y103500D01*
X1438500Y110000D02*
X1443500Y110000D01*
X1443500Y115000D01*
X1438500Y115000D01*
X1438500Y110000D01*
X1459000Y141000D02*
X1464000Y141000D01*
X1464000Y146000D01*
X1459000Y146000D01*
X1459000Y141000D01*
X1154000Y168000D02*
X1159000Y168000D01*
X1159000Y173000D01*
X1154000Y173000D01*
X1154000Y168000D01*
X1277500Y169500D02*
X1282500Y169500D01*
X1282500Y174500D01*
X1277500Y174500D01*
X1277500Y169500D01*
X1438000Y173500D02*
X1443000Y173500D01*
X1443000Y178500D01*
X1438000Y178500D01*
X1438000Y173500D01*
X1475500Y168500D02*
X1480500Y168500D01*
X1480500Y173500D01*
X1475500Y173500D01*
X1475500Y168500D01*
X1054195Y250445D02*
X1059195Y250445D01*
X1059195Y255445D01*
X1054195Y255445D01*
X1054195Y250445D01*
X1143000Y265000D02*
X1148000Y265000D01*
X1148000Y270000D01*
X1143000Y270000D01*
X1143000Y265000D01*
X1291000Y263500D02*
X1296000Y263500D01*
X1296000Y268500D01*
X1291000Y268500D01*
X1291000Y263500D01*
X1304000Y263500D02*
X1309000Y263500D01*
X1309000Y268500D01*
X1304000Y268500D01*
X1304000Y263500D01*
X1317000Y264000D02*
X1322000Y264000D01*
X1322000Y269000D01*
X1317000Y269000D01*
X1317000Y264000D01*
X1178500Y285000D02*
X1183500Y285000D01*
X1183500Y290000D01*
X1178500Y290000D01*
X1178500Y285000D01*
X1456500Y280000D02*
X1461500Y280000D01*
X1461500Y285000D01*
X1456500Y285000D01*
X1456500Y280000D01*
X1447000Y270000D02*
X1452000Y270000D01*
X1452000Y275000D01*
X1447000Y275000D01*
X1447000Y270000D01*
X1475500Y267000D02*
X1480500Y267000D01*
X1480500Y272000D01*
X1475500Y272000D01*
X1475500Y267000D01*
X1278000Y287000D02*
X1283000Y287000D01*
X1283000Y292000D01*
X1278000Y292000D01*
X1278000Y287000D01*
X1428500Y293000D02*
X1433500Y293000D01*
X1433500Y298000D01*
X1428500Y298000D01*
X1428500Y293000D01*
X1044500Y316500D02*
X1049500Y316500D01*
X1049500Y321500D01*
X1044500Y321500D01*
X1044500Y316500D01*
X1403000Y346000D02*
X1408000Y346000D01*
X1408000Y351000D01*
X1403000Y351000D01*
X1403000Y346000D01*
X1413000Y360500D02*
X1418000Y360500D01*
X1418000Y365500D01*
X1413000Y365500D01*
X1413000Y360500D01*
X1329500Y463000D02*
X1334500Y463000D01*
X1334500Y468000D01*
X1329500Y468000D01*
X1329500Y463000D01*
X1154000Y468000D02*
X1159000Y468000D01*
X1159000Y473000D01*
X1154000Y473000D01*
X1154000Y468000D01*
X1438000Y472500D02*
X1443000Y472500D01*
X1443000Y477500D01*
X1438000Y477500D01*
X1438000Y472500D01*
X1475500Y469500D02*
X1480500Y469500D01*
X1480500Y474500D01*
X1475500Y474500D01*
X1475500Y469500D01*
X1054195Y550445D02*
X1059195Y550445D01*
X1059195Y555445D01*
X1054195Y555445D01*
X1054195Y550445D01*
X1143000Y565000D02*
X1148000Y565000D01*
X1148000Y570000D01*
X1143000Y570000D01*
X1143000Y565000D01*
X1277000Y562500D02*
X1282000Y562500D01*
X1282000Y567500D01*
X1277000Y567500D01*
X1277000Y562500D01*
X1291000Y563500D02*
X1296000Y563500D01*
X1296000Y568500D01*
X1291000Y568500D01*
X1291000Y563500D01*
X1315500Y565000D02*
X1320500Y565000D01*
X1320500Y570000D01*
X1315500Y570000D01*
X1315500Y565000D01*
X1438000Y560500D02*
X1443000Y560500D01*
X1443000Y565500D01*
X1438000Y565500D01*
X1438000Y560500D01*
X1450500Y564500D02*
X1455500Y564500D01*
X1455500Y569500D01*
X1450500Y569500D01*
X1450500Y564500D01*
X1476000Y560500D02*
X1481000Y560500D01*
X1481000Y565500D01*
X1476000Y565500D01*
X1476000Y560500D01*
X1178500Y585000D02*
X1183500Y585000D01*
X1183500Y590000D01*
X1178500Y590000D01*
X1178500Y585000D01*
X1462500Y570500D02*
X1467500Y570500D01*
X1467500Y575500D01*
X1462500Y575500D01*
X1462500Y570500D01*
X1285000Y586500D02*
X1290000Y586500D01*
X1290000Y591500D01*
X1285000Y591500D01*
X1285000Y586500D01*
X1400000Y623500D02*
X1405000Y623500D01*
X1405000Y628500D01*
X1400000Y628500D01*
X1400000Y623500D01*
X1672500Y-484500D02*
X1677500Y-484500D01*
X1677500Y-479500D01*
X1672500Y-479500D01*
X1672500Y-484500D01*
X1152000Y-484500D02*
X1157000Y-484500D01*
X1157000Y-479500D01*
X1152000Y-479500D01*
X1152000Y-484500D01*
X657000Y-496500D02*
X662000Y-496500D01*
X662000Y-491500D01*
X657000Y-491500D01*
X657000Y-496500D01*
X350000Y-495500D02*
X355000Y-495500D01*
X355000Y-490500D01*
X350000Y-490500D01*
X350000Y-495500D01*
X628500Y-508000D02*
X633500Y-508000D01*
X633500Y-503000D01*
X628500Y-503000D01*
X628500Y-508000D01*
X971000Y-507000D02*
X976000Y-507000D01*
X976000Y-502000D01*
X971000Y-502000D01*
X971000Y-507000D01*
X264000Y-333500D02*
X269000Y-333500D01*
X269000Y-328500D01*
X264000Y-328500D01*
X264000Y-333500D01*
X406000Y-449500D02*
X411000Y-449500D01*
X411000Y-444500D01*
X406000Y-444500D01*
X406000Y-449500D01*
X461000Y-449500D02*
X466000Y-449500D01*
X466000Y-444500D01*
X461000Y-444500D01*
X461000Y-449500D01*
X435500Y-429500D02*
X440500Y-429500D01*
X440500Y-424500D01*
X435500Y-424500D01*
X435500Y-429500D01*
X787500Y-516000D02*
X792500Y-516000D01*
X792500Y-511000D01*
X787500Y-511000D01*
X787500Y-516000D01*
X757500Y-430500D02*
X762500Y-430500D01*
X762500Y-425500D01*
X757500Y-425500D01*
X757500Y-430500D01*
X853500Y-593000D02*
X858500Y-593000D01*
X858500Y-588000D01*
X853500Y-588000D01*
X853500Y-593000D01*
X803500Y-522500D02*
X808500Y-522500D01*
X808500Y-517500D01*
X803500Y-517500D01*
X803500Y-522500D01*
X878000Y-583500D02*
X883000Y-583500D01*
X883000Y-578500D01*
X878000Y-578500D01*
X878000Y-583500D01*
X826000Y-522000D02*
X831000Y-522000D01*
X831000Y-517000D01*
X826000Y-517000D01*
X826000Y-522000D01*
X14195Y-349555D02*
X19195Y-349555D01*
X19195Y-344555D01*
X14195Y-344555D01*
X14195Y-349555D01*
X251000Y-336500D02*
X256000Y-336500D01*
X256000Y-331500D01*
X251000Y-331500D01*
X251000Y-336500D01*
X14195Y-49555D02*
X19195Y-49555D01*
X19195Y-44555D01*
X14195Y-44555D01*
X14195Y-49555D01*
X251000Y-36500D02*
X256000Y-36500D01*
X256000Y-31500D01*
X251000Y-31500D01*
X251000Y-36500D01*
X410500Y-35500D02*
X415500Y-35500D01*
X415500Y-30500D01*
X410500Y-30500D01*
X410500Y-35500D01*
X14195Y250445D02*
X19195Y250445D01*
X19195Y255445D01*
X14195Y255445D01*
X14195Y250445D01*
X251000Y263500D02*
X256000Y263500D01*
X256000Y268500D01*
X251000Y268500D01*
X251000Y263500D01*
X407000Y270000D02*
X412000Y270000D01*
X412000Y275000D01*
X407000Y275000D01*
X407000Y270000D01*
X363000Y346000D02*
X368000Y346000D01*
X368000Y351000D01*
X363000Y351000D01*
X363000Y346000D01*
X14195Y550445D02*
X19195Y550445D01*
X19195Y555445D01*
X14195Y555445D01*
X14195Y550445D01*
X251000Y563500D02*
X256000Y563500D01*
X256000Y568500D01*
X251000Y568500D01*
X251000Y563500D01*
X410500Y564500D02*
X415500Y564500D01*
X415500Y569500D01*
X410500Y569500D01*
X410500Y564500D01*
X360000Y623500D02*
X365000Y623500D01*
X365000Y628500D01*
X360000Y628500D01*
X360000Y623500D01*
X400500Y-317500D02*
X405500Y-317500D01*
X405500Y-312500D01*
X400500Y-312500D01*
X400500Y-317500D01*
X786000Y-336000D02*
X791000Y-336000D01*
X791000Y-331000D01*
X786000Y-331000D01*
X786000Y-336000D01*
X895500Y-573500D02*
X900500Y-573500D01*
X900500Y-568500D01*
X895500Y-568500D01*
X895500Y-573500D01*
X843000Y-522000D02*
X848000Y-522000D01*
X848000Y-517000D01*
X843000Y-517000D01*
X843000Y-522000D01*
X921500Y-322500D02*
X926500Y-322500D01*
X926500Y-317500D01*
X921500Y-317500D01*
X921500Y-322500D01*
X915500Y-556000D02*
X920500Y-556000D01*
X920500Y-551000D01*
X915500Y-551000D01*
X915500Y-556000D01*
X904000Y-522000D02*
X909000Y-522000D01*
X909000Y-517000D01*
X904000Y-517000D01*
X904000Y-522000D01*
X942000Y-565500D02*
X947000Y-565500D01*
X947000Y-560500D01*
X942000Y-560500D01*
X942000Y-565500D01*
X918500Y-518000D02*
X923500Y-518000D01*
X923500Y-513000D01*
X918500Y-513000D01*
X918500Y-518000D01*
X950500Y-546000D02*
X955500Y-546000D01*
X955500Y-541000D01*
X950500Y-541000D01*
X950500Y-546000D01*
X938000Y-520000D02*
X943000Y-520000D01*
X943000Y-515000D01*
X938000Y-515000D01*
X938000Y-520000D01*
X829500Y-604000D02*
X834500Y-604000D01*
X834500Y-599000D01*
X829500Y-599000D01*
X829500Y-604000D01*
X1964000Y-323000D02*
X1969000Y-323000D01*
X1969000Y-318000D01*
X1964000Y-318000D01*
X1964000Y-323000D01*
X1748500Y-525500D02*
X1753500Y-525500D01*
X1753500Y-520500D01*
X1748500Y-520500D01*
X1748500Y-525500D01*
X1474500Y-546000D02*
X1479500Y-546000D01*
X1479500Y-541000D01*
X1474500Y-541000D01*
X1474500Y-546000D01*
X1454000Y-516000D02*
X1459000Y-516000D01*
X1459000Y-511000D01*
X1454000Y-511000D01*
X1454000Y-516000D01*
X1413000Y-520500D02*
X1418000Y-520500D01*
X1418000Y-515500D01*
X1413000Y-515500D01*
X1413000Y-520500D01*
X1396000Y-556000D02*
X1401000Y-556000D01*
X1401000Y-551000D01*
X1396000Y-551000D01*
X1396000Y-556000D01*
X1381500Y-522000D02*
X1386500Y-522000D01*
X1386500Y-517000D01*
X1381500Y-517000D01*
X1381500Y-522000D01*
X1293000Y-573500D02*
X1298000Y-573500D01*
X1298000Y-568500D01*
X1293000Y-568500D01*
X1293000Y-573500D01*
X1282500Y-526000D02*
X1287500Y-526000D01*
X1287500Y-521000D01*
X1282500Y-521000D01*
X1282500Y-526000D01*
X1221500Y-583000D02*
X1226500Y-583000D01*
X1226500Y-578000D01*
X1221500Y-578000D01*
X1221500Y-583000D01*
X1259000Y-524500D02*
X1264000Y-524500D01*
X1264000Y-519500D01*
X1259000Y-519500D01*
X1259000Y-524500D01*
X1172000Y-517000D02*
X1177000Y-517000D01*
X1177000Y-512000D01*
X1172000Y-512000D01*
X1172000Y-517000D01*
X1057500Y-591000D02*
X1062500Y-591000D01*
X1062500Y-586000D01*
X1057500Y-586000D01*
X1057500Y-591000D01*
X425000Y847000D02*
X430000Y847000D01*
X430000Y852000D01*
X425000Y852000D01*
X425000Y847000D01*
X1179500Y706000D02*
X1184500Y706000D01*
X1184500Y711000D01*
X1179500Y711000D01*
X1179500Y706000D01*
X1457000Y742000D02*
X1462000Y742000D01*
X1462000Y747000D01*
X1457000Y747000D01*
X1457000Y742000D01*
X1328000Y773000D02*
X1333000Y773000D01*
X1333000Y778000D01*
X1328000Y778000D01*
X1328000Y773000D01*
X1506500Y726000D02*
X1511500Y726000D01*
X1511500Y731000D01*
X1506500Y731000D01*
X1506500Y726000D01*
X1714500Y724500D02*
X1719500Y724500D01*
X1719500Y729500D01*
X1714500Y729500D01*
X1714500Y724500D01*
X599500Y920500D02*
X604500Y920500D01*
X604500Y925500D01*
X599500Y925500D01*
X599500Y920500D01*
X2025500Y-330000D02*
X2030500Y-330000D01*
X2030500Y-325000D01*
X2025500Y-325000D01*
X2025500Y-330000D01*
X1861500Y-421000D02*
X1866500Y-421000D01*
X1866500Y-416000D01*
X1861500Y-416000D01*
X1861500Y-421000D01*
X2027000Y-23500D02*
X2032000Y-23500D01*
X2032000Y-18500D01*
X2027000Y-18500D01*
X2027000Y-23500D01*
X730500Y892000D02*
X735500Y892000D01*
X735500Y897000D01*
X730500Y897000D01*
X730500Y892000D01*
X2019000Y274500D02*
X2024000Y274500D01*
X2024000Y279500D01*
X2019000Y279500D01*
X2019000Y274500D01*
X785500Y833000D02*
X790500Y833000D01*
X790500Y838000D01*
X785500Y838000D01*
X785500Y833000D01*
X2022000Y567000D02*
X2027000Y567000D01*
X2027000Y572000D01*
X2022000Y572000D01*
X2022000Y567000D01*
X1710000Y-421000D02*
X1715000Y-421000D01*
X1715000Y-416000D01*
X1710000Y-416000D01*
X1710000Y-421000D01*
X1189500Y-421500D02*
X1194500Y-421500D01*
X1194500Y-416500D01*
X1189500Y-416500D01*
X1189500Y-421500D01*
X1341500Y-420500D02*
X1346500Y-420500D01*
X1346500Y-415500D01*
X1341500Y-415500D01*
X1341500Y-420500D01*
X1341500Y-120500D02*
X1346500Y-120500D01*
X1346500Y-115500D01*
X1341500Y-115500D01*
X1341500Y-120500D01*
X1341500Y179500D02*
X1346500Y179500D01*
X1346500Y184500D01*
X1341500Y184500D01*
X1341500Y179500D01*
X821000Y478500D02*
X826000Y478500D01*
X826000Y483500D01*
X821000Y483500D01*
X821000Y478500D01*
X821500Y179500D02*
X826500Y179500D01*
X826500Y184500D01*
X821500Y184500D01*
X821500Y179500D01*
X821500Y-120000D02*
X826500Y-120000D01*
X826500Y-115000D01*
X821500Y-115000D01*
X821500Y-120000D01*
X821500Y-420000D02*
X826500Y-420000D01*
X826500Y-415000D01*
X821500Y-415000D01*
X821500Y-420000D01*
X301500Y478500D02*
X306500Y478500D01*
X306500Y483500D01*
X301500Y483500D01*
X301500Y478500D01*
X301000Y180000D02*
X306000Y180000D01*
X306000Y185000D01*
X301000Y185000D01*
X301000Y180000D01*
X301000Y-121000D02*
X306000Y-121000D01*
X306000Y-116000D01*
X301000Y-116000D01*
X301000Y-121000D01*
X301500Y-420500D02*
X306500Y-420500D01*
X306500Y-415500D01*
X301500Y-415500D01*
X301500Y-420500D01*
X1710500Y-108000D02*
X1715500Y-108000D01*
X1715500Y-103000D01*
X1710500Y-103000D01*
X1710500Y-108000D01*
X1773000Y-122000D02*
X1778000Y-122000D01*
X1778000Y-117000D01*
X1773000Y-117000D01*
X1773000Y-122000D01*
X1774000Y177000D02*
X1779000Y177000D01*
X1779000Y182000D01*
X1774000Y182000D01*
X1774000Y177000D01*
X1713000Y191000D02*
X1718000Y191000D01*
X1718000Y196000D01*
X1713000Y196000D01*
X1713000Y191000D01*
X1774000Y477000D02*
X1779000Y477000D01*
X1779000Y482000D01*
X1774000Y482000D01*
X1774000Y477000D01*
X1711500Y491000D02*
X1716500Y491000D01*
X1716500Y496000D01*
X1711500Y496000D01*
X1711500Y491000D01*
X1253000Y-122000D02*
X1258000Y-122000D01*
X1258000Y-117000D01*
X1253000Y-117000D01*
X1253000Y-122000D01*
X1193000Y-108000D02*
X1198000Y-108000D01*
X1198000Y-103000D01*
X1193000Y-103000D01*
X1193000Y-108000D01*
X1252500Y176500D02*
X1257500Y176500D01*
X1257500Y181500D01*
X1252500Y181500D01*
X1252500Y176500D01*
X1193500Y190500D02*
X1198500Y190500D01*
X1198500Y195500D01*
X1193500Y195500D01*
X1193500Y190500D01*
X1252500Y476000D02*
X1257500Y476000D01*
X1257500Y481000D01*
X1252500Y481000D01*
X1252500Y476000D01*
X1190000Y490000D02*
X1195000Y490000D01*
X1195000Y495000D01*
X1190000Y495000D01*
X1190000Y490000D01*
X732500Y479000D02*
X737500Y479000D01*
X737500Y484000D01*
X732500Y484000D01*
X732500Y479000D01*
X670000Y493000D02*
X675000Y493000D01*
X675000Y498000D01*
X670000Y498000D01*
X670000Y493000D01*
X733500Y178000D02*
X738500Y178000D01*
X738500Y183000D01*
X733500Y183000D01*
X733500Y178000D01*
X673000Y192000D02*
X678000Y192000D01*
X678000Y197000D01*
X673000Y197000D01*
X673000Y192000D01*
X733000Y-123500D02*
X738000Y-123500D01*
X738000Y-118500D01*
X733000Y-118500D01*
X733000Y-123500D01*
X673000Y-109500D02*
X678000Y-109500D01*
X678000Y-104500D01*
X673000Y-104500D01*
X673000Y-109500D01*
X732500Y-423500D02*
X737500Y-423500D01*
X737500Y-418500D01*
X732500Y-418500D01*
X732500Y-423500D01*
X670000Y-409500D02*
X675000Y-409500D01*
X675000Y-404500D01*
X670000Y-404500D01*
X670000Y-409500D01*
X212500Y-423000D02*
X217500Y-423000D01*
X217500Y-418000D01*
X212500Y-418000D01*
X212500Y-423000D01*
X150000Y-409000D02*
X155000Y-409000D01*
X155000Y-404000D01*
X150000Y-404000D01*
X150000Y-409000D01*
X213500Y-123000D02*
X218500Y-123000D01*
X218500Y-118000D01*
X213500Y-118000D01*
X213500Y-123000D01*
X153000Y-109000D02*
X158000Y-109000D01*
X158000Y-104000D01*
X153000Y-104000D01*
X153000Y-109000D01*
X214000Y175500D02*
X219000Y175500D01*
X219000Y180500D01*
X214000Y180500D01*
X214000Y175500D01*
X153000Y189500D02*
X158000Y189500D01*
X158000Y194500D01*
X153000Y194500D01*
X153000Y189500D01*
X211500Y476500D02*
X216500Y476500D01*
X216500Y481500D01*
X211500Y481500D01*
X211500Y476500D01*
X149000Y490500D02*
X154000Y490500D01*
X154000Y495500D01*
X149000Y495500D01*
X149000Y490500D01*
X779000Y819500D02*
X784000Y819500D01*
X784000Y824500D01*
X779000Y824500D01*
X779000Y819500D01*
X1090000Y578000D02*
X1095000Y578000D01*
X1095000Y583000D01*
X1090000Y583000D01*
X1090000Y578000D01*
X748500Y871000D02*
X753500Y871000D01*
X753500Y876000D01*
X748500Y876000D01*
X748500Y871000D01*
X1090000Y272500D02*
X1095000Y272500D01*
X1095000Y277500D01*
X1090000Y277500D01*
X1090000Y272500D01*
X637500Y750000D02*
X642500Y750000D01*
X642500Y755000D01*
X637500Y755000D01*
X637500Y750000D01*
X586000Y920000D02*
X591000Y920000D01*
X591000Y925000D01*
X586000Y925000D01*
X586000Y920000D01*
X561500Y914000D02*
X566500Y914000D01*
X566500Y919000D01*
X561500Y919000D01*
X561500Y914000D01*
X1090000Y-24500D02*
X1095000Y-24500D01*
X1095000Y-19500D01*
X1090000Y-19500D01*
X1090000Y-24500D01*
X578500Y895500D02*
X583500Y895500D01*
X583500Y900500D01*
X578500Y900500D01*
X578500Y895500D01*
X1089000Y-321000D02*
X1094000Y-321000D01*
X1094000Y-316000D01*
X1089000Y-316000D01*
X1089000Y-321000D01*
X556500Y858000D02*
X561500Y858000D01*
X561500Y863000D01*
X556500Y863000D01*
X556500Y858000D01*
X723000Y858000D02*
X728000Y858000D01*
X728000Y863000D01*
X723000Y863000D01*
X723000Y858000D01*
X726500Y807000D02*
X731500Y807000D01*
X731500Y812000D01*
X726500Y812000D01*
X726500Y807000D01*
X650000Y746000D02*
X655000Y746000D01*
X655000Y751000D01*
X650000Y751000D01*
X650000Y746000D01*
X586000Y717500D02*
X591000Y717500D01*
X591000Y722500D01*
X586000Y722500D01*
X586000Y717500D01*
X571000Y578000D02*
X576000Y578000D01*
X576000Y583000D01*
X571000Y583000D01*
X571000Y578000D01*
X573000Y728500D02*
X578000Y728500D01*
X578000Y733500D01*
X573000Y733500D01*
X573000Y728500D01*
X524000Y414500D02*
X529000Y414500D01*
X529000Y419500D01*
X524000Y419500D01*
X524000Y414500D01*
X501500Y149500D02*
X506500Y149500D01*
X506500Y154500D01*
X501500Y154500D01*
X501500Y149500D01*
X571000Y-18000D02*
X576000Y-18000D01*
X576000Y-13000D01*
X571000Y-13000D01*
X571000Y-18000D01*
X497000Y799000D02*
X502000Y799000D01*
X502000Y804000D01*
X497000Y804000D01*
X497000Y799000D01*
X497500Y126500D02*
X502500Y126500D01*
X502500Y131500D01*
X497500Y131500D01*
X497500Y126500D01*
X570000Y-313000D02*
X575000Y-313000D01*
X575000Y-308000D01*
X570000Y-308000D01*
X570000Y-313000D01*
X1342000Y478000D02*
X1347000Y478000D01*
X1347000Y483000D01*
X1342000Y483000D01*
X1342000Y478000D01*
X1862500Y478000D02*
X1867500Y478000D01*
X1867500Y483000D01*
X1862500Y483000D01*
X1862500Y478000D01*
X1932500Y478000D02*
X1937500Y478000D01*
X1937500Y483000D01*
X1932500Y483000D01*
X1932500Y478000D01*
X1863500Y178500D02*
X1868500Y178500D01*
X1868500Y183500D01*
X1863500Y183500D01*
X1863500Y178500D01*
X1863000Y-121500D02*
X1868000Y-121500D01*
X1868000Y-116500D01*
X1863000Y-116500D01*
X1863000Y-121500D01*
X1930500Y-123500D02*
X1935500Y-123500D01*
X1935500Y-118500D01*
X1930500Y-118500D01*
X1930500Y-123500D01*
X731000Y846000D02*
X736000Y846000D01*
X736000Y851000D01*
X731000Y851000D01*
X731000Y846000D01*
X723500Y778500D02*
X728500Y778500D01*
X728500Y783500D01*
X723500Y783500D01*
X723500Y778500D01*
X598500Y715500D02*
X603500Y715500D01*
X603500Y720500D01*
X598500Y720500D01*
X598500Y715500D01*
X582500Y673500D02*
X587500Y673500D01*
X587500Y678500D01*
X582500Y678500D01*
X582500Y673500D01*
X461000Y564500D02*
X466000Y564500D01*
X466000Y569500D01*
X461000Y569500D01*
X461000Y564500D01*
X600000Y660500D02*
X605000Y660500D01*
X605000Y665500D01*
X600000Y665500D01*
X600000Y660500D01*
X466500Y271000D02*
X471500Y271000D01*
X471500Y276000D01*
X466500Y276000D01*
X466500Y271000D01*
X508000Y601500D02*
X513000Y601500D01*
X513000Y606500D01*
X508000Y606500D01*
X508000Y601500D01*
X470000Y-27000D02*
X475000Y-27000D01*
X475000Y-22000D01*
X470000Y-22000D01*
X470000Y-27000D01*
X555500Y845000D02*
X560500Y845000D01*
X560500Y850000D01*
X555500Y850000D01*
X555500Y845000D01*
X525500Y769000D02*
X530500Y769000D01*
X530500Y774000D01*
X525500Y774000D01*
X525500Y769000D01*
X524500Y597500D02*
X529500Y597500D01*
X529500Y602500D01*
X524500Y602500D01*
X524500Y597500D01*
X465500Y-325500D02*
X470500Y-325500D01*
X470500Y-320500D01*
X465500Y-320500D01*
X465500Y-325500D01*
X104000Y996965D02*
X111035Y1004000D01*
X104000Y1011035D01*
X96965Y1004000D01*
X104000Y996965D01*
X124955Y999555D02*
X133845Y999555D01*
X129400Y1007143D01*
X124955Y999555D01*
X290820Y-672735D02*
X299710Y-672735D01*
X295265Y-665147D01*
X290820Y-672735D01*
X486045Y-672735D02*
X494935Y-672735D01*
X490490Y-665147D01*
X486045Y-672735D01*
X681271Y-672735D02*
X690161Y-672735D01*
X685716Y-665147D01*
X681271Y-672735D01*
X95595Y-676405D02*
X104485Y-676405D01*
X100040Y-668817D01*
X95595Y-676405D01*
X1807000Y-523500D02*
X1812000Y-523500D01*
X1812000Y-518500D01*
X1807000Y-518500D01*
X1807000Y-523500D01*
X1854000Y-526000D02*
X1859000Y-526000D01*
X1859000Y-521000D01*
X1854000Y-521000D01*
X1854000Y-526000D01*
X1833500Y-525500D02*
X1838500Y-525500D01*
X1838500Y-520500D01*
X1833500Y-520500D01*
X1833500Y-525500D01*
X1918500Y-514000D02*
X1923500Y-514000D01*
X1923500Y-509000D01*
X1918500Y-509000D01*
X1918500Y-514000D01*
X1926500Y-534000D02*
X1931500Y-534000D01*
X1931500Y-529000D01*
X1926500Y-529000D01*
X1926500Y-534000D01*
X517500Y-508000D02*
X522500Y-508000D01*
X522500Y-503000D01*
X517500Y-503000D01*
X517500Y-508000D01*
X1961500Y24000D02*
X1966500Y24000D01*
X1966500Y29000D01*
X1961500Y29000D01*
X1961500Y24000D01*
X1974000Y-305500D02*
X1979000Y-305500D01*
X1979000Y-300500D01*
X1974000Y-300500D01*
X1974000Y-305500D01*
X237000Y558000D02*
X242000Y558000D01*
X242000Y563000D01*
X237000Y563000D01*
X237000Y558000D01*
X1123000Y-525500D02*
X1128000Y-525500D01*
X1128000Y-520500D01*
X1123000Y-520500D01*
X1123000Y-525500D01*
X1827500Y448000D02*
X1832500Y448000D01*
X1832500Y453000D01*
X1827500Y453000D01*
X1827500Y448000D01*
X1307500Y443000D02*
X1312500Y443000D01*
X1312500Y448000D01*
X1307500Y448000D01*
X1307500Y443000D01*
X266500Y440000D02*
X271500Y440000D01*
X271500Y445000D01*
X266500Y445000D01*
X266500Y440000D01*
X786000Y139500D02*
X791000Y139500D01*
X791000Y144500D01*
X786000Y144500D01*
X786000Y139500D01*
X1307500Y142500D02*
X1312500Y142500D01*
X1312500Y147500D01*
X1307500Y147500D01*
X1307500Y142500D01*
X1827500Y141000D02*
X1832500Y141000D01*
X1832500Y146000D01*
X1827500Y146000D01*
X1827500Y141000D01*
X266500Y-162000D02*
X271500Y-162000D01*
X271500Y-157000D01*
X266500Y-157000D01*
X266500Y-162000D01*
X787500Y-163500D02*
X792500Y-163500D01*
X792500Y-158500D01*
X787500Y-158500D01*
X787500Y-163500D01*
X1306500Y-164500D02*
X1311500Y-164500D01*
X1311500Y-159500D01*
X1306500Y-159500D01*
X1306500Y-164500D01*
X1827500Y-162500D02*
X1832500Y-162500D01*
X1832500Y-157500D01*
X1827500Y-157500D01*
X1827500Y-162500D01*
X1832000Y-456500D02*
X1837000Y-456500D01*
X1837000Y-451500D01*
X1832000Y-451500D01*
X1832000Y-456500D01*
X1666000Y-454500D02*
X1671000Y-454500D01*
X1671000Y-449500D01*
X1666000Y-449500D01*
X1666000Y-454500D01*
X1299500Y-458500D02*
X1304500Y-458500D01*
X1304500Y-453500D01*
X1299500Y-453500D01*
X1299500Y-458500D01*
X1146000Y-453500D02*
X1151000Y-453500D01*
X1151000Y-448500D01*
X1146000Y-448500D01*
X1146000Y-453500D01*
X790500Y-452500D02*
X795500Y-452500D01*
X795500Y-447500D01*
X790500Y-447500D01*
X790500Y-452500D01*
X626000Y-451500D02*
X631000Y-451500D01*
X631000Y-446500D01*
X626000Y-446500D01*
X626000Y-451500D01*
X102500Y-451000D02*
X107500Y-451000D01*
X107500Y-446000D01*
X102500Y-446000D01*
X102500Y-451000D01*
X1674000Y-187000D02*
X1679000Y-187000D01*
X1679000Y-182000D01*
X1674000Y-182000D01*
X1674000Y-187000D01*
X1671500Y127500D02*
X1676500Y127500D01*
X1676500Y132500D01*
X1671500Y132500D01*
X1671500Y127500D01*
X1155000Y119500D02*
X1160000Y119500D01*
X1160000Y124500D01*
X1155000Y124500D01*
X1155000Y119500D01*
X111500Y119500D02*
X116500Y119500D01*
X116500Y124500D01*
X111500Y124500D01*
X111500Y119500D01*
X1153500Y-186000D02*
X1158500Y-186000D01*
X1158500Y-181000D01*
X1153500Y-181000D01*
X1153500Y-186000D01*
X113500Y411500D02*
X118500Y411500D01*
X118500Y416500D01*
X113500Y416500D01*
X113500Y411500D01*
X632500Y416000D02*
X637500Y416000D01*
X637500Y421000D01*
X632500Y421000D01*
X632500Y416000D01*
X1153500Y413500D02*
X1158500Y413500D01*
X1158500Y418500D01*
X1153500Y418500D01*
X1153500Y413500D01*
X1674000Y415000D02*
X1679000Y415000D01*
X1679000Y420000D01*
X1674000Y420000D01*
X1674000Y415000D01*
X571000Y635000D02*
X576000Y635000D01*
X576000Y640000D01*
X571000Y640000D01*
X571000Y635000D01*
X454000Y865750D02*
X459000Y865750D01*
X459000Y870750D01*
X454000Y870750D01*
X454000Y865750D01*
X1537500Y645000D02*
X1542500Y645000D01*
X1542500Y650000D01*
X1537500Y650000D01*
X1537500Y645000D01*
X1036000Y756000D02*
X1041000Y756000D01*
X1041000Y761000D01*
X1036000Y761000D01*
X1036000Y756000D01*
X1115500Y25500D02*
X1120500Y25500D01*
X1120500Y30500D01*
X1115500Y30500D01*
X1115500Y25500D01*
X1052500Y59000D02*
X1057500Y59000D01*
X1057500Y64000D01*
X1052500Y64000D01*
X1052500Y59000D01*
X1115000Y-190500D02*
X1120000Y-190500D01*
X1120000Y-185500D01*
X1115000Y-185500D01*
X1115000Y-190500D01*
X1107500Y-274000D02*
X1112500Y-274000D01*
X1112500Y-269000D01*
X1107500Y-269000D01*
X1107500Y-274000D01*
X1061000Y-228500D02*
X1066000Y-228500D01*
X1066000Y-223500D01*
X1061000Y-223500D01*
X1061000Y-228500D01*
X533000Y-240500D02*
X538000Y-240500D01*
X538000Y-235500D01*
X533000Y-235500D01*
X533000Y-240500D01*
X535000Y64000D02*
X540000Y64000D01*
X540000Y69000D01*
X535000Y69000D01*
X535000Y64000D01*
X204000Y131000D02*
X209000Y131000D01*
X209000Y136000D01*
X204000Y136000D01*
X204000Y131000D01*
X374000Y126500D02*
X379000Y126500D01*
X379000Y131500D01*
X374000Y131500D01*
X374000Y126500D01*
X895500Y129500D02*
X900500Y129500D01*
X900500Y134500D01*
X895500Y134500D01*
X895500Y129500D01*
X933500Y46500D02*
X938500Y46500D01*
X938500Y51500D01*
X933500Y51500D01*
X933500Y46500D01*
X398500Y-223500D02*
X403500Y-223500D01*
X403500Y-218500D01*
X398500Y-218500D01*
X398500Y-223500D01*
X984000Y406500D02*
X989000Y406500D01*
X989000Y411500D01*
X984000Y411500D01*
X984000Y406500D01*
X1061000Y365500D02*
X1066000Y365500D01*
X1066000Y370500D01*
X1061000Y370500D01*
X1061000Y365500D01*
X1109000Y416500D02*
X1114000Y416500D01*
X1114000Y421500D01*
X1109000Y421500D01*
X1109000Y416500D01*
X515000Y370000D02*
X520000Y370000D01*
X520000Y375000D01*
X515000Y375000D01*
X515000Y370000D01*
X564500Y429500D02*
X569500Y429500D01*
X569500Y434500D01*
X564500Y434500D01*
X564500Y429500D01*
X359500Y425000D02*
X364500Y425000D01*
X364500Y430000D01*
X359500Y430000D01*
X359500Y425000D01*
X69000Y423500D02*
X74000Y423500D01*
X74000Y428500D01*
X69000Y428500D01*
X69000Y423500D01*
X1528500Y415000D02*
X1533500Y415000D01*
X1533500Y420000D01*
X1528500Y420000D01*
X1528500Y415000D01*
X1588000Y373000D02*
X1593000Y373000D01*
X1593000Y378000D01*
X1588000Y378000D01*
X1588000Y373000D01*
X1573500Y78500D02*
X1578500Y78500D01*
X1578500Y83500D01*
X1573500Y83500D01*
X1573500Y78500D01*
X1598500Y-222500D02*
X1603500Y-222500D01*
X1603500Y-217500D01*
X1598500Y-217500D01*
X1598500Y-222500D01*
X1588000Y-518000D02*
X1593000Y-518000D01*
X1593000Y-513000D01*
X1588000Y-513000D01*
X1588000Y-518000D01*
X1440000Y-223000D02*
X1445000Y-223000D01*
X1445000Y-218000D01*
X1440000Y-218000D01*
X1440000Y-223000D01*
X1515500Y-269500D02*
X1520500Y-269500D01*
X1520500Y-264500D01*
X1515500Y-264500D01*
X1515500Y-269500D01*
X17500Y284500D02*
X22500Y284500D01*
X22500Y289500D01*
X17500Y289500D01*
X17500Y284500D01*
X63500Y25500D02*
X68500Y25500D01*
X68500Y30500D01*
X63500Y30500D01*
X63500Y25500D01*
X66000Y-279000D02*
X71000Y-279000D01*
X71000Y-274000D01*
X66000Y-274000D01*
X66000Y-279000D01*
X592000Y-275500D02*
X597000Y-275500D01*
X597000Y-270500D01*
X592000Y-270500D01*
X592000Y-275500D01*
X536000Y-309500D02*
X541000Y-309500D01*
X541000Y-304500D01*
X536000Y-304500D01*
X536000Y-309500D01*
X588000Y26500D02*
X593000Y26500D01*
X593000Y31500D01*
X588000Y31500D01*
X588000Y26500D01*
X588500Y325500D02*
X593500Y325500D01*
X593500Y330500D01*
X588500Y330500D01*
X588500Y325500D01*
X555500Y309500D02*
X560500Y309500D01*
X560500Y314500D01*
X555500Y314500D01*
X555500Y309500D01*
X602000Y612500D02*
X607000Y612500D01*
X607000Y617500D01*
X602000Y617500D01*
X602000Y612500D01*
X549000Y584500D02*
X554000Y584500D01*
X554000Y589500D01*
X549000Y589500D01*
X549000Y584500D01*
X1113500Y613000D02*
X1118500Y613000D01*
X1118500Y618000D01*
X1113500Y618000D01*
X1113500Y613000D01*
X1110000Y320500D02*
X1115000Y320500D01*
X1115000Y325500D01*
X1110000Y325500D01*
X1110000Y320500D01*
X1626000Y-279500D02*
X1631000Y-279500D01*
X1631000Y-274500D01*
X1626000Y-274500D01*
X1626000Y-279500D01*
X1638000Y24500D02*
X1643000Y24500D01*
X1643000Y29500D01*
X1638000Y29500D01*
X1638000Y24500D01*
X1626500Y316500D02*
X1631500Y316500D01*
X1631500Y321500D01*
X1626500Y321500D01*
X1626500Y316500D01*
X1616500Y606000D02*
X1621500Y606000D01*
X1621500Y611000D01*
X1616500Y611000D01*
X1616500Y606000D01*
X554500Y752500D02*
X559500Y752500D01*
X559500Y757500D01*
X554500Y757500D01*
X554500Y752500D01*
X111000Y840000D02*
X116000Y840000D01*
X116000Y845000D01*
X111000Y845000D01*
X111000Y840000D01*
X1263000Y709500D02*
X1268000Y709500D01*
X1268000Y714500D01*
X1263000Y714500D01*
X1263000Y709500D01*
X603500Y966500D02*
X608500Y966500D01*
X608500Y971500D01*
X603500Y971500D01*
X603500Y966500D01*
X1910500Y701500D02*
X1915500Y701500D01*
X1915500Y706500D01*
X1910500Y706500D01*
X1910500Y701500D01*
X650500Y915500D02*
X655500Y915500D01*
X655500Y920500D01*
X650500Y920500D01*
X650500Y915500D01*
X391500Y770000D02*
X396500Y770000D01*
X396500Y775000D01*
X391500Y775000D01*
X391500Y770000D01*
X870500Y648500D02*
X875500Y648500D01*
X875500Y653500D01*
X870500Y653500D01*
X870500Y648500D01*
X1463000Y-29646D02*
X1468000Y-29646D01*
X1468000Y-24646D01*
X1463000Y-24646D01*
X1463000Y-29646D01*
X1983000Y-29646D02*
X1988000Y-29646D01*
X1988000Y-24646D01*
X1983000Y-24646D01*
X1983000Y-29646D01*
X943000Y-29646D02*
X948000Y-29646D01*
X948000Y-24646D01*
X943000Y-24646D01*
X943000Y-29646D01*
X423000Y-29646D02*
X428000Y-29646D01*
X428000Y-24646D01*
X423000Y-24646D01*
X423000Y-29646D01*
X1168000Y-496000D02*
X1173000Y-496000D01*
X1173000Y-491000D01*
X1168000Y-491000D01*
X1168000Y-496000D01*
X1696000Y-496000D02*
X1701000Y-496000D01*
X1701000Y-491000D01*
X1696000Y-491000D01*
X1696000Y-496000D01*
X676000Y-313500D02*
X681000Y-313500D01*
X681000Y-308500D01*
X676000Y-308500D01*
X676000Y-313500D01*
X1197000Y-312250D02*
X1202000Y-312250D01*
X1202000Y-307250D01*
X1197000Y-307250D01*
X1197000Y-312250D01*
X1718293Y-312207D02*
X1723293Y-312207D01*
X1723293Y-307207D01*
X1718293Y-307207D01*
X1718293Y-312207D01*
X157000Y-312250D02*
X162000Y-312250D01*
X162000Y-307250D01*
X157000Y-307250D01*
X157000Y-312250D01*
X676500Y-12000D02*
X681500Y-12000D01*
X681500Y-7000D01*
X676500Y-7000D01*
X676500Y-12000D01*
X1196500Y-12000D02*
X1201500Y-12000D01*
X1201500Y-7000D01*
X1196500Y-7000D01*
X1196500Y-12000D01*
X1716500Y-12000D02*
X1721500Y-12000D01*
X1721500Y-7000D01*
X1716500Y-7000D01*
X1716500Y-12000D01*
X156500Y-12000D02*
X161500Y-12000D01*
X161500Y-7000D01*
X156500Y-7000D01*
X156500Y-12000D01*
X676500Y288000D02*
X681500Y288000D01*
X681500Y293000D01*
X676500Y293000D01*
X676500Y288000D01*
X1196500Y288000D02*
X1201500Y288000D01*
X1201500Y293000D01*
X1196500Y293000D01*
X1196500Y288000D01*
X156500Y288000D02*
X161500Y288000D01*
X161500Y293000D01*
X156500Y293000D01*
X156500Y288000D01*
X1716500Y288000D02*
X1721500Y288000D01*
X1721500Y293000D01*
X1716500Y293000D01*
X1716500Y288000D01*
X676500Y588000D02*
X681500Y588000D01*
X681500Y593000D01*
X676500Y593000D01*
X676500Y588000D01*
X1196500Y588000D02*
X1201500Y588000D01*
X1201500Y593000D01*
X1196500Y593000D01*
X1196500Y588000D01*
X156500Y588000D02*
X161500Y588000D01*
X161500Y593000D01*
X156500Y593000D01*
X156500Y588000D01*
X1716500Y588000D02*
X1721500Y588000D01*
X1721500Y593000D01*
X1716500Y593000D01*
X1716500Y588000D01*
X14195Y488945D02*
X19195Y488945D01*
X19195Y493945D01*
X14195Y493945D01*
X14195Y488945D01*
X88695Y474445D02*
X93695Y474445D01*
X93695Y479445D01*
X88695Y479445D01*
X88695Y474445D01*
X101575Y450000D02*
X106575Y450000D01*
X106575Y455000D01*
X101575Y455000D01*
X101575Y450000D01*
X250000Y460968D02*
X255000Y460968D01*
X255000Y465968D01*
X250000Y465968D01*
X250000Y460968D01*
X1054195Y488945D02*
X1059195Y488945D01*
X1059195Y493945D01*
X1054195Y493945D01*
X1054195Y488945D01*
X14195Y188945D02*
X19195Y188945D01*
X19195Y193945D01*
X14195Y193945D01*
X14195Y188945D01*
X1574195Y488945D02*
X1579195Y488945D01*
X1579195Y493945D01*
X1574195Y493945D01*
X1574195Y488945D01*
X534195Y488945D02*
X539195Y488945D01*
X539195Y493945D01*
X534195Y493945D01*
X534195Y488945D01*
X1128695Y474445D02*
X1133695Y474445D01*
X1133695Y479445D01*
X1128695Y479445D01*
X1128695Y474445D01*
X88695Y174445D02*
X93695Y174445D01*
X93695Y179445D01*
X88695Y179445D01*
X88695Y174445D01*
X1137000Y448500D02*
X1142000Y448500D01*
X1142000Y453500D01*
X1137000Y453500D01*
X1137000Y448500D01*
X101500Y148500D02*
X106500Y148500D01*
X106500Y153500D01*
X101500Y153500D01*
X101500Y148500D01*
X1648695Y474445D02*
X1653695Y474445D01*
X1653695Y479445D01*
X1648695Y479445D01*
X1648695Y474445D01*
X608695Y474445D02*
X613695Y474445D01*
X613695Y479445D01*
X608695Y479445D01*
X608695Y474445D01*
X1662000Y455500D02*
X1667000Y455500D01*
X1667000Y460500D01*
X1662000Y460500D01*
X1662000Y455500D01*
X621500Y452000D02*
X626500Y452000D01*
X626500Y457000D01*
X621500Y457000D01*
X621500Y452000D01*
X1289795Y460705D02*
X1294795Y460705D01*
X1294795Y465705D01*
X1289795Y465705D01*
X1289795Y460705D01*
X249000Y159000D02*
X254000Y159000D01*
X254000Y164000D01*
X249000Y164000D01*
X249000Y159000D01*
X266000Y142000D02*
X271000Y142000D01*
X271000Y147000D01*
X266000Y147000D01*
X266000Y142000D01*
X1810500Y466000D02*
X1815500Y466000D01*
X1815500Y471000D01*
X1810500Y471000D01*
X1810500Y466000D01*
X770000Y461360D02*
X775000Y461360D01*
X775000Y466360D01*
X770000Y466360D01*
X770000Y461360D01*
X1054195Y188945D02*
X1059195Y188945D01*
X1059195Y193945D01*
X1054195Y193945D01*
X1054195Y188945D01*
X786500Y443500D02*
X791500Y443500D01*
X791500Y448500D01*
X786500Y448500D01*
X786500Y443500D01*
X14195Y-111055D02*
X19195Y-111055D01*
X19195Y-106055D01*
X14195Y-106055D01*
X14195Y-111055D01*
X1574195Y188945D02*
X1579195Y188945D01*
X1579195Y193945D01*
X1574195Y193945D01*
X1574195Y188945D01*
X534195Y188945D02*
X539195Y188945D01*
X539195Y193945D01*
X534195Y193945D01*
X534195Y188945D01*
X1128695Y174445D02*
X1133695Y174445D01*
X1133695Y179445D01*
X1128695Y179445D01*
X1128695Y174445D01*
X88695Y-125555D02*
X93695Y-125555D01*
X93695Y-120555D01*
X88695Y-120555D01*
X88695Y-125555D01*
X1146000Y147000D02*
X1151000Y147000D01*
X1151000Y152000D01*
X1146000Y152000D01*
X1146000Y147000D01*
X1648695Y174445D02*
X1653695Y174445D01*
X1653695Y179445D01*
X1648695Y179445D01*
X1648695Y174445D01*
X608695Y174445D02*
X613695Y174445D01*
X613695Y179445D01*
X608695Y179445D01*
X608695Y174445D01*
X102000Y-152500D02*
X107000Y-152500D01*
X107000Y-147500D01*
X102000Y-147500D01*
X102000Y-152500D01*
X1662000Y149000D02*
X1667000Y149000D01*
X1667000Y154000D01*
X1662000Y154000D01*
X1662000Y149000D01*
X621250Y152000D02*
X626250Y152000D01*
X626250Y157000D01*
X621250Y157000D01*
X621250Y152000D01*
X1290500Y161890D02*
X1295500Y161890D01*
X1295500Y166890D01*
X1290500Y166890D01*
X1290500Y161890D01*
X249500Y-139209D02*
X254500Y-139209D01*
X254500Y-134209D01*
X249500Y-134209D01*
X249500Y-139209D01*
X1810500Y161390D02*
X1815500Y161390D01*
X1815500Y166390D01*
X1810500Y166390D01*
X1810500Y161390D01*
X770000Y160968D02*
X775000Y160968D01*
X775000Y165968D01*
X770000Y165968D01*
X770000Y160968D01*
X1054195Y-111055D02*
X1059195Y-111055D01*
X1059195Y-106055D01*
X1054195Y-106055D01*
X1054195Y-111055D01*
X14195Y-411055D02*
X19195Y-411055D01*
X19195Y-406055D01*
X14195Y-406055D01*
X14195Y-411055D01*
X1574195Y-111055D02*
X1579195Y-111055D01*
X1579195Y-106055D01*
X1574195Y-106055D01*
X1574195Y-111055D01*
X534195Y-111055D02*
X539195Y-111055D01*
X539195Y-106055D01*
X534195Y-106055D01*
X534195Y-111055D01*
X1128695Y-125555D02*
X1133695Y-125555D01*
X1133695Y-120555D01*
X1128695Y-120555D01*
X1128695Y-125555D01*
X88695Y-425555D02*
X93695Y-425555D01*
X93695Y-420555D01*
X88695Y-420555D01*
X88695Y-425555D01*
X1141750Y-153500D02*
X1146750Y-153500D01*
X1146750Y-148500D01*
X1141750Y-148500D01*
X1141750Y-153500D01*
X1648695Y-125555D02*
X1653695Y-125555D01*
X1653695Y-120555D01*
X1648695Y-120555D01*
X1648695Y-125555D01*
X608695Y-125555D02*
X613695Y-125555D01*
X613695Y-120555D01*
X608695Y-120555D01*
X608695Y-125555D01*
X1662000Y-156500D02*
X1667000Y-156500D01*
X1667000Y-151500D01*
X1662000Y-151500D01*
X1662000Y-156500D01*
X622000Y-150500D02*
X627000Y-150500D01*
X627000Y-145500D01*
X622000Y-145500D01*
X622000Y-150500D01*
X1290280Y-138810D02*
X1295280Y-138810D01*
X1295280Y-133810D01*
X1290280Y-133810D01*
X1290280Y-138810D01*
X249500Y-438500D02*
X254500Y-438500D01*
X254500Y-433500D01*
X249500Y-433500D01*
X249500Y-438500D01*
X1810280Y-138810D02*
X1815280Y-138810D01*
X1815280Y-133810D01*
X1810280Y-133810D01*
X1810280Y-138810D01*
X770000Y-139500D02*
X775000Y-139500D01*
X775000Y-134500D01*
X770000Y-134500D01*
X770000Y-139500D01*
X283000Y-451500D02*
X288000Y-451500D01*
X288000Y-446500D01*
X283000Y-446500D01*
X283000Y-451500D01*
X1054195Y-411055D02*
X1059195Y-411055D01*
X1059195Y-406055D01*
X1054195Y-406055D01*
X1054195Y-411055D01*
X1574195Y-411055D02*
X1579195Y-411055D01*
X1579195Y-406055D01*
X1574195Y-406055D01*
X1574195Y-411055D01*
X534195Y-411055D02*
X539195Y-411055D01*
X539195Y-406055D01*
X534195Y-406055D01*
X534195Y-411055D01*
X1128695Y-425555D02*
X1133695Y-425555D01*
X1133695Y-420555D01*
X1128695Y-420555D01*
X1128695Y-425555D01*
X1648695Y-425555D02*
X1653695Y-425555D01*
X1653695Y-420555D01*
X1648695Y-420555D01*
X1648695Y-425555D01*
X608695Y-425555D02*
X613695Y-425555D01*
X613695Y-420555D01*
X608695Y-420555D01*
X608695Y-425555D01*
X1290500Y-430610D02*
X1295500Y-430610D01*
X1295500Y-425610D01*
X1290500Y-425610D01*
X1290500Y-430610D01*
X1810045Y-439045D02*
X1815045Y-439045D01*
X1815045Y-434045D01*
X1810045Y-434045D01*
X1810045Y-439045D01*
X769500Y-438500D02*
X774500Y-438500D01*
X774500Y-433500D01*
X769500Y-433500D01*
X769500Y-438500D01*
X220000Y828000D02*
X225000Y828000D01*
X225000Y833000D01*
X220000Y833000D01*
X220000Y828000D01*
X624500Y754000D02*
X629500Y754000D01*
X629500Y759000D01*
X624500Y759000D01*
X624500Y754000D01*
X205000Y789000D02*
X210000Y789000D01*
X210000Y794000D01*
X205000Y794000D01*
X205000Y789000D01*
X354000Y874500D02*
X359000Y874500D01*
X359000Y879500D01*
X354000Y879500D01*
X354000Y874500D01*
X637500Y772500D02*
X642500Y772500D01*
X642500Y777500D01*
X637500Y777500D01*
X637500Y772500D01*
X403000Y1044000D02*
X408000Y1044000D01*
X408000Y1049000D01*
X403000Y1049000D01*
X403000Y1044000D01*
X841500Y975000D02*
X846500Y975000D01*
X846500Y980000D01*
X841500Y980000D01*
X841500Y975000D01*
X811000Y789500D02*
X816000Y789500D01*
X816000Y794500D01*
X811000Y794500D01*
X811000Y789500D01*
X88195Y562195D02*
X93195Y562195D01*
X93195Y567195D01*
X88195Y567195D01*
X88195Y562195D01*
X960000Y685500D02*
X965000Y685500D01*
X965000Y690500D01*
X960000Y690500D01*
X960000Y685500D01*
X1400000Y668390D02*
X1405000Y668390D01*
X1405000Y673390D01*
X1400000Y673390D01*
X1400000Y668390D01*
X336500Y552000D02*
X341500Y552000D01*
X341500Y557000D01*
X336500Y557000D01*
X336500Y552000D01*
X608195Y562195D02*
X613195Y562195D01*
X613195Y567195D01*
X608195Y567195D01*
X608195Y562195D01*
X1128195Y562195D02*
X1133195Y562195D01*
X1133195Y567195D01*
X1128195Y567195D01*
X1128195Y562195D01*
X1648195Y562195D02*
X1653195Y562195D01*
X1653195Y567195D01*
X1648195Y567195D01*
X1648195Y562195D01*
X88195Y262195D02*
X93195Y262195D01*
X93195Y267195D01*
X88195Y267195D01*
X88195Y262195D01*
X856500Y552000D02*
X861500Y552000D01*
X861500Y557000D01*
X856500Y557000D01*
X856500Y552000D01*
X1376500Y552000D02*
X1381500Y552000D01*
X1381500Y557000D01*
X1376500Y557000D01*
X1376500Y552000D01*
X177000Y551000D02*
X182000Y551000D01*
X182000Y556000D01*
X177000Y556000D01*
X177000Y551000D01*
X336500Y252000D02*
X341500Y252000D01*
X341500Y257000D01*
X336500Y257000D01*
X336500Y252000D01*
X608195Y262195D02*
X613195Y262195D01*
X613195Y267195D01*
X608195Y267195D01*
X608195Y262195D01*
X1896500Y552000D02*
X1901500Y552000D01*
X1901500Y557000D01*
X1896500Y557000D01*
X1896500Y552000D01*
X697000Y551000D02*
X702000Y551000D01*
X702000Y556000D01*
X697000Y556000D01*
X697000Y551000D01*
X1648195Y262195D02*
X1653195Y262195D01*
X1653195Y267195D01*
X1648195Y267195D01*
X1648195Y262195D01*
X1217000Y551000D02*
X1222000Y551000D01*
X1222000Y556000D01*
X1217000Y556000D01*
X1217000Y551000D01*
X1128195Y262195D02*
X1133195Y262195D01*
X1133195Y267195D01*
X1128195Y267195D01*
X1128195Y262195D01*
X449500Y141000D02*
X454500Y141000D01*
X454500Y146000D01*
X449500Y146000D01*
X449500Y141000D01*
X856500Y252000D02*
X861500Y252000D01*
X861500Y257000D01*
X856500Y257000D01*
X856500Y252000D01*
X1376500Y252000D02*
X1381500Y252000D01*
X1381500Y257000D01*
X1376500Y257000D01*
X1376500Y252000D01*
X88195Y-37805D02*
X93195Y-37805D01*
X93195Y-32805D01*
X88195Y-32805D01*
X88195Y-37805D01*
X177000Y251000D02*
X182000Y251000D01*
X182000Y256000D01*
X177000Y256000D01*
X177000Y251000D01*
X1737000Y551000D02*
X1742000Y551000D01*
X1742000Y556000D01*
X1737000Y556000D01*
X1737000Y551000D01*
X336500Y-48000D02*
X341500Y-48000D01*
X341500Y-43000D01*
X336500Y-43000D01*
X336500Y-48000D01*
X969500Y141000D02*
X974500Y141000D01*
X974500Y146000D01*
X969500Y146000D01*
X969500Y141000D01*
X1896500Y252000D02*
X1901500Y252000D01*
X1901500Y257000D01*
X1896500Y257000D01*
X1896500Y252000D01*
X1489500Y141000D02*
X1494500Y141000D01*
X1494500Y146000D01*
X1489500Y146000D01*
X1489500Y141000D01*
X608195Y-37805D02*
X613195Y-37805D01*
X613195Y-32805D01*
X608195Y-32805D01*
X608195Y-37805D01*
X697000Y251000D02*
X702000Y251000D01*
X702000Y256000D01*
X697000Y256000D01*
X697000Y251000D01*
X1217000Y251000D02*
X1222000Y251000D01*
X1222000Y256000D01*
X1217000Y256000D01*
X1217000Y251000D01*
X856500Y-48000D02*
X861500Y-48000D01*
X861500Y-43000D01*
X856500Y-43000D01*
X856500Y-48000D01*
X2009500Y141000D02*
X2014500Y141000D01*
X2014500Y146000D01*
X2009500Y146000D01*
X2009500Y141000D01*
X1648195Y-37805D02*
X1653195Y-37805D01*
X1653195Y-32805D01*
X1648195Y-32805D01*
X1648195Y-37805D01*
X1376500Y-48000D02*
X1381500Y-48000D01*
X1381500Y-43000D01*
X1376500Y-43000D01*
X1376500Y-48000D01*
X177000Y-49000D02*
X182000Y-49000D01*
X182000Y-44000D01*
X177000Y-44000D01*
X177000Y-49000D01*
X336500Y-348000D02*
X341500Y-348000D01*
X341500Y-343000D01*
X336500Y-343000D01*
X336500Y-348000D01*
X1128195Y-37805D02*
X1133195Y-37805D01*
X1133195Y-32805D01*
X1128195Y-32805D01*
X1128195Y-37805D01*
X856500Y-63000D02*
X861500Y-63000D01*
X861500Y-58000D01*
X856500Y-58000D01*
X856500Y-63000D01*
X1377000Y-68000D02*
X1382000Y-68000D01*
X1382000Y-63000D01*
X1377000Y-63000D01*
X1377000Y-68000D01*
X1737000Y251000D02*
X1742000Y251000D01*
X1742000Y256000D01*
X1737000Y256000D01*
X1737000Y251000D01*
X88195Y-337805D02*
X93195Y-337805D01*
X93195Y-332805D01*
X88195Y-332805D01*
X88195Y-337805D01*
X1896500Y-48000D02*
X1901500Y-48000D01*
X1901500Y-43000D01*
X1896500Y-43000D01*
X1896500Y-48000D01*
X1896000Y-62250D02*
X1901000Y-62250D01*
X1901000Y-57250D01*
X1896000Y-57250D01*
X1896000Y-62250D01*
X697000Y-49000D02*
X702000Y-49000D01*
X702000Y-44000D01*
X697000Y-44000D01*
X697000Y-49000D01*
X1217000Y-49000D02*
X1222000Y-49000D01*
X1222000Y-44000D01*
X1217000Y-44000D01*
X1217000Y-49000D01*
X177000Y-349000D02*
X182000Y-349000D01*
X182000Y-344000D01*
X177000Y-344000D01*
X177000Y-349000D01*
X608195Y-337805D02*
X613195Y-337805D01*
X613195Y-332805D01*
X608195Y-332805D01*
X608195Y-337805D01*
X1441500Y-321500D02*
X1446500Y-321500D01*
X1446500Y-316500D01*
X1441500Y-316500D01*
X1441500Y-321500D01*
X856500Y-348000D02*
X861500Y-348000D01*
X861500Y-343000D01*
X856500Y-343000D01*
X856500Y-348000D01*
X1737000Y-49000D02*
X1742000Y-49000D01*
X1742000Y-44000D01*
X1737000Y-44000D01*
X1737000Y-49000D01*
X1648195Y-337805D02*
X1653195Y-337805D01*
X1653195Y-332805D01*
X1648195Y-332805D01*
X1648195Y-337805D01*
X1376500Y-348000D02*
X1381500Y-348000D01*
X1381500Y-343000D01*
X1376500Y-343000D01*
X1376500Y-348000D01*
X1128195Y-337805D02*
X1133195Y-337805D01*
X1133195Y-332805D01*
X1128195Y-332805D01*
X1128195Y-337805D01*
X1896500Y-348000D02*
X1901500Y-348000D01*
X1901500Y-343000D01*
X1896500Y-343000D01*
X1896500Y-348000D01*
X697000Y-349000D02*
X702000Y-349000D01*
X702000Y-344000D01*
X697000Y-344000D01*
X697000Y-349000D01*
X1217000Y-349000D02*
X1222000Y-349000D01*
X1222000Y-344000D01*
X1217000Y-344000D01*
X1217000Y-349000D01*
X1737000Y-349000D02*
X1742000Y-349000D01*
X1742000Y-344000D01*
X1737000Y-344000D01*
X1737000Y-349000D01*
X189000Y-484000D02*
X194000Y-484000D01*
X194000Y-479000D01*
X189000Y-479000D01*
X189000Y-484000D01*
X632500Y-484500D02*
X637500Y-484500D01*
X637500Y-479500D01*
X632500Y-479500D01*
X632500Y-484500D01*
X75000Y-330750D02*
X80000Y-330750D01*
X80000Y-325750D01*
X75000Y-325750D01*
X75000Y-330750D01*
X1635000Y-334500D02*
X1640000Y-334500D01*
X1640000Y-329500D01*
X1635000Y-329500D01*
X1635000Y-334500D01*
X1114500Y-332500D02*
X1119500Y-332500D01*
X1119500Y-327500D01*
X1114500Y-327500D01*
X1114500Y-332500D01*
X595000Y-333597D02*
X600000Y-333597D01*
X600000Y-328597D01*
X595000Y-328597D01*
X595000Y-333597D01*
X617500Y712000D02*
X622500Y712000D01*
X622500Y717000D01*
X617500Y717000D01*
X617500Y712000D01*
X372500Y179500D02*
X377500Y179500D01*
X377500Y184500D01*
X372500Y184500D01*
X372500Y179500D01*
X570000Y286000D02*
X575000Y286000D01*
X575000Y291000D01*
X570000Y291000D01*
X570000Y286000D01*
X893000Y179000D02*
X898000Y179000D01*
X898000Y184000D01*
X893000Y184000D01*
X893000Y179000D01*
X1413000Y179000D02*
X1418000Y179000D01*
X1418000Y184000D01*
X1413000Y184000D01*
X1413000Y179000D01*
X1933000Y178000D02*
X1938000Y178000D01*
X1938000Y183000D01*
X1933000Y183000D01*
X1933000Y178000D01*
X372500Y-121500D02*
X377500Y-121500D01*
X377500Y-116500D01*
X372500Y-116500D01*
X372500Y-121500D01*
X893000Y-120500D02*
X898000Y-120500D01*
X898000Y-115500D01*
X893000Y-115500D01*
X893000Y-120500D01*
X1413000Y-121000D02*
X1418000Y-121000D01*
X1418000Y-116000D01*
X1413000Y-116000D01*
X1413000Y-121000D01*
X373000Y-421000D02*
X378000Y-421000D01*
X378000Y-416000D01*
X373000Y-416000D01*
X373000Y-421000D01*
X893000Y-420500D02*
X898000Y-420500D01*
X898000Y-415500D01*
X893000Y-415500D01*
X893000Y-420500D01*
X1251500Y-421500D02*
X1256500Y-421500D01*
X1256500Y-416500D01*
X1251500Y-416500D01*
X1251500Y-421500D01*
X1413000Y-421000D02*
X1418000Y-421000D01*
X1418000Y-416000D01*
X1413000Y-416000D01*
X1413000Y-421000D01*
X1933000Y-421500D02*
X1938000Y-421500D01*
X1938000Y-416500D01*
X1933000Y-416500D01*
X1933000Y-421500D01*
X1772000Y-421000D02*
X1777000Y-421000D01*
X1777000Y-416000D01*
X1772000Y-416000D01*
X1772000Y-421000D01*
X1490500Y-507000D02*
X1495500Y-507000D01*
X1495500Y-502000D01*
X1490500Y-502000D01*
X1490500Y-507000D01*
X1018500Y-459500D02*
X1023500Y-459500D01*
X1023500Y-454500D01*
X1018500Y-454500D01*
X1018500Y-459500D01*
X1578000Y128000D02*
X1583000Y128000D01*
X1583000Y133000D01*
X1578000Y133000D01*
X1578000Y128000D01*
X1058000Y128000D02*
X1063000Y128000D01*
X1063000Y133000D01*
X1058000Y133000D01*
X1058000Y128000D01*
X634000Y-187500D02*
X639000Y-187500D01*
X639000Y-182500D01*
X634000Y-182500D01*
X634000Y-187500D01*
X538000Y128000D02*
X543000Y128000D01*
X543000Y133000D01*
X538000Y133000D01*
X538000Y128000D01*
X114000Y-186500D02*
X119000Y-186500D01*
X119000Y-181500D01*
X114000Y-181500D01*
X114000Y-186500D01*
X632500Y121000D02*
X637500Y121000D01*
X637500Y126000D01*
X632500Y126000D01*
X632500Y121000D01*
X18000Y128000D02*
X23000Y128000D01*
X23000Y133000D01*
X18000Y133000D01*
X18000Y128000D01*
X1278000Y-131500D02*
X1283000Y-131500D01*
X1283000Y-126500D01*
X1278000Y-126500D01*
X1278000Y-131500D01*
X758000Y-131500D02*
X763000Y-131500D01*
X763000Y-126500D01*
X758000Y-126500D01*
X758000Y-131500D01*
X238000Y-131500D02*
X243000Y-131500D01*
X243000Y-126500D01*
X238000Y-126500D01*
X238000Y-131500D01*
X1798000Y-131500D02*
X1803000Y-131500D01*
X1803000Y-126500D01*
X1798000Y-126500D01*
X1798000Y-131500D01*
X1278000Y468500D02*
X1283000Y468500D01*
X1283000Y473500D01*
X1278000Y473500D01*
X1278000Y468500D01*
X758000Y468500D02*
X763000Y468500D01*
X763000Y473500D01*
X758000Y473500D01*
X758000Y468500D01*
X238000Y468500D02*
X243000Y468500D01*
X243000Y473500D01*
X238000Y473500D01*
X238000Y468500D01*
X1798000Y468500D02*
X1803000Y468500D01*
X1803000Y473500D01*
X1798000Y473500D01*
X1798000Y468500D01*
X237500Y-333500D02*
X242500Y-333500D01*
X242500Y-328500D01*
X237500Y-328500D01*
X237500Y-333500D01*
X1797500Y-339500D02*
X1802500Y-339500D01*
X1802500Y-334500D01*
X1797500Y-334500D01*
X1797500Y-339500D01*
X757500Y-334000D02*
X762500Y-334000D01*
X762500Y-329000D01*
X757500Y-329000D01*
X757500Y-334000D01*
X1277500Y-339750D02*
X1282500Y-339750D01*
X1282500Y-334750D01*
X1277500Y-334750D01*
X1277500Y-339750D01*
X237500Y263500D02*
X242500Y263500D01*
X242500Y268500D01*
X237500Y268500D01*
X237500Y263500D01*
X1797500Y263500D02*
X1802500Y263500D01*
X1802500Y268500D01*
X1797500Y268500D01*
X1797500Y263500D01*
X1277500Y263500D02*
X1282500Y263500D01*
X1282500Y268500D01*
X1277500Y268500D01*
X1277500Y263500D01*
X757500Y263500D02*
X762500Y263500D01*
X762500Y268500D01*
X757500Y268500D01*
X757500Y263500D01*
X1836000Y-341000D02*
X1841000Y-341000D01*
X1841000Y-336000D01*
X1836000Y-336000D01*
X1836000Y-341000D01*
X1316000Y-341500D02*
X1321000Y-341500D01*
X1321000Y-336500D01*
X1316000Y-336500D01*
X1316000Y-341500D01*
X276000Y-338000D02*
X281000Y-338000D01*
X281000Y-333000D01*
X276000Y-333000D01*
X276000Y-338000D01*
X1817000Y-315000D02*
X1822000Y-315000D01*
X1822000Y-310000D01*
X1817000Y-310000D01*
X1817000Y-315000D01*
X796000Y-340500D02*
X801000Y-340500D01*
X801000Y-335500D01*
X796000Y-335500D01*
X796000Y-340500D01*
X257000Y-313000D02*
X262000Y-313000D01*
X262000Y-308000D01*
X257000Y-308000D01*
X257000Y-313000D01*
X1297000Y-315000D02*
X1302000Y-315000D01*
X1302000Y-310000D01*
X1297000Y-310000D01*
X1297000Y-315000D01*
X777000Y-315000D02*
X782000Y-315000D01*
X782000Y-310000D01*
X777000Y-310000D01*
X777000Y-315000D01*
X1815500Y287000D02*
X1820500Y287000D01*
X1820500Y292000D01*
X1815500Y292000D01*
X1815500Y287000D01*
X255500Y287000D02*
X260500Y287000D01*
X260500Y292000D01*
X255500Y292000D01*
X255500Y287000D01*
X1295500Y287000D02*
X1300500Y287000D01*
X1300500Y292000D01*
X1295500Y292000D01*
X1295500Y287000D01*
X775500Y287000D02*
X780500Y287000D01*
X780500Y292000D01*
X775500Y292000D01*
X775500Y287000D01*
X311000Y-437500D02*
X316000Y-437500D01*
X316000Y-432500D01*
X311000Y-432500D01*
X311000Y-437500D01*
X1867405Y-437000D02*
X1872405Y-437000D01*
X1872405Y-432000D01*
X1867405Y-432000D01*
X1867405Y-437000D01*
X827405Y-437000D02*
X832405Y-437000D01*
X832405Y-432000D01*
X827405Y-432000D01*
X827405Y-437000D01*
X334000Y-329500D02*
X339000Y-329500D01*
X339000Y-324500D01*
X334000Y-324500D01*
X334000Y-329500D01*
X1894000Y-329500D02*
X1899000Y-329500D01*
X1899000Y-324500D01*
X1894000Y-324500D01*
X1894000Y-329500D01*
X1347405Y-437000D02*
X1352405Y-437000D01*
X1352405Y-432000D01*
X1347405Y-432000D01*
X1347405Y-437000D01*
X854000Y-329500D02*
X859000Y-329500D01*
X859000Y-324500D01*
X854000Y-324500D01*
X854000Y-329500D01*
X289207Y-138000D02*
X294207Y-138000D01*
X294207Y-133000D01*
X289207Y-133000D01*
X289207Y-138000D01*
X1849207Y-138000D02*
X1854207Y-138000D01*
X1854207Y-133000D01*
X1849207Y-133000D01*
X1849207Y-138000D01*
X1374000Y-329500D02*
X1379000Y-329500D01*
X1379000Y-324500D01*
X1374000Y-324500D01*
X1374000Y-329500D01*
X809207Y-138000D02*
X814207Y-138000D01*
X814207Y-133000D01*
X809207Y-133000D01*
X809207Y-138000D01*
X1329207Y-138000D02*
X1334207Y-138000D01*
X1334207Y-133000D01*
X1329207Y-133000D01*
X1329207Y-138000D01*
X307500Y162500D02*
X312500Y162500D01*
X312500Y167500D01*
X307500Y167500D01*
X307500Y162500D01*
X1867500Y162500D02*
X1872500Y162500D01*
X1872500Y167500D01*
X1867500Y167500D01*
X1867500Y162500D01*
X827500Y162500D02*
X832500Y162500D01*
X832500Y167500D01*
X827500Y167500D01*
X827500Y162500D01*
X334000Y270500D02*
X339000Y270500D01*
X339000Y275500D01*
X334000Y275500D01*
X334000Y270500D01*
X1894000Y270500D02*
X1899000Y270500D01*
X1899000Y275500D01*
X1894000Y275500D01*
X1894000Y270500D01*
X1347500Y162500D02*
X1352500Y162500D01*
X1352500Y167500D01*
X1347500Y167500D01*
X1347500Y162500D01*
X854000Y270500D02*
X859000Y270500D01*
X859000Y275500D01*
X854000Y275500D01*
X854000Y270500D01*
X1374000Y270500D02*
X1379000Y270500D01*
X1379000Y275500D01*
X1374000Y275500D01*
X1374000Y270500D01*
X1418500Y-566000D02*
X1423500Y-566000D01*
X1423500Y-561000D01*
X1418500Y-561000D01*
X1418500Y-566000D01*
X1438000Y-427500D02*
X1443000Y-427500D01*
X1443000Y-422500D01*
X1438000Y-422500D01*
X1438000Y-427500D01*
X398000Y-127750D02*
X403000Y-127750D01*
X403000Y-122750D01*
X398000Y-122750D01*
X398000Y-127750D01*
X918000Y-127750D02*
X923000Y-127750D01*
X923000Y-122750D01*
X918000Y-122750D01*
X918000Y-127750D01*
X1438000Y-127750D02*
X1443000Y-127750D01*
X1443000Y-122750D01*
X1438000Y-122750D01*
X1438000Y-127750D01*
X1958000Y-127750D02*
X1963000Y-127750D01*
X1963000Y-122750D01*
X1958000Y-122750D01*
X1958000Y-127750D01*
X1891000Y-529000D02*
X1896000Y-529000D01*
X1896000Y-524000D01*
X1891000Y-524000D01*
X1891000Y-529000D01*
X918000Y-339500D02*
X923000Y-339500D01*
X923000Y-334500D01*
X918000Y-334500D01*
X918000Y-339500D01*
X1958000Y-341000D02*
X1963000Y-341000D01*
X1963000Y-336000D01*
X1958000Y-336000D01*
X1958000Y-341000D01*
X1437823Y-339677D02*
X1442823Y-339677D01*
X1442823Y-334677D01*
X1437823Y-334677D01*
X1437823Y-339677D01*
X397500Y-337500D02*
X402500Y-337500D01*
X402500Y-332500D01*
X397500Y-332500D01*
X397500Y-337500D01*
X917500Y-39250D02*
X922500Y-39250D01*
X922500Y-34250D01*
X917500Y-34250D01*
X917500Y-39250D01*
X1957500Y-39250D02*
X1962500Y-39250D01*
X1962500Y-34250D01*
X1957500Y-34250D01*
X1957500Y-39250D01*
X1437500Y-39250D02*
X1442500Y-39250D01*
X1442500Y-34250D01*
X1437500Y-34250D01*
X1437500Y-39250D01*
X397500Y-39250D02*
X402500Y-39250D01*
X402500Y-34250D01*
X397500Y-34250D01*
X397500Y-39250D01*
X984000Y327500D02*
X989000Y327500D01*
X989000Y332500D01*
X984000Y332500D01*
X984000Y327500D01*
X2041000Y310000D02*
X2046000Y310000D01*
X2046000Y315000D01*
X2041000Y315000D01*
X2041000Y310000D01*
X1504000Y327500D02*
X1509000Y327500D01*
X1509000Y332500D01*
X1504000Y332500D01*
X1504000Y327500D01*
X464000Y327500D02*
X469000Y327500D01*
X469000Y332500D01*
X464000Y332500D01*
X464000Y327500D01*
X955323Y-332677D02*
X960323Y-332677D01*
X960323Y-327677D01*
X955323Y-327677D01*
X955323Y-332677D01*
X1996000Y-130250D02*
X2001000Y-130250D01*
X2001000Y-125250D01*
X1996000Y-125250D01*
X1996000Y-130250D01*
X1476000Y-130250D02*
X1481000Y-130250D01*
X1481000Y-125250D01*
X1476000Y-125250D01*
X1476000Y-130250D01*
X956000Y-130250D02*
X961000Y-130250D01*
X961000Y-125250D01*
X956000Y-125250D01*
X956000Y-130250D01*
X436000Y-130250D02*
X441000Y-130250D01*
X441000Y-125250D01*
X436000Y-125250D01*
X436000Y-130250D01*
X373000Y478000D02*
X378000Y478000D01*
X378000Y483000D01*
X373000Y483000D01*
X373000Y478000D01*
X892500Y478000D02*
X897500Y478000D01*
X897500Y483000D01*
X892500Y483000D01*
X892500Y478000D01*
X1413000Y478500D02*
X1418000Y478500D01*
X1418000Y483500D01*
X1413000Y483500D01*
X1413000Y478500D01*
X2497315Y493237D02*
X2504350Y500272D01*
X2497315Y507307D01*
X2490280Y500272D01*
X2497315Y493237D01*
X2492870Y591680D02*
X2501760Y591680D01*
X2497315Y599268D01*
X2492870Y591680D01*
X2494840Y694452D02*
X2499790Y689503D01*
X2494840Y689503D02*
X2499790Y694452D01*
X2494815Y785330D02*
X2499815Y785330D01*
X2499815Y790330D01*
X2494815Y790330D01*
X2494815Y785330D01*
G04 ColorRGB 00FFFF for the following layer *
%LNBoard Outline*%
%LPD*%
G54D10*
G54D11*
X-60000Y-759004D02*
X2090000Y-759004D01*
X2090000Y1060996D01*
X-60000Y1060996D01*
X-60000Y-759004D01*
G54D13*
X-137315Y-815816D02*
X-137315Y-622403D01*
X-137315Y-815816D02*
X96098Y-815816D01*
X2196815Y-815816D02*
X1963402Y-815816D01*
X2196815Y-815816D02*
X2196815Y-622403D01*
X2196815Y1118315D02*
X2196815Y924902D01*
X2196815Y1118315D02*
X1963402Y1118315D01*
X-137315Y1118315D02*
X96098Y1118315D01*
X-137315Y1118315D02*
X-137315Y924902D01*
X-187315Y-815816D02*
X-287315Y-815816D01*
X-237315Y-865816D02*
X-237315Y-765816D01*
X-274815Y-815816D02*
G75*
D01*
G02X-274815Y-815816I37500J0*
G01*
X2246815Y-815816D02*
X2346815Y-815816D01*
X2296815Y-865816D02*
X2296815Y-765816D01*
X2259315Y-815816D02*
G75*
D01*
G02X2259315Y-815816I37500J0*
G01*
X2284315Y-815816D02*
G75*
D01*
G02X2284315Y-815816I12500J0*
G01*
X-187315Y1118315D02*
X-287315Y1118315D01*
X-237315Y1068315D02*
X-237315Y1168315D01*
X-274815Y1118315D02*
G75*
D01*
G02X-274815Y1118315I37500J0*
G01*
X-262315Y1118315D02*
G75*
D01*
G02X-262315Y1118315I25000J0*
G01*
X-249815Y1118315D02*
G75*
D01*
G02X-249815Y1118315I12500J0*
G01*
G04 ColorRGB 66FFCC for the following layer *
%LNLegend Description*%
%LPD*%
G54D11*
X2401815Y-26919D02*
X3566815Y-26919D01*
X3566815Y1123315D01*
X2401815Y1123315D01*
X2401815Y-26919D01*
X2592815Y931609D02*
X2592815Y-26919D01*
X2783815Y931609D02*
X2783815Y-26919D01*
X3034815Y931609D02*
X3034815Y-26919D01*
X3225815Y931609D02*
X3225815Y-26919D01*
X3566815Y931609D02*
X3566815Y-26919D01*
X2401815Y68934D02*
X3566815Y68934D01*
X2401815Y164787D02*
X3566815Y164787D01*
X2401815Y260640D02*
X3566815Y260640D01*
X2401815Y356493D02*
X3566815Y356493D01*
X2401815Y452345D02*
X3566815Y452345D01*
X2401815Y548198D02*
X3566815Y548198D01*
X2401815Y644051D02*
X3566815Y644051D01*
X2401815Y739904D02*
X3566815Y739904D01*
X2401815Y835757D02*
X3566815Y835757D01*
X2410648Y879397D02*
X2417315Y875112D01*
X2423982Y875112D01*
X2430648Y879397D01*
X2410648Y892254D01*
X2417315Y896540D01*
X2423982Y896540D01*
X2430648Y892254D01*
X2440648Y868683D02*
X2443982Y868683D01*
X2460648Y890112D01*
X2440648Y890112D02*
X2450648Y877254D01*
X2470648Y875112D02*
X2470648Y887969D01*
X2470648Y890112D01*
X2470648Y887969D02*
X2473982Y890112D01*
X2477315Y890112D01*
X2480648Y887969D01*
X2483982Y890112D01*
X2487315Y890112D01*
X2490648Y887969D01*
X2490648Y875112D01*
X2480648Y887969D02*
X2480648Y875112D01*
X2500648Y879397D02*
X2507315Y875112D01*
X2513982Y875112D01*
X2520648Y879397D01*
X2520648Y883683D01*
X2513982Y887969D01*
X2507315Y887969D01*
X2500648Y883683D01*
X2500648Y896540D02*
X2500648Y875112D01*
X2530648Y879397D02*
X2537315Y875112D01*
X2543982Y875112D01*
X2550648Y879397D01*
X2550648Y885826D01*
X2543982Y890112D01*
X2537315Y890112D01*
X2530648Y885826D01*
X2530648Y879397D01*
X2563982Y896540D02*
X2563982Y879397D01*
X2570648Y875112D01*
X2631648Y879397D02*
X2638315Y875112D01*
X2644982Y875112D01*
X2651648Y879397D01*
X2631648Y892254D01*
X2638315Y896540D01*
X2644982Y896540D01*
X2651648Y892254D01*
X2671648Y875112D02*
X2671648Y887969D01*
X2671648Y892254D02*
X2671648Y894397D01*
X2691648Y890112D02*
X2711648Y890112D01*
X2691648Y875112D01*
X2711648Y875112D01*
X2741648Y879397D02*
X2734982Y875112D01*
X2728315Y875112D01*
X2721648Y879397D01*
X2721648Y885826D01*
X2728315Y890112D01*
X2734982Y890112D01*
X2741648Y885826D01*
X2738315Y883683D01*
X2721648Y883683D01*
X2792648Y879397D02*
X2799315Y875112D01*
X2805982Y875112D01*
X2812648Y879397D01*
X2812648Y892254D01*
X2805982Y896540D01*
X2799315Y896540D01*
X2792648Y892254D01*
X2792648Y879397D01*
X2805982Y879397D02*
X2812648Y875112D01*
X2822648Y890112D02*
X2822648Y879397D01*
X2829315Y875112D01*
X2835982Y875112D01*
X2842648Y879397D01*
X2842648Y890112D01*
X2842648Y879397D02*
X2842648Y875112D01*
X2855982Y890112D02*
X2865982Y890112D01*
X2869315Y887969D01*
X2869315Y877254D01*
X2865982Y875112D01*
X2855982Y875112D01*
X2852648Y877254D01*
X2852648Y881540D01*
X2855982Y883683D01*
X2869315Y883683D01*
X2869315Y877254D02*
X2872648Y875112D01*
X2882648Y875112D02*
X2882648Y887969D01*
X2882648Y890112D01*
X2882648Y887969D02*
X2885982Y890112D01*
X2892648Y890112D01*
X2895982Y887969D01*
X2895982Y875112D01*
X2929315Y877254D02*
X2925982Y875112D01*
X2922648Y877254D01*
X2922648Y896540D01*
X2915982Y890112D02*
X2929315Y890112D01*
X2952648Y875112D02*
X2952648Y887969D01*
X2952648Y892254D02*
X2952648Y894397D01*
X2989315Y877254D02*
X2985982Y875112D01*
X2982648Y877254D01*
X2982648Y896540D01*
X2975982Y890112D02*
X2989315Y890112D01*
X3002648Y868683D02*
X3005982Y868683D01*
X3022648Y890112D01*
X3002648Y890112D02*
X3012648Y877254D01*
X3043648Y875112D02*
X3043648Y896540D01*
X3056982Y896540D01*
X3063648Y892254D01*
X3063648Y890112D01*
X3056982Y885826D01*
X3043648Y885826D01*
X3076982Y896540D02*
X3076982Y879397D01*
X3083648Y875112D01*
X3106982Y890112D02*
X3116982Y890112D01*
X3120315Y887969D01*
X3120315Y877254D01*
X3116982Y875112D01*
X3106982Y875112D01*
X3103648Y877254D01*
X3103648Y881540D01*
X3106982Y883683D01*
X3120315Y883683D01*
X3120315Y877254D02*
X3123648Y875112D01*
X3150315Y877254D02*
X3146982Y875112D01*
X3143648Y877254D01*
X3143648Y896540D01*
X3136982Y890112D02*
X3150315Y890112D01*
X3183648Y879397D02*
X3176982Y875112D01*
X3170315Y875112D01*
X3163648Y879397D01*
X3163648Y885826D01*
X3170315Y890112D01*
X3176982Y890112D01*
X3183648Y885826D01*
X3180315Y883683D01*
X3163648Y883683D01*
X3213648Y879397D02*
X3206982Y875112D01*
X3200315Y875112D01*
X3193648Y879397D01*
X3193648Y883683D01*
X3200315Y887969D01*
X3206982Y887969D01*
X3213648Y883683D01*
X3213648Y896540D02*
X3213648Y875112D01*
X3234648Y879397D02*
X3241315Y875112D01*
X3247982Y875112D01*
X3254648Y879397D01*
X3234648Y892254D01*
X3241315Y896540D01*
X3247982Y896540D01*
X3254648Y892254D01*
X3267982Y896540D02*
X3267982Y879397D01*
X3274648Y875112D01*
X3294648Y879397D02*
X3301315Y875112D01*
X3307982Y875112D01*
X3314648Y879397D01*
X3314648Y885826D01*
X3307982Y890112D01*
X3301315Y890112D01*
X3294648Y885826D01*
X3294648Y879397D01*
X3341315Y877254D02*
X3337982Y875112D01*
X3334648Y877254D01*
X3334648Y896540D01*
X3327982Y890112D02*
X3341315Y890112D01*
X3384648Y896540D02*
X3384648Y875112D01*
X3404648Y875112D01*
X3434648Y879397D02*
X3427982Y875112D01*
X3421315Y875112D01*
X3414648Y879397D01*
X3414648Y885826D01*
X3421315Y890112D01*
X3427982Y890112D01*
X3434648Y885826D01*
X3431315Y883683D01*
X3414648Y883683D01*
X3444648Y875112D02*
X3444648Y887969D01*
X3444648Y890112D01*
X3444648Y887969D02*
X3447982Y890112D01*
X3454648Y890112D01*
X3457982Y887969D01*
X3457982Y875112D01*
X3474648Y872969D02*
X3481315Y868683D01*
X3487982Y868683D01*
X3494648Y872969D01*
X3494648Y879397D01*
X3494648Y885826D01*
X3487982Y890112D01*
X3481315Y890112D01*
X3474648Y885826D01*
X3474648Y879397D01*
X3481315Y875112D01*
X3487982Y875112D01*
X3494648Y879397D01*
X3521315Y877254D02*
X3517982Y875112D01*
X3514648Y877254D01*
X3514648Y896540D01*
X3507982Y890112D02*
X3521315Y890112D01*
X3534648Y885826D02*
X3541315Y890112D01*
X3547982Y890112D01*
X3554648Y885826D01*
X3554648Y875112D01*
X3534648Y896540D02*
X3534648Y875112D01*
X2401815Y931609D02*
X3566815Y931609D01*
X2702648Y970964D02*
X2702648Y983822D01*
X2709315Y992393D01*
X2715982Y992393D01*
X2722648Y983822D01*
X2722648Y970964D01*
X2702648Y977393D02*
X2722648Y977393D01*
X2735982Y992393D02*
X2735982Y975250D01*
X2742648Y970964D01*
X2765982Y992393D02*
X2765982Y975250D01*
X2772648Y970964D01*
X2822648Y985964D02*
X2822648Y975250D01*
X2829315Y970964D01*
X2835982Y970964D01*
X2842648Y975250D01*
X2842648Y985964D01*
X2842648Y975250D02*
X2842648Y970964D01*
X2852648Y970964D02*
X2852648Y983822D01*
X2852648Y985964D01*
X2852648Y983822D02*
X2855982Y985964D01*
X2862648Y985964D01*
X2865982Y983822D01*
X2865982Y970964D01*
X2892648Y970964D02*
X2892648Y983822D01*
X2892648Y988107D02*
X2892648Y990250D01*
X2929315Y973107D02*
X2925982Y970964D01*
X2922648Y973107D01*
X2922648Y992393D01*
X2915982Y985964D02*
X2929315Y985964D01*
X2942648Y975250D02*
X2949315Y970964D01*
X2955982Y970964D01*
X2962648Y975250D01*
X2942648Y981679D01*
X2949315Y985964D01*
X2955982Y985964D01*
X2962648Y981679D01*
X3005982Y985964D02*
X3015982Y985964D01*
X3019315Y983822D01*
X3019315Y973107D01*
X3015982Y970964D01*
X3005982Y970964D01*
X3002648Y973107D01*
X3002648Y977393D01*
X3005982Y979536D01*
X3019315Y979536D01*
X3019315Y973107D02*
X3022648Y970964D01*
X3032648Y979536D02*
X3042648Y985964D01*
X3045982Y985964D01*
X3052648Y981679D01*
X3032648Y970964D02*
X3032648Y985964D01*
X3082648Y975250D02*
X3075982Y970964D01*
X3069315Y970964D01*
X3062648Y975250D01*
X3062648Y981679D01*
X3069315Y985964D01*
X3075982Y985964D01*
X3082648Y981679D01*
X3079315Y979536D01*
X3062648Y979536D01*
X3132648Y970964D02*
X3132648Y983822D01*
X3132648Y988107D02*
X3132648Y990250D01*
X3152648Y970964D02*
X3152648Y983822D01*
X3152648Y985964D01*
X3152648Y983822D02*
X3155982Y985964D01*
X3162648Y985964D01*
X3165982Y983822D01*
X3165982Y970964D01*
X3212648Y970964D02*
X3212648Y983822D01*
X3212648Y985964D01*
X3212648Y983822D02*
X3215982Y985964D01*
X3219315Y985964D01*
X3222648Y983822D01*
X3225982Y985964D01*
X3229315Y985964D01*
X3232648Y983822D01*
X3232648Y970964D01*
X3222648Y983822D02*
X3222648Y970964D01*
X3242648Y970964D02*
X3242648Y983822D01*
X3242648Y985964D01*
X3242648Y983822D02*
X3245982Y985964D01*
X3249315Y985964D01*
X3252648Y983822D01*
X3255982Y985964D01*
X3259315Y985964D01*
X3262648Y983822D01*
X3262648Y970964D01*
X3252648Y983822D02*
X3252648Y970964D01*
X2401815Y1027462D02*
X3566815Y1027462D01*
X2807648Y1066817D02*
X2820982Y1066817D01*
X2827648Y1071103D01*
X2827648Y1083960D01*
X2820982Y1088246D01*
X2807648Y1088246D01*
X2810982Y1088246D02*
X2810982Y1066817D01*
X2837648Y1075389D02*
X2847648Y1081817D01*
X2850982Y1081817D01*
X2857648Y1077531D01*
X2837648Y1066817D02*
X2837648Y1081817D01*
X2877648Y1066817D02*
X2877648Y1079674D01*
X2877648Y1083960D02*
X2877648Y1086103D01*
X2900982Y1088246D02*
X2900982Y1071103D01*
X2907648Y1066817D01*
X2930982Y1088246D02*
X2930982Y1071103D01*
X2937648Y1066817D01*
X2987648Y1088246D02*
X2987648Y1066817D01*
X3007648Y1066817D01*
X3037648Y1071103D02*
X3030982Y1066817D01*
X3024315Y1066817D01*
X3017648Y1071103D01*
X3017648Y1077531D01*
X3024315Y1081817D01*
X3030982Y1081817D01*
X3037648Y1077531D01*
X3034315Y1075389D01*
X3017648Y1075389D01*
X3047648Y1064674D02*
X3054315Y1060389D01*
X3060982Y1060389D01*
X3067648Y1064674D01*
X3067648Y1071103D01*
X3067648Y1077531D01*
X3060982Y1081817D01*
X3054315Y1081817D01*
X3047648Y1077531D01*
X3047648Y1071103D01*
X3054315Y1066817D01*
X3060982Y1066817D01*
X3067648Y1071103D01*
X3097648Y1071103D02*
X3090982Y1066817D01*
X3084315Y1066817D01*
X3077648Y1071103D01*
X3077648Y1077531D01*
X3084315Y1081817D01*
X3090982Y1081817D01*
X3097648Y1077531D01*
X3094315Y1075389D01*
X3077648Y1075389D01*
X3107648Y1066817D02*
X3107648Y1079674D01*
X3107648Y1081817D01*
X3107648Y1079674D02*
X3110982Y1081817D01*
X3117648Y1081817D01*
X3120982Y1079674D01*
X3120982Y1066817D01*
X3157648Y1071103D02*
X3150982Y1066817D01*
X3144315Y1066817D01*
X3137648Y1071103D01*
X3137648Y1075389D01*
X3144315Y1079674D01*
X3150982Y1079674D01*
X3157648Y1075389D01*
X3157648Y1088246D02*
X3157648Y1066817D01*

M02*
