G04 Generated by Ultiboard 13.0 *
%FSLAX34Y34*%
%MOMM*%

%ADD11C,0.1000*%
%ADD12C,0.1270*%


G04 ColorRGB 00FFFF for the following layer *
%LNBoard Outline*%
%LPD*%
G54D10*
G54D11*
X-60000Y-759004D02*
X2090000Y-759004D01*
X2090000Y1060996D01*
X-60000Y1060996D01*
X-60000Y-759004D01*
G54D12*
X-137315Y-815816D02*
X-137315Y-622403D01*
X-137315Y-815816D02*
X96098Y-815816D01*
X2196815Y-815816D02*
X1963402Y-815816D01*
X2196815Y-815816D02*
X2196815Y-622403D01*
X2196815Y1118315D02*
X2196815Y924902D01*
X2196815Y1118315D02*
X1963402Y1118315D01*
X-137315Y1118315D02*
X96098Y1118315D01*
X-137315Y1118315D02*
X-137315Y924902D01*
X-187315Y-815816D02*
X-287315Y-815816D01*
X-237315Y-865816D02*
X-237315Y-765816D01*
X-274815Y-815816D02*
G75*
D01*
G02X-274815Y-815816I37500J0*
G01*
X2246815Y-815816D02*
X2346815Y-815816D01*
X2296815Y-865816D02*
X2296815Y-765816D01*
X2259315Y-815816D02*
G75*
D01*
G02X2259315Y-815816I37500J0*
G01*
X2284315Y-815816D02*
G75*
D01*
G02X2284315Y-815816I12500J0*
G01*
X-187315Y1118315D02*
X-287315Y1118315D01*
X-237315Y1068315D02*
X-237315Y1168315D01*
X-274815Y1118315D02*
G75*
D01*
G02X-274815Y1118315I37500J0*
G01*
X-262315Y1118315D02*
G75*
D01*
G02X-262315Y1118315I25000J0*
G01*
X-249815Y1118315D02*
G75*
D01*
G02X-249815Y1118315I12500J0*
G01*

M02*
