G04 Generated by Ultiboard 13.0 *
%FSLAX34Y34*%
%MOMM*%

%ADD11C,3.0000*%
%ADD12C,0.7000*%
%ADD13C,2.3500*%
%ADD14C,0.5000*%
%ADD15C,0.9949*%
%ADD16C,0.8890*%
%ADD17C,1.1810*%
%ADD18C,1.1006*%
%ADD19C,6.0000*%


G04 ColorRGB 000000 for the following layer *
%LNDrill-Copper Top-Copper Bottom*%
%LPD*%
G54D11*
X1290000Y890000D03*
X921688Y900000D03*
X1642013Y890000D03*
X1846938Y890000D03*
X1117838Y900000D03*
X864276Y-661790D03*
X1023671Y-661790D03*
X1183066Y-661790D03*
X1342460Y-661790D03*
X1500605Y-660540D03*
X1660000Y-660540D03*
X1819395Y-660540D03*
X1980040Y-665460D03*
G54D12*
X137195Y641445D03*
X147195Y621445D03*
X157195Y641445D03*
X167195Y621445D03*
X177195Y641445D03*
X187195Y621445D03*
X197195Y641445D03*
X207195Y621445D03*
X217195Y641445D03*
X267195Y621445D03*
X247195Y621445D03*
X257195Y641445D03*
X287195Y621445D03*
X277195Y641445D03*
X307195Y621445D03*
X297195Y641445D03*
X117195Y666445D03*
X137195Y666445D03*
X157195Y666445D03*
X177195Y666445D03*
X197195Y666445D03*
X217195Y666445D03*
X257195Y666445D03*
X277195Y666445D03*
X297195Y666445D03*
X127195Y686445D03*
X147195Y686445D03*
X167195Y686445D03*
X187195Y686445D03*
X207195Y686445D03*
X247195Y686445D03*
X267195Y686445D03*
X287195Y686445D03*
X307195Y686445D03*
X117195Y641445D03*
X127195Y621445D03*
X137195Y41445D03*
X147195Y21445D03*
X157195Y41445D03*
X167195Y21445D03*
X177195Y41445D03*
X187195Y21445D03*
X197195Y41445D03*
X207195Y21445D03*
X217195Y41445D03*
X267195Y21445D03*
X247195Y21445D03*
X257195Y41445D03*
X287195Y21445D03*
X277195Y41445D03*
X307195Y21445D03*
X297195Y41445D03*
X117195Y66445D03*
X137195Y66445D03*
X157195Y66445D03*
X177195Y66445D03*
X197195Y66445D03*
X217195Y66445D03*
X257195Y66445D03*
X277195Y66445D03*
X297195Y66445D03*
X127195Y86445D03*
X147195Y86445D03*
X167195Y86445D03*
X187195Y86445D03*
X207195Y86445D03*
X247195Y86445D03*
X267195Y86445D03*
X287195Y86445D03*
X307195Y86445D03*
X117195Y41445D03*
X127195Y21445D03*
X137195Y341445D03*
X147195Y321445D03*
X157195Y341445D03*
X167195Y321445D03*
X177195Y341445D03*
X187195Y321445D03*
X197195Y341445D03*
X207195Y321445D03*
X217195Y341445D03*
X267195Y321445D03*
X247195Y321445D03*
X257195Y341445D03*
X287195Y321445D03*
X277195Y341445D03*
X307195Y321445D03*
X297195Y341445D03*
X117195Y366445D03*
X137195Y366445D03*
X157195Y366445D03*
X177195Y366445D03*
X197195Y366445D03*
X217195Y366445D03*
X257195Y366445D03*
X277195Y366445D03*
X297195Y366445D03*
X127195Y386445D03*
X147195Y386445D03*
X167195Y386445D03*
X187195Y386445D03*
X207195Y386445D03*
X247195Y386445D03*
X267195Y386445D03*
X287195Y386445D03*
X307195Y386445D03*
X117195Y341445D03*
X127195Y321445D03*
X137195Y-258555D03*
X147195Y-278555D03*
X157195Y-258555D03*
X167195Y-278555D03*
X177195Y-258555D03*
X187195Y-278555D03*
X197195Y-258555D03*
X207195Y-278555D03*
X217195Y-258555D03*
X267195Y-278555D03*
X247195Y-278555D03*
X257195Y-258555D03*
X287195Y-278555D03*
X277195Y-258555D03*
X307195Y-278555D03*
X297195Y-258555D03*
X117195Y-233555D03*
X137195Y-233555D03*
X157195Y-233555D03*
X177195Y-233555D03*
X197195Y-233555D03*
X217195Y-233555D03*
X257195Y-233555D03*
X277195Y-233555D03*
X297195Y-233555D03*
X127195Y-213555D03*
X147195Y-213555D03*
X167195Y-213555D03*
X187195Y-213555D03*
X207195Y-213555D03*
X247195Y-213555D03*
X267195Y-213555D03*
X287195Y-213555D03*
X307195Y-213555D03*
X117195Y-258555D03*
X127195Y-278555D03*
X657195Y641445D03*
X667195Y621445D03*
X677195Y641445D03*
X687195Y621445D03*
X697195Y641445D03*
X707195Y621445D03*
X717195Y641445D03*
X727195Y621445D03*
X737195Y641445D03*
X787195Y621445D03*
X767195Y621445D03*
X777195Y641445D03*
X807195Y621445D03*
X797195Y641445D03*
X827195Y621445D03*
X817195Y641445D03*
X637195Y666445D03*
X657195Y666445D03*
X677195Y666445D03*
X697195Y666445D03*
X717195Y666445D03*
X737195Y666445D03*
X777195Y666445D03*
X797195Y666445D03*
X817195Y666445D03*
X647195Y686445D03*
X667195Y686445D03*
X687195Y686445D03*
X707195Y686445D03*
X727195Y686445D03*
X767195Y686445D03*
X787195Y686445D03*
X807195Y686445D03*
X827195Y686445D03*
X637195Y641445D03*
X647195Y621445D03*
X657195Y341445D03*
X667195Y321445D03*
X677195Y341445D03*
X687195Y321445D03*
X697195Y341445D03*
X707195Y321445D03*
X717195Y341445D03*
X727195Y321445D03*
X737195Y341445D03*
X787195Y321445D03*
X767195Y321445D03*
X777195Y341445D03*
X807195Y321445D03*
X797195Y341445D03*
X827195Y321445D03*
X817195Y341445D03*
X637195Y366445D03*
X657195Y366445D03*
X677195Y366445D03*
X697195Y366445D03*
X717195Y366445D03*
X737195Y366445D03*
X777195Y366445D03*
X797195Y366445D03*
X817195Y366445D03*
X647195Y386445D03*
X667195Y386445D03*
X687195Y386445D03*
X707195Y386445D03*
X727195Y386445D03*
X767195Y386445D03*
X787195Y386445D03*
X807195Y386445D03*
X827195Y386445D03*
X637195Y341445D03*
X647195Y321445D03*
X657195Y41445D03*
X667195Y21445D03*
X677195Y41445D03*
X687195Y21445D03*
X697195Y41445D03*
X707195Y21445D03*
X717195Y41445D03*
X727195Y21445D03*
X737195Y41445D03*
X787195Y21445D03*
X767195Y21445D03*
X777195Y41445D03*
X807195Y21445D03*
X797195Y41445D03*
X827195Y21445D03*
X817195Y41445D03*
X637195Y66445D03*
X657195Y66445D03*
X677195Y66445D03*
X697195Y66445D03*
X717195Y66445D03*
X737195Y66445D03*
X777195Y66445D03*
X797195Y66445D03*
X817195Y66445D03*
X647195Y86445D03*
X667195Y86445D03*
X687195Y86445D03*
X707195Y86445D03*
X727195Y86445D03*
X767195Y86445D03*
X787195Y86445D03*
X807195Y86445D03*
X827195Y86445D03*
X637195Y41445D03*
X647195Y21445D03*
X657195Y-258555D03*
X667195Y-278555D03*
X677195Y-258555D03*
X687195Y-278555D03*
X697195Y-258555D03*
X707195Y-278555D03*
X717195Y-258555D03*
X727195Y-278555D03*
X737195Y-258555D03*
X787195Y-278555D03*
X767195Y-278555D03*
X777195Y-258555D03*
X807195Y-278555D03*
X797195Y-258555D03*
X827195Y-278555D03*
X817195Y-258555D03*
X637195Y-233555D03*
X657195Y-233555D03*
X677195Y-233555D03*
X697195Y-233555D03*
X717195Y-233555D03*
X737195Y-233555D03*
X777195Y-233555D03*
X797195Y-233555D03*
X817195Y-233555D03*
X647195Y-213555D03*
X667195Y-213555D03*
X687195Y-213555D03*
X707195Y-213555D03*
X727195Y-213555D03*
X767195Y-213555D03*
X787195Y-213555D03*
X807195Y-213555D03*
X827195Y-213555D03*
X637195Y-258555D03*
X647195Y-278555D03*
X1177195Y341445D03*
X1187195Y321445D03*
X1197195Y341445D03*
X1207195Y321445D03*
X1217195Y341445D03*
X1227195Y321445D03*
X1237195Y341445D03*
X1247195Y321445D03*
X1257195Y341445D03*
X1307195Y321445D03*
X1287195Y321445D03*
X1297195Y341445D03*
X1327195Y321445D03*
X1317195Y341445D03*
X1347195Y321445D03*
X1337195Y341445D03*
X1157195Y366445D03*
X1177195Y366445D03*
X1197195Y366445D03*
X1217195Y366445D03*
X1237195Y366445D03*
X1257195Y366445D03*
X1297195Y366445D03*
X1317195Y366445D03*
X1337195Y366445D03*
X1167195Y386445D03*
X1187195Y386445D03*
X1207195Y386445D03*
X1227195Y386445D03*
X1247195Y386445D03*
X1287195Y386445D03*
X1307195Y386445D03*
X1327195Y386445D03*
X1347195Y386445D03*
X1157195Y341445D03*
X1167195Y321445D03*
X1177195Y41445D03*
X1187195Y21445D03*
X1197195Y41445D03*
X1207195Y21445D03*
X1217195Y41445D03*
X1227195Y21445D03*
X1237195Y41445D03*
X1247195Y21445D03*
X1257195Y41445D03*
X1307195Y21445D03*
X1287195Y21445D03*
X1297195Y41445D03*
X1327195Y21445D03*
X1317195Y41445D03*
X1347195Y21445D03*
X1337195Y41445D03*
X1157195Y66445D03*
X1177195Y66445D03*
X1197195Y66445D03*
X1217195Y66445D03*
X1237195Y66445D03*
X1257195Y66445D03*
X1297195Y66445D03*
X1317195Y66445D03*
X1337195Y66445D03*
X1167195Y86445D03*
X1187195Y86445D03*
X1207195Y86445D03*
X1227195Y86445D03*
X1247195Y86445D03*
X1287195Y86445D03*
X1307195Y86445D03*
X1327195Y86445D03*
X1347195Y86445D03*
X1157195Y41445D03*
X1167195Y21445D03*
X1177195Y-258555D03*
X1187195Y-278555D03*
X1197195Y-258555D03*
X1207195Y-278555D03*
X1217195Y-258555D03*
X1227195Y-278555D03*
X1237195Y-258555D03*
X1247195Y-278555D03*
X1257195Y-258555D03*
X1307195Y-278555D03*
X1287195Y-278555D03*
X1297195Y-258555D03*
X1327195Y-278555D03*
X1317195Y-258555D03*
X1347195Y-278555D03*
X1337195Y-258555D03*
X1157195Y-233555D03*
X1177195Y-233555D03*
X1197195Y-233555D03*
X1217195Y-233555D03*
X1237195Y-233555D03*
X1257195Y-233555D03*
X1297195Y-233555D03*
X1317195Y-233555D03*
X1337195Y-233555D03*
X1167195Y-213555D03*
X1187195Y-213555D03*
X1207195Y-213555D03*
X1227195Y-213555D03*
X1247195Y-213555D03*
X1287195Y-213555D03*
X1307195Y-213555D03*
X1327195Y-213555D03*
X1347195Y-213555D03*
X1157195Y-258555D03*
X1167195Y-278555D03*
X1177195Y641445D03*
X1187195Y621445D03*
X1197195Y641445D03*
X1207195Y621445D03*
X1217195Y641445D03*
X1227195Y621445D03*
X1237195Y641445D03*
X1247195Y621445D03*
X1257195Y641445D03*
X1307195Y621445D03*
X1287195Y621445D03*
X1297195Y641445D03*
X1327195Y621445D03*
X1317195Y641445D03*
X1347195Y621445D03*
X1337195Y641445D03*
X1157195Y666445D03*
X1177195Y666445D03*
X1197195Y666445D03*
X1217195Y666445D03*
X1237195Y666445D03*
X1257195Y666445D03*
X1297195Y666445D03*
X1317195Y666445D03*
X1337195Y666445D03*
X1167195Y686445D03*
X1187195Y686445D03*
X1207195Y686445D03*
X1227195Y686445D03*
X1247195Y686445D03*
X1287195Y686445D03*
X1307195Y686445D03*
X1327195Y686445D03*
X1347195Y686445D03*
X1157195Y641445D03*
X1167195Y621445D03*
X1697195Y341445D03*
X1707195Y321445D03*
X1717195Y341445D03*
X1727195Y321445D03*
X1737195Y341445D03*
X1747195Y321445D03*
X1757195Y341445D03*
X1767195Y321445D03*
X1777195Y341445D03*
X1827195Y321445D03*
X1807195Y321445D03*
X1817195Y341445D03*
X1847195Y321445D03*
X1837195Y341445D03*
X1867195Y321445D03*
X1857195Y341445D03*
X1677195Y366445D03*
X1697195Y366445D03*
X1717195Y366445D03*
X1737195Y366445D03*
X1757195Y366445D03*
X1777195Y366445D03*
X1817195Y366445D03*
X1837195Y366445D03*
X1857195Y366445D03*
X1687195Y386445D03*
X1707195Y386445D03*
X1727195Y386445D03*
X1747195Y386445D03*
X1767195Y386445D03*
X1807195Y386445D03*
X1827195Y386445D03*
X1847195Y386445D03*
X1867195Y386445D03*
X1677195Y341445D03*
X1687195Y321445D03*
X1697195Y41445D03*
X1707195Y21445D03*
X1717195Y41445D03*
X1727195Y21445D03*
X1737195Y41445D03*
X1747195Y21445D03*
X1757195Y41445D03*
X1767195Y21445D03*
X1777195Y41445D03*
X1827195Y21445D03*
X1807195Y21445D03*
X1817195Y41445D03*
X1847195Y21445D03*
X1837195Y41445D03*
X1867195Y21445D03*
X1857195Y41445D03*
X1677195Y66445D03*
X1697195Y66445D03*
X1717195Y66445D03*
X1737195Y66445D03*
X1757195Y66445D03*
X1777195Y66445D03*
X1817195Y66445D03*
X1837195Y66445D03*
X1857195Y66445D03*
X1687195Y86445D03*
X1707195Y86445D03*
X1727195Y86445D03*
X1747195Y86445D03*
X1767195Y86445D03*
X1807195Y86445D03*
X1827195Y86445D03*
X1847195Y86445D03*
X1867195Y86445D03*
X1677195Y41445D03*
X1687195Y21445D03*
X1697195Y-258555D03*
X1707195Y-278555D03*
X1717195Y-258555D03*
X1727195Y-278555D03*
X1737195Y-258555D03*
X1747195Y-278555D03*
X1757195Y-258555D03*
X1767195Y-278555D03*
X1777195Y-258555D03*
X1827195Y-278555D03*
X1807195Y-278555D03*
X1817195Y-258555D03*
X1847195Y-278555D03*
X1837195Y-258555D03*
X1867195Y-278555D03*
X1857195Y-258555D03*
X1677195Y-233555D03*
X1697195Y-233555D03*
X1717195Y-233555D03*
X1737195Y-233555D03*
X1757195Y-233555D03*
X1777195Y-233555D03*
X1817195Y-233555D03*
X1837195Y-233555D03*
X1857195Y-233555D03*
X1687195Y-213555D03*
X1707195Y-213555D03*
X1727195Y-213555D03*
X1747195Y-213555D03*
X1767195Y-213555D03*
X1807195Y-213555D03*
X1827195Y-213555D03*
X1847195Y-213555D03*
X1867195Y-213555D03*
X1677195Y-258555D03*
X1687195Y-278555D03*
X1697195Y641445D03*
X1707195Y621445D03*
X1717195Y641445D03*
X1727195Y621445D03*
X1737195Y641445D03*
X1747195Y621445D03*
X1757195Y641445D03*
X1767195Y621445D03*
X1777195Y641445D03*
X1827195Y621445D03*
X1807195Y621445D03*
X1817195Y641445D03*
X1847195Y621445D03*
X1837195Y641445D03*
X1867195Y621445D03*
X1857195Y641445D03*
X1677195Y666445D03*
X1697195Y666445D03*
X1717195Y666445D03*
X1737195Y666445D03*
X1757195Y666445D03*
X1777195Y666445D03*
X1817195Y666445D03*
X1837195Y666445D03*
X1857195Y666445D03*
X1687195Y686445D03*
X1707195Y686445D03*
X1727195Y686445D03*
X1747195Y686445D03*
X1767195Y686445D03*
X1807195Y686445D03*
X1827195Y686445D03*
X1847195Y686445D03*
X1867195Y686445D03*
X1677195Y641445D03*
X1687195Y621445D03*
G54D13*
X233695Y653945D03*
X325195Y653945D03*
X233695Y53945D03*
X325195Y53945D03*
X233695Y353945D03*
X325195Y353945D03*
X233695Y-246055D03*
X325195Y-246055D03*
X753695Y653945D03*
X845195Y653945D03*
X753695Y353945D03*
X845195Y353945D03*
X753695Y53945D03*
X845195Y53945D03*
X753695Y-246055D03*
X845195Y-246055D03*
X1273695Y353945D03*
X1365195Y353945D03*
X1273695Y53945D03*
X1365195Y53945D03*
X1273695Y-246055D03*
X1365195Y-246055D03*
X1273695Y653945D03*
X1365195Y653945D03*
X1793695Y353945D03*
X1885195Y353945D03*
X1793695Y53945D03*
X1885195Y53945D03*
X1793695Y-246055D03*
X1885195Y-246055D03*
X1793695Y653945D03*
X1885195Y653945D03*
G54D14*
X39000Y718500D03*
X113000Y804500D03*
X127000Y906000D03*
X232000Y892500D03*
X666000Y747000D03*
X374000Y794000D03*
X116500Y-429500D03*
X240000Y-428000D03*
X400500Y-424000D03*
X105500Y-332500D03*
X141000Y-312500D03*
X419000Y-317500D03*
X438000Y-330500D03*
X240500Y-310500D03*
X391000Y-304500D03*
X7000Y-281000D03*
X-15000Y-128500D03*
X116500Y-129500D03*
X105500Y-32500D03*
X239500Y-35000D03*
X278000Y-32500D03*
X141000Y-12500D03*
X266500Y-12500D03*
X335041Y-27000D03*
X446000Y-18500D03*
X230000Y-500D03*
X252000Y-5000D03*
X387000Y-2500D03*
X395500Y28500D03*
X353500Y49000D03*
X429000Y85000D03*
X438000Y96500D03*
X462000Y106000D03*
X401000Y112500D03*
X421500Y143500D03*
X116500Y170500D03*
X240000Y172000D03*
X400500Y176000D03*
X438000Y171000D03*
X105500Y267500D03*
X266500Y266000D03*
X279500Y266500D03*
X141000Y287500D03*
X419000Y282500D03*
X438000Y269500D03*
X240500Y289500D03*
X391000Y295500D03*
X7000Y319000D03*
X375500Y363000D03*
X292000Y465500D03*
X116500Y470500D03*
X400500Y475000D03*
X438000Y472000D03*
X105500Y567500D03*
X278000Y567500D03*
X400500Y563000D03*
X438500Y563000D03*
X141000Y587500D03*
X425000Y573000D03*
X247500Y589000D03*
X636500Y-429500D03*
X920500Y-424000D03*
X958000Y-429000D03*
X536695Y-347055D03*
X625500Y-332500D03*
X773500Y-334000D03*
X661000Y-312500D03*
X939000Y-317500D03*
X760500Y-310500D03*
X911000Y-304500D03*
X527000Y-281000D03*
X505000Y-128500D03*
X636500Y-129500D03*
X536695Y-47055D03*
X625500Y-32500D03*
X759500Y-35000D03*
X773500Y-34000D03*
X798000Y-32500D03*
X933000Y-33000D03*
X661000Y-12500D03*
X786500Y-12500D03*
X855041Y-27000D03*
X966000Y-18500D03*
X750000Y-500D03*
X772000Y-5000D03*
X907000Y-2500D03*
X915500Y28500D03*
X873500Y49000D03*
X949000Y85000D03*
X958000Y96500D03*
X982000Y106000D03*
X921000Y112500D03*
X941500Y143500D03*
X636500Y170500D03*
X760000Y172000D03*
X920500Y176000D03*
X958000Y171000D03*
X536695Y252945D03*
X625500Y267500D03*
X773500Y266000D03*
X786500Y266000D03*
X799500Y266500D03*
X661000Y287500D03*
X939000Y282500D03*
X929500Y272500D03*
X958000Y269500D03*
X760500Y289500D03*
X911000Y295500D03*
X527000Y319000D03*
X885500Y348500D03*
X895500Y363000D03*
X812000Y465500D03*
X636500Y470500D03*
X920500Y475000D03*
X958000Y472000D03*
X536695Y552945D03*
X625500Y567500D03*
X759500Y565000D03*
X773500Y566000D03*
X798000Y567500D03*
X920500Y563000D03*
X933000Y567000D03*
X958500Y563000D03*
X661000Y587500D03*
X945000Y573000D03*
X767500Y589000D03*
X882500Y626000D03*
X1676500Y-429500D03*
X1800000Y-428000D03*
X1960500Y-424000D03*
X1998000Y-429000D03*
X1576695Y-347055D03*
X1665500Y-332500D03*
X1813500Y-334000D03*
X1828500Y-333500D03*
X1701000Y-312500D03*
X1998000Y-330500D03*
X1800500Y-310500D03*
X1951000Y-304500D03*
X1567000Y-281000D03*
X1545000Y-128500D03*
X1676500Y-129500D03*
X1576695Y-47055D03*
X1665500Y-32500D03*
X1799500Y-35000D03*
X1813500Y-34000D03*
X1838000Y-32500D03*
X1973000Y-33000D03*
X1701000Y-12500D03*
X1826500Y-12500D03*
X1895041Y-27000D03*
X2006000Y-18500D03*
X1790000Y-500D03*
X1812000Y-5000D03*
X1947000Y-2500D03*
X1913500Y49000D03*
X1989000Y85000D03*
X1998000Y96500D03*
X2022000Y106000D03*
X1961000Y112500D03*
X1981500Y143500D03*
X1676500Y170500D03*
X1800000Y172000D03*
X1960500Y176000D03*
X1998000Y171000D03*
X1576695Y252945D03*
X1665500Y267500D03*
X1813500Y266000D03*
X1826500Y266000D03*
X1839500Y266500D03*
X1701000Y287500D03*
X1979000Y282500D03*
X1969500Y272500D03*
X1998000Y269500D03*
X1800500Y289500D03*
X1951000Y295500D03*
X1567000Y319000D03*
X1925500Y348500D03*
X1935500Y363000D03*
X1852000Y465500D03*
X1676500Y470500D03*
X1960500Y475000D03*
X1998000Y472000D03*
X1576695Y552945D03*
X1665500Y567500D03*
X1799500Y565000D03*
X1813500Y566000D03*
X1838000Y567500D03*
X1960500Y563000D03*
X1973000Y567000D03*
X1998500Y563000D03*
X1701000Y587500D03*
X1985000Y573000D03*
X1807500Y589000D03*
X1922500Y626000D03*
X1156500Y-429500D03*
X1280000Y-428000D03*
X1478000Y-429000D03*
X1056695Y-347055D03*
X1145500Y-332500D03*
X1293500Y-334000D03*
X1308500Y-333500D03*
X1181000Y-312500D03*
X1459000Y-317500D03*
X1478000Y-330500D03*
X1280500Y-310500D03*
X1431000Y-304500D03*
X1047000Y-281000D03*
X1025000Y-128500D03*
X1156500Y-129500D03*
X1056695Y-47055D03*
X1145500Y-32500D03*
X1279500Y-35000D03*
X1293500Y-34000D03*
X1318000Y-32500D03*
X1453000Y-33000D03*
X1181000Y-12500D03*
X1306500Y-12500D03*
X1375041Y-27000D03*
X1486000Y-18500D03*
X1270000Y-500D03*
X1292000Y-5000D03*
X1427000Y-2500D03*
X1435500Y28500D03*
X1393500Y49000D03*
X1469000Y85000D03*
X1478000Y96500D03*
X1502000Y106000D03*
X1441000Y112500D03*
X1461500Y143500D03*
X1156500Y170500D03*
X1280000Y172000D03*
X1440500Y176000D03*
X1478000Y171000D03*
X1056695Y252945D03*
X1145500Y267500D03*
X1293500Y266000D03*
X1306500Y266000D03*
X1319500Y266500D03*
X1181000Y287500D03*
X1459000Y282500D03*
X1449500Y272500D03*
X1478000Y269500D03*
X1280500Y289500D03*
X1431000Y295500D03*
X1047000Y319000D03*
X1405500Y348500D03*
X1415500Y363000D03*
X1332000Y465500D03*
X1156500Y470500D03*
X1440500Y475000D03*
X1478000Y472000D03*
X1056695Y552945D03*
X1145500Y567500D03*
X1279500Y565000D03*
X1293500Y566000D03*
X1318000Y567500D03*
X1440500Y563000D03*
X1453000Y567000D03*
X1478500Y563000D03*
X1181000Y587500D03*
X1465000Y573000D03*
X1287500Y589000D03*
X1402500Y626000D03*
X1675000Y-482000D03*
X1154500Y-482000D03*
X659500Y-494000D03*
X352500Y-493000D03*
X631000Y-505500D03*
X973500Y-504500D03*
X266500Y-331000D03*
X408500Y-447000D03*
X463500Y-447000D03*
X438000Y-427000D03*
X790000Y-513500D03*
X760000Y-428000D03*
X856000Y-590500D03*
X806000Y-520000D03*
X880500Y-581000D03*
X828500Y-519500D03*
X16695Y-347055D03*
X253500Y-334000D03*
X16695Y-47055D03*
X253500Y-34000D03*
X413000Y-33000D03*
X16695Y252945D03*
X253500Y266000D03*
X409500Y272500D03*
X365500Y348500D03*
X16695Y552945D03*
X253500Y566000D03*
X413000Y567000D03*
X362500Y626000D03*
X403000Y-315000D03*
X788500Y-333500D03*
X898000Y-571000D03*
X845500Y-519500D03*
X924000Y-320000D03*
X918000Y-553500D03*
X906500Y-519500D03*
X944500Y-563000D03*
X921000Y-515500D03*
X953000Y-543500D03*
X940500Y-517500D03*
X832000Y-601500D03*
X1966500Y-320500D03*
X1751000Y-523000D03*
X1477000Y-543500D03*
X1456500Y-513500D03*
X1415500Y-518000D03*
X1398500Y-553500D03*
X1384000Y-519500D03*
X1295500Y-571000D03*
X1285000Y-523500D03*
X1224000Y-580500D03*
X1261500Y-522000D03*
X1174500Y-514500D03*
X1060000Y-588500D03*
X427500Y849500D03*
X1182000Y708500D03*
X1459500Y744500D03*
X1330500Y775500D03*
X1509000Y728500D03*
X1717000Y727000D03*
X602000Y923000D03*
X2028000Y-327500D03*
X1864000Y-418500D03*
X2029500Y-21000D03*
X733000Y894500D03*
X2021500Y277000D03*
X788000Y835500D03*
X2024500Y569500D03*
X1712500Y-418500D03*
X1192000Y-419000D03*
X1344000Y-418000D03*
X1344000Y-118000D03*
X1344000Y182000D03*
X823500Y481000D03*
X824000Y182000D03*
X824000Y-117500D03*
X824000Y-417500D03*
X304000Y481000D03*
X303500Y182500D03*
X303500Y-118500D03*
X304000Y-418000D03*
X1713000Y-105500D03*
X1775500Y-119500D03*
X1776500Y179500D03*
X1715500Y193500D03*
X1776500Y479500D03*
X1714000Y493500D03*
X1255500Y-119500D03*
X1195500Y-105500D03*
X1255000Y179000D03*
X1196000Y193000D03*
X1255000Y478500D03*
X1192500Y492500D03*
X735000Y481500D03*
X672500Y495500D03*
X736000Y180500D03*
X675500Y194500D03*
X735500Y-121000D03*
X675500Y-107000D03*
X735000Y-421000D03*
X672500Y-407000D03*
X215000Y-420500D03*
X152500Y-406500D03*
X216000Y-120500D03*
X155500Y-106500D03*
X216500Y178000D03*
X155500Y192000D03*
X214000Y479000D03*
X151500Y493000D03*
X781500Y822000D03*
X1092500Y580500D03*
X751000Y873500D03*
X1092500Y275000D03*
X640000Y752500D03*
X588500Y922500D03*
X564000Y916500D03*
X1092500Y-22000D03*
X581000Y898000D03*
X1091500Y-318500D03*
X559000Y860500D03*
X725500Y860500D03*
X729000Y809500D03*
X652500Y748500D03*
X588500Y720000D03*
X573500Y580500D03*
X575500Y731000D03*
X526500Y417000D03*
X504000Y152000D03*
X573500Y-15500D03*
X499500Y801500D03*
X500000Y129000D03*
X572500Y-310500D03*
X1344500Y480500D03*
X1865000Y480500D03*
X1935000Y480500D03*
X1866000Y181000D03*
X1865500Y-119000D03*
X1933000Y-121000D03*
X733500Y848500D03*
X726000Y781000D03*
X601000Y718000D03*
X585000Y676000D03*
X463500Y567000D03*
X602500Y663000D03*
X469000Y273500D03*
X510500Y604000D03*
X472500Y-24500D03*
X558000Y847500D03*
X528000Y771500D03*
X527000Y600000D03*
X468000Y-323000D03*
X1809500Y-521000D03*
X1856500Y-523500D03*
X1836000Y-523000D03*
X1921000Y-511500D03*
X1929000Y-531500D03*
X520000Y-505500D03*
X1964000Y26500D03*
X1976500Y-303000D03*
X239500Y560500D03*
X1125500Y-523000D03*
X1830000Y450500D03*
X1310000Y445500D03*
X269000Y442500D03*
X788500Y142000D03*
X1310000Y145000D03*
X1830000Y143500D03*
X269000Y-159500D03*
X790000Y-161000D03*
X1309000Y-162000D03*
X1830000Y-160000D03*
X1834500Y-454000D03*
X1668500Y-452000D03*
X1302000Y-456000D03*
X1148500Y-451000D03*
X793000Y-450000D03*
X628500Y-449000D03*
X105000Y-448500D03*
X1676500Y-184500D03*
X1674000Y130000D03*
X1157500Y122000D03*
X114000Y122000D03*
X1156000Y-183500D03*
X116000Y414000D03*
X635000Y418500D03*
X1156000Y416000D03*
X1676500Y417500D03*
X573500Y637500D03*
X456500Y868250D03*
X1540000Y647500D03*
X1038500Y758500D03*
X1118000Y28000D03*
X1055000Y61500D03*
X1117500Y-188000D03*
X1110000Y-271500D03*
X1063500Y-226000D03*
X535500Y-238000D03*
X537500Y66500D03*
X206500Y133500D03*
X376500Y129000D03*
X898000Y132000D03*
X936000Y49000D03*
X401000Y-221000D03*
X986500Y409000D03*
X1063500Y368000D03*
X1111500Y419000D03*
X517500Y372500D03*
X567000Y432000D03*
X362000Y427500D03*
X71500Y426000D03*
X1531000Y417500D03*
X1590500Y375500D03*
X1576000Y81000D03*
X1601000Y-220000D03*
X1590500Y-515500D03*
X1442500Y-220500D03*
X1518000Y-267000D03*
X20000Y287000D03*
X66000Y28000D03*
X68500Y-276500D03*
X594500Y-273000D03*
X538500Y-307000D03*
X590500Y29000D03*
X591000Y328000D03*
X558000Y312000D03*
X604500Y615000D03*
X551500Y587000D03*
X1116000Y615500D03*
X1112500Y323000D03*
X1628500Y-277000D03*
X1640500Y27000D03*
X1629000Y319000D03*
X1619000Y608500D03*
X557000Y755000D03*
X113500Y842500D03*
X1265500Y712000D03*
X606000Y969000D03*
X1913000Y704000D03*
X653000Y918000D03*
X394000Y772500D03*
X873000Y651000D03*
X1465500Y-27146D03*
X1985500Y-27146D03*
X945500Y-27146D03*
X425500Y-27146D03*
X1170500Y-493500D03*
X1698500Y-493500D03*
X678500Y-311000D03*
X1199500Y-309750D03*
X1720793Y-309707D03*
X159500Y-309750D03*
X679000Y-9500D03*
X1199000Y-9500D03*
X1719000Y-9500D03*
X159000Y-9500D03*
X679000Y290500D03*
X1199000Y290500D03*
X159000Y290500D03*
X1719000Y290500D03*
X679000Y590500D03*
X1199000Y590500D03*
X159000Y590500D03*
X1719000Y590500D03*
X16695Y491445D03*
X91195Y476945D03*
X104075Y452500D03*
X252500Y463468D03*
X1056695Y491445D03*
X16695Y191445D03*
X1576695Y491445D03*
X536695Y491445D03*
X1131195Y476945D03*
X91195Y176945D03*
X1139500Y451000D03*
X104000Y151000D03*
X1651195Y476945D03*
X611195Y476945D03*
X1664500Y458000D03*
X624000Y454500D03*
X1292295Y463205D03*
X251500Y161500D03*
X268500Y144500D03*
X1813000Y468500D03*
X772500Y463860D03*
X1056695Y191445D03*
X789000Y446000D03*
X16695Y-108555D03*
X1576695Y191445D03*
X536695Y191445D03*
X1131195Y176945D03*
X91195Y-123055D03*
X1148500Y149500D03*
X1651195Y176945D03*
X611195Y176945D03*
X104500Y-150000D03*
X1664500Y151500D03*
X623750Y154500D03*
X1293000Y164390D03*
X252000Y-136709D03*
X1813000Y163890D03*
X772500Y163468D03*
X1056695Y-108555D03*
X16695Y-408555D03*
X1576695Y-108555D03*
X536695Y-108555D03*
X1131195Y-123055D03*
X91195Y-423055D03*
X1144250Y-151000D03*
X1651195Y-123055D03*
X611195Y-123055D03*
X1664500Y-154000D03*
X624500Y-148000D03*
X1292780Y-136310D03*
X252000Y-436000D03*
X1812780Y-136310D03*
X772500Y-137000D03*
X285500Y-449000D03*
X1056695Y-408555D03*
X1576695Y-408555D03*
X536695Y-408555D03*
X1131195Y-423055D03*
X1651195Y-423055D03*
X611195Y-423055D03*
X1293000Y-428110D03*
X1812545Y-436545D03*
X772000Y-436000D03*
X222500Y830500D03*
X627000Y756500D03*
X207500Y791500D03*
X356500Y877000D03*
X640000Y775000D03*
X405500Y1046500D03*
X844000Y977500D03*
X813500Y792000D03*
X90695Y564695D03*
X962500Y688000D03*
X1402500Y670890D03*
X339000Y554500D03*
X610695Y564695D03*
X1130695Y564695D03*
X1650695Y564695D03*
X90695Y264695D03*
X859000Y554500D03*
X1379000Y554500D03*
X179500Y553500D03*
X339000Y254500D03*
X610695Y264695D03*
X1899000Y554500D03*
X699500Y553500D03*
X1650695Y264695D03*
X1219500Y553500D03*
X1130695Y264695D03*
X452000Y143500D03*
X859000Y254500D03*
X1379000Y254500D03*
X90695Y-35305D03*
X179500Y253500D03*
X1739500Y553500D03*
X339000Y-45500D03*
X972000Y143500D03*
X1899000Y254500D03*
X1492000Y143500D03*
X610695Y-35305D03*
X699500Y253500D03*
X1219500Y253500D03*
X859000Y-45500D03*
X2012000Y143500D03*
X1650695Y-35305D03*
X1379000Y-45500D03*
X179500Y-46500D03*
X339000Y-345500D03*
X1130695Y-35305D03*
X859000Y-60500D03*
X1379500Y-65500D03*
X1739500Y253500D03*
X90695Y-335305D03*
X1899000Y-45500D03*
X1898500Y-59750D03*
X699500Y-46500D03*
X1219500Y-46500D03*
X179500Y-346500D03*
X610695Y-335305D03*
X1444000Y-319000D03*
X859000Y-345500D03*
X1739500Y-46500D03*
X1650695Y-335305D03*
X1379000Y-345500D03*
X1130695Y-335305D03*
X1899000Y-345500D03*
X699500Y-346500D03*
X1219500Y-346500D03*
X1739500Y-346500D03*
X191500Y-481500D03*
X635000Y-482000D03*
X77500Y-328250D03*
X1637500Y-332000D03*
X1117000Y-330000D03*
X597500Y-331097D03*
X620000Y714500D03*
X375000Y182000D03*
X572500Y288500D03*
X895500Y181500D03*
X1415500Y181500D03*
X1935500Y180500D03*
X375000Y-119000D03*
X895500Y-118000D03*
X1415500Y-118500D03*
X375500Y-418500D03*
X895500Y-418000D03*
X1254000Y-419000D03*
X1415500Y-418500D03*
X1935500Y-419000D03*
X1774500Y-418500D03*
X1493000Y-504500D03*
X1021000Y-457000D03*
X1580500Y130500D03*
X1060500Y130500D03*
X636500Y-185000D03*
X540500Y130500D03*
X116500Y-184000D03*
X635000Y123500D03*
X20500Y130500D03*
X1280500Y-129000D03*
X760500Y-129000D03*
X240500Y-129000D03*
X1800500Y-129000D03*
X1280500Y471000D03*
X760500Y471000D03*
X240500Y471000D03*
X1800500Y471000D03*
X240000Y-331000D03*
X1800000Y-337000D03*
X760000Y-331500D03*
X1280000Y-337250D03*
X240000Y266000D03*
X1800000Y266000D03*
X1280000Y266000D03*
X760000Y266000D03*
X1838500Y-338500D03*
X1318500Y-339000D03*
X278500Y-335500D03*
X1819500Y-312500D03*
X798500Y-338000D03*
X259500Y-310500D03*
X1299500Y-312500D03*
X779500Y-312500D03*
X1818000Y289500D03*
X258000Y289500D03*
X1298000Y289500D03*
X778000Y289500D03*
X313500Y-435000D03*
X1869905Y-434500D03*
X829905Y-434500D03*
X336500Y-327000D03*
X1896500Y-327000D03*
X1349905Y-434500D03*
X856500Y-327000D03*
X291707Y-135500D03*
X1851707Y-135500D03*
X1376500Y-327000D03*
X811707Y-135500D03*
X1331707Y-135500D03*
X310000Y165000D03*
X1870000Y165000D03*
X830000Y165000D03*
X336500Y273000D03*
X1896500Y273000D03*
X1350000Y165000D03*
X856500Y273000D03*
X1376500Y273000D03*
X1421000Y-563500D03*
X1440500Y-425000D03*
X400500Y-125250D03*
X920500Y-125250D03*
X1440500Y-125250D03*
X1960500Y-125250D03*
X1893500Y-526500D03*
X920500Y-337000D03*
X1960500Y-338500D03*
X1440323Y-337177D03*
X400000Y-335000D03*
X920000Y-36750D03*
X1960000Y-36750D03*
X1440000Y-36750D03*
X400000Y-36750D03*
X986500Y330000D03*
X2043500Y312500D03*
X1506500Y330000D03*
X466500Y330000D03*
X957823Y-330177D03*
X1998500Y-127750D03*
X1478500Y-127750D03*
X958500Y-127750D03*
X438500Y-127750D03*
X375500Y480500D03*
X895000Y480500D03*
X1415500Y481000D03*
G54D15*
X104000Y1004000D03*
G54D16*
X129400Y1004000D03*
X295265Y-668290D03*
X490490Y-668290D03*
X685716Y-668290D03*
X100040Y-671960D03*
G54D17*
X60000Y950000D03*
X60000Y924600D03*
X60000Y899200D03*
X60000Y873800D03*
X60000Y848400D03*
X60000Y823000D03*
X60000Y797600D03*
X60000Y772200D03*
G54D18*
X244465Y-617490D03*
X244465Y-719090D03*
X346065Y-617490D03*
X346065Y-719090D03*
X439690Y-617490D03*
X439690Y-719090D03*
X541290Y-617490D03*
X541290Y-719090D03*
X634916Y-617490D03*
X634916Y-719090D03*
X736516Y-617490D03*
X736516Y-719090D03*
X49240Y-621160D03*
X49240Y-722760D03*
X150840Y-621160D03*
X150840Y-722760D03*
G54D19*
X2034000Y1009000D03*
X-2000Y1012500D03*
X-8500Y-703500D03*
X2043500Y-713500D03*

M02*
