M48
METRIC,TZ
VER,1
FMAT,2
DETECT,ON
ATC,ON
T1C1.5000
T2C1.0000
T3C1.2000
T4C0.6000
T5C3.0000
%
T1
X26.3067Y55.5018
X31.3867
X58.6247Y55.5417
X63.7047
T2
X11.7696Y31.2591
X26.7696
X11.6155Y20.9652
X26.6155
X2.0139Y23.5386
Y26.0786
Y28.6186
Y31.1586
X45.8753Y36.6336
X48.4153Y39.1736
X45.8753Y41.7136
X21.2276Y48.3929
X31.3876
X53.4325Y36.8258
Y49.5258
X65.1300Y29.0001
X62.5900
X47.3500
X42.2700
X65.1300Y13.7801
X62.5900
X42.2700
X47.3500
T3
X58.7617Y35.8562
X63.7617
X83.7617
X58.7617Y43.3562
X63.7617
X68.7617
X83.7617
X68.7617Y35.8562
T4
X53.2351Y36.8640
X46.0333Y41.8525
T5
X84.3826Y55.9737
X84.3804Y12.6129
X4.0011Y12.6835
X3.9757Y55.9794
M30
