G04 Generated by Ultiboard 13.0 *
%FSLAX34Y34*%
%MOMM*%

%ADD10C,0.0001*%
%ADD11C,1.0000*%
%ADD12C,0.2540*%
%ADD13C,2.5000*%
%ADD14C,0.1270*%
%ADD15C,0.1000*%
%ADD16C,4.0000X1.5000*%
%ADD17C,4.0000X1.0000*%
%ADD18R,2.4920X2.4920X1.2000*%
%ADD19C,0.5080*%
%ADD20C,3.0000X1.2000*%
%ADD21R,1.4920X1.4920X1.2000*%
%ADD22R,1.0051X1.0051X1.0000*%
%ADD23C,0.9949*%
%ADD24C,2.5000X1.0000*%
%ADD25R,1.7300X1.7300X1.0000*%
%ADD26C,1.2700*%
%ADD27C,3.0000X1.0000*%
%ADD28C,1.0000X0.6000*%
%ADD29C,8.0000X3.0000*%
%ADD30R,1.4920X1.4920X1.0000*%


G04 ColorRGB 0000FF for the following layer *
%LNCopper Bottom*%
%LPD*%
G54D10*
G54D11*
X179395Y148851D02*
X222701Y192157D01*
X76108Y231880D02*
X76108Y196110D01*
X173671Y204132D02*
X173671Y445324D01*
X222701Y192157D02*
X222701Y413416D01*
X47202Y260786D02*
X76108Y231880D01*
X20139Y260786D02*
X47202Y260786D01*
X458753Y366336D02*
X456497Y364080D01*
X448234Y364080D01*
X404158Y366336D02*
X320588Y449906D01*
X458753Y366336D02*
X404158Y366336D01*
X424934Y391736D02*
X332740Y483929D01*
X484153Y391736D02*
X424934Y391736D01*
X222701Y413416D02*
X263067Y453781D01*
X173671Y445324D02*
X212276Y483929D01*
X263067Y453781D02*
X263067Y555018D01*
X320588Y449906D02*
X259192Y449906D01*
X332740Y483929D02*
X313876Y483929D01*
X97077Y175141D02*
X144680Y175141D01*
X173671Y204132D01*
X76108Y196110D02*
X97077Y175141D01*
X641287Y356903D02*
X638082Y356903D01*
X728181Y331472D02*
X666718Y331472D01*
X641287Y356903D01*
X755272Y358562D02*
X728181Y331472D01*
X837617Y433562D02*
X802535Y433562D01*
X758897Y389924D01*
X537605Y492850D02*
X537605Y424922D01*
X554139Y408389D01*
X560366Y405809D02*
X574915Y405809D01*
X754290Y387225D02*
X557168Y387225D01*
X541350Y371407D01*
X534671Y368640D02*
X532351Y368640D01*
X533022Y369311D01*
X533693Y370931D02*
X533693Y400919D01*
X501365Y433246D01*
X489677Y438087D02*
X482830Y438087D01*
X464305Y419562D01*
X461800Y418525D02*
X460333Y418525D01*
X572614Y404136D02*
X742849Y404136D01*
X533693Y385268D02*
X540134Y378827D01*
X543474Y377443D02*
X545430Y377443D01*
X512713Y555018D02*
X529915Y537816D01*
X535649Y523973D02*
X535649Y496189D01*
X536627Y495211D01*
X554139Y408389D02*
X554705Y407870D01*
X555315Y407402D01*
X555963Y406989D01*
X556644Y406634D01*
X557354Y406340D01*
X558087Y406109D01*
X558837Y405943D01*
X559599Y405843D01*
X560366Y405809D01*
X461800Y418525D02*
X462109Y418538D01*
X462415Y418579D01*
X462717Y418645D01*
X463012Y418738D01*
X463297Y418857D01*
X463571Y418999D01*
X463832Y419165D01*
X464077Y419353D01*
X464305Y419562D01*
X501365Y433246D02*
X500302Y434220D01*
X499158Y435098D01*
X497942Y435873D01*
X496663Y436539D01*
X495331Y437090D01*
X493955Y437524D01*
X492547Y437836D01*
X491118Y438024D01*
X489677Y438087D01*
X537605Y492850D02*
X537593Y493141D01*
X537554Y493430D01*
X537491Y493714D01*
X537404Y493992D01*
X537292Y494261D01*
X537158Y494520D01*
X537001Y494765D01*
X536824Y494996D01*
X536627Y495211D01*
X535649Y523973D02*
X535574Y525679D01*
X535352Y527372D01*
X534982Y529040D01*
X534468Y530668D01*
X533815Y532246D01*
X533026Y533761D01*
X532108Y535202D01*
X531069Y536557D01*
X529915Y537816D01*
X529915Y537816D01*
X93956Y148851D02*
X22745Y220063D01*
X93956Y148851D02*
X179395Y148851D01*
X22745Y220063D02*
X20139Y220063D01*
X20139Y235386D02*
X20139Y220063D01*
X313867Y555018D02*
X512713Y555018D01*
X742849Y404136D02*
X816259Y477545D01*
X855764Y477545D01*
X871145Y462164D01*
X871145Y392091D01*
X837617Y358562D01*
X755272Y358562D02*
X837617Y358562D01*
X267696Y312591D02*
X400110Y312591D01*
X422700Y290001D01*
X350849Y209652D02*
X422700Y137801D01*
X587617Y358562D02*
X587617Y344412D01*
X618213Y313816D01*
X706106Y313816D01*
X723564Y296357D01*
X723564Y175353D01*
X686012Y137801D01*
X625900Y137801D01*
X458753Y366336D02*
X458753Y304748D01*
X473500Y290001D01*
X651300Y290001D01*
X473500Y290001D02*
X473500Y137801D01*
X534671Y368640D02*
X535494Y368676D01*
X536311Y368784D01*
X537116Y368962D01*
X537901Y369210D01*
X538663Y369525D01*
X539394Y369906D01*
X540089Y370349D01*
X540742Y370850D01*
X541350Y371407D01*
X533022Y369311D02*
X533157Y369459D01*
X533278Y369617D01*
X533386Y369786D01*
X533478Y369963D01*
X533555Y370148D01*
X533615Y370338D01*
X533658Y370533D01*
X533684Y370731D01*
X533693Y370931D01*
X540134Y378827D02*
X540438Y378548D01*
X540765Y378298D01*
X541113Y378076D01*
X541478Y377886D01*
X541859Y377728D01*
X542252Y377604D01*
X542654Y377515D01*
X543062Y377461D01*
X543474Y377443D01*
X266155Y209652D02*
X350849Y209652D01*
X20139Y311586D02*
X116691Y311586D01*
X117696Y312591D01*
X20139Y286186D02*
X67078Y286186D01*
X116155Y237108D01*
X116155Y209652D01*
G54D12*
X758897Y389924D02*
X757548Y388574D01*
X754290Y387225D02*
X754691Y387242D01*
X755090Y387295D01*
X755482Y387382D01*
X755866Y387503D01*
X756237Y387656D01*
X756594Y387842D01*
X756933Y388058D01*
X757251Y388303D01*
X757548Y388574D01*
G54D13*
X587617Y531923D02*
X587617Y433562D01*
X637617Y476630D02*
X637617Y433562D01*
X586247Y555417D02*
X587705Y553960D01*
X587705Y434327D01*
X637047Y555417D02*
X638698Y553766D01*
X638698Y475126D01*
G54D14*
X-2783Y83589D02*
X-2783Y135484D01*
X-2783Y83589D02*
X86132Y83589D01*
X886366Y83589D02*
X797451Y83589D01*
X886366Y83589D02*
X886366Y135484D01*
X886366Y602540D02*
X886366Y550645D01*
X886366Y602540D02*
X797451Y602540D01*
X-2783Y602540D02*
X86132Y602540D01*
X-2783Y602540D02*
X-2783Y550645D01*
X-52783Y83589D02*
X-152783Y83589D01*
X-102783Y33589D02*
X-102783Y133589D01*
X-140283Y83589D02*
G75*
D01*
G02X-140283Y83589I37500J0*
G01*
X936366Y83589D02*
X1036366Y83589D01*
X986366Y33589D02*
X986366Y133589D01*
X948866Y83589D02*
G75*
D01*
G02X948866Y83589I37500J0*
G01*
X973866Y83589D02*
G75*
D01*
G02X973866Y83589I12500J0*
G01*
X-52783Y602540D02*
X-152783Y602540D01*
X-102783Y552540D02*
X-102783Y652540D01*
X-140283Y602540D02*
G75*
D01*
G02X-140283Y602540I37500J0*
G01*
X-127783Y602540D02*
G75*
D01*
G02X-127783Y602540I25000J0*
G01*
X-115283Y602540D02*
G75*
D01*
G02X-115283Y602540I12500J0*
G01*
X-2783Y83589D02*
X-2783Y135484D01*
X-2783Y83589D02*
X86132Y83589D01*
X886366Y83589D02*
X797451Y83589D01*
X886366Y83589D02*
X886366Y135484D01*
X886366Y602540D02*
X886366Y550645D01*
X886366Y602540D02*
X797451Y602540D01*
X-2783Y602540D02*
X86132Y602540D01*
X-2783Y602540D02*
X-2783Y550645D01*
X-52783Y83589D02*
X-152783Y83589D01*
X-102783Y33589D02*
X-102783Y133589D01*
X-140283Y83589D02*
G75*
D01*
G02X-140283Y83589I37500J0*
G01*
X936366Y83589D02*
X1036366Y83589D01*
X986366Y33589D02*
X986366Y133589D01*
X948866Y83589D02*
G75*
D01*
G02X948866Y83589I37500J0*
G01*
X973866Y83589D02*
G75*
D01*
G02X973866Y83589I12500J0*
G01*
X-52783Y602540D02*
X-152783Y602540D01*
X-102783Y552540D02*
X-102783Y652540D01*
X-140283Y602540D02*
G75*
D01*
G02X-140283Y602540I37500J0*
G01*
X-127783Y602540D02*
G75*
D01*
G02X-127783Y602540I25000J0*
G01*
X-115283Y602540D02*
G75*
D01*
G02X-115283Y602540I12500J0*
G01*
G54D15*
X0Y86150D02*
X883661Y86150D01*
X883661Y600000D01*
X0Y600000D01*
X0Y86150D01*
G54D16*
X263067Y555018D03*
X313867Y555018D03*
X586247Y555417D03*
X637047Y555417D03*
G54D17*
X117696Y312591D03*
X267696Y312591D03*
X116155Y209652D03*
X266155Y209652D03*
G54D18*
X587617Y358562D03*
X637617Y358562D03*
X837617Y358562D03*
X637617Y433562D03*
X687617Y433562D03*
X837617Y433562D03*
G54D19*
X575157Y346102D02*
X600077Y346102D01*
X600077Y371022D01*
X575157Y371022D01*
X575157Y346102D01*D02*
X625157Y346102D02*
X650077Y346102D01*
X650077Y371022D01*
X625157Y371022D01*
X625157Y346102D01*D02*
X825157Y346102D02*
X850077Y346102D01*
X850077Y371022D01*
X825157Y371022D01*
X825157Y346102D01*D02*
X625157Y421102D02*
X650077Y421102D01*
X650077Y446022D01*
X625157Y446022D01*
X625157Y421102D01*D02*
X675157Y421102D02*
X700077Y421102D01*
X700077Y446022D01*
X675157Y446022D01*
X675157Y421102D01*D02*
X825157Y421102D02*
X850077Y421102D01*
X850077Y446022D01*
X825157Y446022D01*
X825157Y421102D01*D02*
X680157Y351102D02*
X695077Y351102D01*
X695077Y366022D01*
X680157Y366022D01*
X680157Y351102D01*D02*
X643840Y282541D02*
X658760Y282541D01*
X658760Y297461D01*
X643840Y297461D01*
X643840Y282541D01*D02*
X618440Y282541D02*
X633360Y282541D01*
X633360Y297461D01*
X618440Y297461D01*
X618440Y282541D01*D02*
X466040Y282541D02*
X480960Y282541D01*
X480960Y297461D01*
X466040Y297461D01*
X466040Y282541D01*D02*
X415240Y282541D02*
X430160Y282541D01*
X430160Y297461D01*
X415240Y297461D01*
X415240Y282541D01*D02*
X643840Y130341D02*
X658760Y130341D01*
X658760Y145261D01*
X643840Y145261D01*
X643840Y130341D01*D02*
X618440Y130341D02*
X633360Y130341D01*
X633360Y145261D01*
X618440Y145261D01*
X618440Y130341D01*D02*
X415240Y130341D02*
X430160Y130341D01*
X430160Y145261D01*
X415240Y145261D01*
X415240Y130341D01*D02*
X466040Y130341D02*
X480960Y130341D01*
X480960Y145261D01*
X466040Y145261D01*
X466040Y130341D01*D02*
G54D20*
X587617Y433562D03*
G54D21*
X687617Y358562D03*
G54D22*
X20139Y235386D03*
X20139Y260786D03*
X20139Y286186D03*
X20139Y311586D03*
G54D23*
X15114Y230361D02*
X25164Y230361D01*
X25164Y240411D01*
X15114Y240411D01*
X15114Y230361D01*D02*
X15114Y255761D02*
X25164Y255761D01*
X25164Y265811D01*
X15114Y265811D01*
X15114Y255761D01*D02*
X15114Y281161D02*
X25164Y281161D01*
X25164Y291211D01*
X15114Y291211D01*
X15114Y281161D01*D02*
X15114Y306561D02*
X25164Y306561D01*
X25164Y316611D01*
X15114Y316611D01*
X15114Y306561D01*D02*
G54D24*
X458753Y366336D03*
X484153Y391736D03*
X458753Y417136D03*
G54D25*
X212276Y483929D03*
X313876Y483929D03*
G54D26*
X203626Y475279D02*
X220926Y475279D01*
X220926Y492579D01*
X203626Y492579D01*
X203626Y475279D01*D02*
X305226Y475279D02*
X322526Y475279D01*
X322526Y492579D01*
X305226Y492579D01*
X305226Y475279D01*D02*
G54D27*
X534325Y368258D03*
X534325Y495258D03*
G54D28*
X532351Y368640D03*
X460333Y418525D03*
G54D29*
X843826Y559737D03*
X843804Y126129D03*
X40011Y126835D03*
X39757Y559794D03*
G54D30*
X651300Y290001D03*
X625900Y290001D03*
X473500Y290001D03*
X422700Y290001D03*
X651300Y137801D03*
X625900Y137801D03*
X422700Y137801D03*
X473500Y137801D03*

M02*
