G04 Generated by Ultiboard 13.0 *
%FSLAX34Y34*%
%MOMM*%

%ADD10C,0.0001*%
%ADD11C,0.1000*%
%ADD12C,0.0100*%
%ADD13C,0.1270*%


G04 ColorRGB 000000 for the following layer *
%LNDrill Symbols-Copper Top-Copper Bottom*%
%LPD*%
G54D11*
X263067Y547518D02*
X263067Y562518D01*
X255567Y555018D02*
X270567Y555018D01*
X313867Y547518D02*
X313867Y562518D01*
X306367Y555018D02*
X321367Y555018D01*
X114161Y316126D02*
X121232Y309055D01*
X114161Y309055D02*
X121232Y316126D01*
X264161Y316126D02*
X271232Y309055D01*
X264161Y309055D02*
X271232Y316126D01*
X112620Y213188D02*
X119691Y206117D01*
X112620Y206117D02*
X119691Y213188D01*
X262620Y213188D02*
X269691Y206117D01*
X262620Y206117D02*
X269691Y213188D01*
X581617Y358562D02*
G75*
D01*
G02X581617Y358562I6000J0*
G01*
X631617Y358562D02*
G75*
D01*
G02X631617Y358562I6000J0*
G01*
X831617Y358562D02*
G75*
D01*
G02X831617Y358562I6000J0*
G01*
X581617Y433562D02*
G75*
D01*
G02X581617Y433562I6000J0*
G01*
X631617Y433562D02*
G75*
D01*
G02X631617Y433562I6000J0*
G01*
X681617Y433562D02*
G75*
D01*
G02X681617Y433562I6000J0*
G01*
X831617Y433562D02*
G75*
D01*
G02X831617Y433562I6000J0*
G01*
X681617Y358562D02*
G75*
D01*
G02X681617Y358562I6000J0*
G01*
X16604Y238921D02*
X23675Y231850D01*
X16604Y231850D02*
X23675Y238921D01*
X16604Y264321D02*
X23675Y257250D01*
X16604Y257250D02*
X23675Y264321D01*
X16604Y289721D02*
X23675Y282650D01*
X16604Y282650D02*
X23675Y289721D01*
X16604Y315121D02*
X23675Y308050D01*
X16604Y308050D02*
X23675Y315121D01*
X455217Y369871D02*
X462288Y362800D01*
X455217Y362800D02*
X462288Y369871D01*
X480617Y395271D02*
X487688Y388200D01*
X480617Y388200D02*
X487688Y395271D01*
X455217Y420671D02*
X462288Y413600D01*
X455217Y413600D02*
X462288Y420671D01*
X208741Y487465D02*
X215812Y480394D01*
X208741Y480394D02*
X215812Y487465D01*
X310341Y487465D02*
X317412Y480394D01*
X310341Y480394D02*
X317412Y487465D01*
X530790Y371794D02*
X537861Y364723D01*
X530790Y364723D02*
X537861Y371794D01*
X530790Y498794D02*
X537861Y491723D01*
X530790Y491723D02*
X537861Y498794D01*
X586247Y547917D02*
X586247Y562917D01*
X578747Y555417D02*
X593747Y555417D01*
X637047Y547917D02*
X637047Y562917D01*
X629547Y555417D02*
X644547Y555417D01*
X843826Y538524D02*
X865039Y559737D01*
X843826Y580950D01*
X822613Y559737D01*
X843826Y538524D01*
X843804Y104916D02*
X865017Y126129D01*
X843804Y147342D01*
X822590Y126129D01*
X843804Y104916D01*
X40011Y105622D02*
X61224Y126835D01*
X40011Y148048D01*
X18798Y126835D01*
X40011Y105622D01*
X39757Y538581D02*
X60970Y559794D01*
X39757Y581007D01*
X18544Y559794D01*
X39757Y538581D01*
X647765Y293536D02*
X654836Y286465D01*
X647765Y286465D02*
X654836Y293536D01*
X622365Y293536D02*
X629436Y286465D01*
X622365Y286465D02*
X629436Y293536D01*
X469965Y293536D02*
X477036Y286465D01*
X469965Y286465D02*
X477036Y293536D01*
X419165Y293536D02*
X426236Y286465D01*
X419165Y286465D02*
X426236Y293536D01*
X647765Y141336D02*
X654836Y134265D01*
X647765Y134265D02*
X654836Y141336D01*
X622365Y141336D02*
X629436Y134265D01*
X622365Y134265D02*
X629436Y141336D01*
X419165Y141336D02*
X426236Y134265D01*
X419165Y134265D02*
X426236Y141336D01*
X469965Y141336D02*
X477036Y134265D01*
X469965Y134265D02*
X477036Y141336D01*
X1186866Y185629D02*
X1208079Y206842D01*
X1186866Y228055D01*
X1165653Y206842D01*
X1186866Y185629D01*
X1294533Y217556D02*
X1297866Y219699D01*
X1304533Y219699D01*
X1311199Y215413D01*
X1311199Y211128D01*
X1307866Y208985D01*
X1311199Y206842D01*
X1311199Y202556D01*
X1304533Y198271D01*
X1297866Y198271D01*
X1294533Y200413D01*
X1297866Y208985D02*
X1307866Y208985D01*
X1331199Y198271D02*
X1331199Y200413D01*
X1351199Y215413D02*
X1357866Y219699D01*
X1364533Y219699D01*
X1371199Y215413D01*
X1371199Y202556D01*
X1364533Y198271D01*
X1357866Y198271D01*
X1351199Y202556D01*
X1351199Y215413D01*
X1371199Y215413D02*
X1351199Y202556D01*
X1381199Y215413D02*
X1387866Y219699D01*
X1394533Y219699D01*
X1401199Y215413D01*
X1401199Y202556D01*
X1394533Y198271D01*
X1387866Y198271D01*
X1381199Y202556D01*
X1381199Y215413D01*
X1401199Y215413D02*
X1381199Y202556D01*
X1411199Y215413D02*
X1417866Y219699D01*
X1424533Y219699D01*
X1431199Y215413D01*
X1431199Y202556D01*
X1424533Y198271D01*
X1417866Y198271D01*
X1411199Y202556D01*
X1411199Y215413D01*
X1431199Y215413D02*
X1411199Y202556D01*
X1441199Y215413D02*
X1447866Y219699D01*
X1454533Y219699D01*
X1461199Y215413D01*
X1461199Y202556D01*
X1454533Y198271D01*
X1447866Y198271D01*
X1441199Y202556D01*
X1441199Y215413D01*
X1461199Y215413D02*
X1441199Y202556D01*
X1607199Y206842D02*
X1587199Y206842D01*
X1603866Y219699D01*
X1603866Y198271D01*
X1600533Y198271D02*
X1607199Y198271D01*
X1778199Y198271D02*
X1778199Y219699D01*
X1791533Y219699D01*
X1798199Y215413D01*
X1798199Y213271D01*
X1791533Y208985D01*
X1778199Y208985D01*
X1818199Y198271D02*
X1818199Y219699D01*
X1808199Y219699D02*
X1828199Y219699D01*
X1838199Y198271D02*
X1838199Y219699D01*
X1858199Y198271D02*
X1858199Y219699D01*
X1838199Y208985D02*
X1858199Y208985D01*
X1954199Y215413D02*
X1960866Y219699D01*
X1967533Y219699D01*
X1974199Y215413D01*
X1974199Y202556D01*
X1967533Y198271D01*
X1960866Y198271D01*
X1954199Y202556D01*
X1954199Y215413D01*
X1974199Y215413D02*
X1954199Y202556D01*
X2030866Y198271D02*
X2027533Y198271D01*
X2020866Y202556D01*
X2020866Y215413D01*
X2027533Y219699D01*
X2030866Y219699D01*
X2044199Y198271D02*
X2044199Y219699D01*
X2057533Y219699D01*
X2064199Y215413D01*
X2064199Y213271D01*
X2057533Y208985D01*
X2044199Y208985D01*
X2047533Y208985D02*
X2064199Y198271D01*
X2074199Y202556D02*
X2080866Y198271D01*
X2087533Y198271D01*
X2094199Y202556D01*
X2094199Y215413D01*
X2087533Y219699D01*
X2080866Y219699D01*
X2074199Y215413D01*
X2074199Y202556D01*
X2104199Y219699D02*
X2104199Y202556D01*
X2110866Y198271D01*
X2117533Y198271D01*
X2124199Y202556D01*
X2124199Y219699D01*
X2134199Y198271D02*
X2134199Y219699D01*
X2154199Y198271D01*
X2154199Y219699D01*
X2164199Y198271D02*
X2177533Y198271D01*
X2184199Y202556D01*
X2184199Y215413D01*
X2177533Y219699D01*
X2164199Y219699D01*
X2167533Y219699D02*
X2167533Y198271D01*
X2197533Y219699D02*
X2200866Y219699D01*
X2207533Y215413D01*
X2207533Y202556D01*
X2200866Y198271D01*
X2197533Y198271D01*
X1186866Y252768D02*
X1186866Y267768D01*
X1179366Y260268D02*
X1194366Y260268D01*
X1294533Y268840D02*
X1301199Y273126D01*
X1301199Y251697D01*
X1291199Y251697D02*
X1311199Y251697D01*
X1331199Y251697D02*
X1331199Y253840D01*
X1371199Y273126D02*
X1351199Y273126D01*
X1351199Y264554D01*
X1364533Y264554D01*
X1371199Y260268D01*
X1371199Y255983D01*
X1364533Y251697D01*
X1351199Y251697D01*
X1381199Y268840D02*
X1387866Y273126D01*
X1394533Y273126D01*
X1401199Y268840D01*
X1401199Y255983D01*
X1394533Y251697D01*
X1387866Y251697D01*
X1381199Y255983D01*
X1381199Y268840D01*
X1401199Y268840D02*
X1381199Y255983D01*
X1411199Y268840D02*
X1417866Y273126D01*
X1424533Y273126D01*
X1431199Y268840D01*
X1431199Y255983D01*
X1424533Y251697D01*
X1417866Y251697D01*
X1411199Y255983D01*
X1411199Y268840D01*
X1431199Y268840D02*
X1411199Y255983D01*
X1441199Y268840D02*
X1447866Y273126D01*
X1454533Y273126D01*
X1461199Y268840D01*
X1461199Y255983D01*
X1454533Y251697D01*
X1447866Y251697D01*
X1441199Y255983D01*
X1441199Y268840D01*
X1461199Y268840D02*
X1441199Y255983D01*
X1607199Y260268D02*
X1587199Y260268D01*
X1603866Y273126D01*
X1603866Y251697D01*
X1600533Y251697D02*
X1607199Y251697D01*
X1778199Y251697D02*
X1778199Y273126D01*
X1791533Y273126D01*
X1798199Y268840D01*
X1798199Y266697D01*
X1791533Y262411D01*
X1778199Y262411D01*
X1818199Y251697D02*
X1818199Y273126D01*
X1808199Y273126D02*
X1828199Y273126D01*
X1838199Y251697D02*
X1838199Y273126D01*
X1858199Y251697D02*
X1858199Y273126D01*
X1838199Y262411D02*
X1858199Y262411D01*
X1954199Y268840D02*
X1960866Y273126D01*
X1967533Y273126D01*
X1974199Y268840D01*
X1974199Y255983D01*
X1967533Y251697D01*
X1960866Y251697D01*
X1954199Y255983D01*
X1954199Y268840D01*
X1974199Y268840D02*
X1954199Y255983D01*
X2030866Y251697D02*
X2027533Y251697D01*
X2020866Y255983D01*
X2020866Y268840D01*
X2027533Y273126D01*
X2030866Y273126D01*
X2044199Y251697D02*
X2044199Y273126D01*
X2057533Y273126D01*
X2064199Y268840D01*
X2064199Y266697D01*
X2057533Y262411D01*
X2044199Y262411D01*
X2047533Y262411D02*
X2064199Y251697D01*
X2074199Y255983D02*
X2080866Y251697D01*
X2087533Y251697D01*
X2094199Y255983D01*
X2094199Y268840D01*
X2087533Y273126D01*
X2080866Y273126D01*
X2074199Y268840D01*
X2074199Y255983D01*
X2104199Y273126D02*
X2104199Y255983D01*
X2110866Y251697D01*
X2117533Y251697D01*
X2124199Y255983D01*
X2124199Y273126D01*
X2134199Y251697D02*
X2134199Y273126D01*
X2154199Y251697D01*
X2154199Y273126D01*
X2164199Y251697D02*
X2177533Y251697D01*
X2184199Y255983D01*
X2184199Y268840D01*
X2177533Y273126D01*
X2164199Y273126D01*
X2167533Y273126D02*
X2167533Y251697D01*
X2197533Y273126D02*
X2200866Y273126D01*
X2207533Y268840D01*
X2207533Y255983D01*
X2200866Y251697D01*
X2197533Y251697D01*
X1294533Y322266D02*
X1301199Y326552D01*
X1301199Y305123D01*
X1291199Y305123D02*
X1311199Y305123D01*
X1331199Y305123D02*
X1331199Y307266D01*
X1351199Y322266D02*
X1357866Y326552D01*
X1364533Y326552D01*
X1371199Y322266D01*
X1371199Y320123D01*
X1351199Y305123D01*
X1371199Y305123D01*
X1371199Y307266D01*
X1381199Y322266D02*
X1387866Y326552D01*
X1394533Y326552D01*
X1401199Y322266D01*
X1401199Y309409D01*
X1394533Y305123D01*
X1387866Y305123D01*
X1381199Y309409D01*
X1381199Y322266D01*
X1401199Y322266D02*
X1381199Y309409D01*
X1411199Y322266D02*
X1417866Y326552D01*
X1424533Y326552D01*
X1431199Y322266D01*
X1431199Y309409D01*
X1424533Y305123D01*
X1417866Y305123D01*
X1411199Y309409D01*
X1411199Y322266D01*
X1431199Y322266D02*
X1411199Y309409D01*
X1441199Y322266D02*
X1447866Y326552D01*
X1454533Y326552D01*
X1461199Y322266D01*
X1461199Y309409D01*
X1454533Y305123D01*
X1447866Y305123D01*
X1441199Y309409D01*
X1441199Y322266D01*
X1461199Y322266D02*
X1441199Y309409D01*
X1600533Y305123D02*
X1593866Y305123D01*
X1587199Y309409D01*
X1587199Y313695D01*
X1590533Y315838D01*
X1587199Y317981D01*
X1587199Y322266D01*
X1593866Y326552D01*
X1600533Y326552D01*
X1607199Y322266D01*
X1607199Y317981D01*
X1603866Y315838D01*
X1607199Y313695D01*
X1607199Y309409D01*
X1600533Y305123D01*
X1590533Y315838D02*
X1603866Y315838D01*
X1778199Y305123D02*
X1778199Y326552D01*
X1791533Y326552D01*
X1798199Y322266D01*
X1798199Y320123D01*
X1791533Y315838D01*
X1778199Y315838D01*
X1818199Y305123D02*
X1818199Y326552D01*
X1808199Y326552D02*
X1828199Y326552D01*
X1838199Y305123D02*
X1838199Y326552D01*
X1858199Y305123D02*
X1858199Y326552D01*
X1838199Y315838D02*
X1858199Y315838D01*
X1954199Y322266D02*
X1960866Y326552D01*
X1967533Y326552D01*
X1974199Y322266D01*
X1974199Y309409D01*
X1967533Y305123D01*
X1960866Y305123D01*
X1954199Y309409D01*
X1954199Y322266D01*
X1974199Y322266D02*
X1954199Y309409D01*
X2030866Y305123D02*
X2027533Y305123D01*
X2020866Y309409D01*
X2020866Y322266D01*
X2027533Y326552D01*
X2030866Y326552D01*
X2044199Y305123D02*
X2044199Y326552D01*
X2057533Y326552D01*
X2064199Y322266D01*
X2064199Y320123D01*
X2057533Y315838D01*
X2044199Y315838D01*
X2047533Y315838D02*
X2064199Y305123D01*
X2074199Y309409D02*
X2080866Y305123D01*
X2087533Y305123D01*
X2094199Y309409D01*
X2094199Y322266D01*
X2087533Y326552D01*
X2080866Y326552D01*
X2074199Y322266D01*
X2074199Y309409D01*
X2104199Y326552D02*
X2104199Y309409D01*
X2110866Y305123D01*
X2117533Y305123D01*
X2124199Y309409D01*
X2124199Y326552D01*
X2134199Y305123D02*
X2134199Y326552D01*
X2154199Y305123D01*
X2154199Y326552D01*
X2164199Y305123D02*
X2177533Y305123D01*
X2184199Y309409D01*
X2184199Y322266D01*
X2177533Y326552D01*
X2164199Y326552D01*
X2167533Y326552D02*
X2167533Y305123D01*
X2197533Y326552D02*
X2200866Y326552D01*
X2207533Y322266D01*
X2207533Y309409D01*
X2200866Y305123D01*
X2197533Y305123D01*
X1180866Y313695D02*
G75*
D01*
G02X1180866Y313695I6000J0*
G01*
X1294533Y375693D02*
X1301199Y379978D01*
X1301199Y358550D01*
X1291199Y358550D02*
X1311199Y358550D01*
X1331199Y358550D02*
X1331199Y360693D01*
X1351199Y375693D02*
X1357866Y379978D01*
X1364533Y379978D01*
X1371199Y375693D01*
X1371199Y362835D01*
X1364533Y358550D01*
X1357866Y358550D01*
X1351199Y362835D01*
X1351199Y375693D01*
X1371199Y375693D02*
X1351199Y362835D01*
X1381199Y375693D02*
X1387866Y379978D01*
X1394533Y379978D01*
X1401199Y375693D01*
X1401199Y362835D01*
X1394533Y358550D01*
X1387866Y358550D01*
X1381199Y362835D01*
X1381199Y375693D01*
X1401199Y375693D02*
X1381199Y362835D01*
X1411199Y375693D02*
X1417866Y379978D01*
X1424533Y379978D01*
X1431199Y375693D01*
X1431199Y362835D01*
X1424533Y358550D01*
X1417866Y358550D01*
X1411199Y362835D01*
X1411199Y375693D01*
X1431199Y375693D02*
X1411199Y362835D01*
X1441199Y375693D02*
X1447866Y379978D01*
X1454533Y379978D01*
X1461199Y375693D01*
X1461199Y362835D01*
X1454533Y358550D01*
X1447866Y358550D01*
X1441199Y362835D01*
X1441199Y375693D01*
X1461199Y375693D02*
X1441199Y362835D01*
X1572199Y375693D02*
X1578866Y379978D01*
X1585533Y379978D01*
X1592199Y375693D01*
X1592199Y373550D01*
X1572199Y358550D01*
X1592199Y358550D01*
X1592199Y360693D01*
X1605533Y377835D02*
X1608866Y379978D01*
X1615533Y379978D01*
X1622199Y375693D01*
X1622199Y371407D01*
X1618866Y369264D01*
X1622199Y367121D01*
X1622199Y362835D01*
X1615533Y358550D01*
X1608866Y358550D01*
X1605533Y360693D01*
X1608866Y369264D02*
X1618866Y369264D01*
X1778199Y358550D02*
X1778199Y379978D01*
X1791533Y379978D01*
X1798199Y375693D01*
X1798199Y373550D01*
X1791533Y369264D01*
X1778199Y369264D01*
X1818199Y358550D02*
X1818199Y379978D01*
X1808199Y379978D02*
X1828199Y379978D01*
X1838199Y358550D02*
X1838199Y379978D01*
X1858199Y358550D02*
X1858199Y379978D01*
X1838199Y369264D02*
X1858199Y369264D01*
X1954199Y375693D02*
X1960866Y379978D01*
X1967533Y379978D01*
X1974199Y375693D01*
X1974199Y362835D01*
X1967533Y358550D01*
X1960866Y358550D01*
X1954199Y362835D01*
X1954199Y375693D01*
X1974199Y375693D02*
X1954199Y362835D01*
X2030866Y358550D02*
X2027533Y358550D01*
X2020866Y362835D01*
X2020866Y375693D01*
X2027533Y379978D01*
X2030866Y379978D01*
X2044199Y358550D02*
X2044199Y379978D01*
X2057533Y379978D01*
X2064199Y375693D01*
X2064199Y373550D01*
X2057533Y369264D01*
X2044199Y369264D01*
X2047533Y369264D02*
X2064199Y358550D01*
X2074199Y362835D02*
X2080866Y358550D01*
X2087533Y358550D01*
X2094199Y362835D01*
X2094199Y375693D01*
X2087533Y379978D01*
X2080866Y379978D01*
X2074199Y375693D01*
X2074199Y362835D01*
X2104199Y379978D02*
X2104199Y362835D01*
X2110866Y358550D01*
X2117533Y358550D01*
X2124199Y362835D01*
X2124199Y379978D01*
X2134199Y358550D02*
X2134199Y379978D01*
X2154199Y358550D01*
X2154199Y379978D01*
X2164199Y358550D02*
X2177533Y358550D01*
X2184199Y362835D01*
X2184199Y375693D01*
X2177533Y379978D01*
X2164199Y379978D01*
X2167533Y379978D02*
X2167533Y358550D01*
X2197533Y379978D02*
X2200866Y379978D01*
X2207533Y375693D01*
X2207533Y362835D01*
X2200866Y358550D01*
X2197533Y358550D01*
X1183331Y370657D02*
X1190402Y363586D01*
X1183331Y363586D02*
X1190402Y370657D01*
X1291199Y429119D02*
X1297866Y433405D01*
X1304533Y433405D01*
X1311199Y429119D01*
X1311199Y416262D01*
X1304533Y411976D01*
X1297866Y411976D01*
X1291199Y416262D01*
X1291199Y429119D01*
X1311199Y429119D02*
X1291199Y416262D01*
X1331199Y411976D02*
X1331199Y414119D01*
X1367866Y433405D02*
X1357866Y433405D01*
X1351199Y429119D01*
X1351199Y420548D01*
X1351199Y416262D01*
X1357866Y411976D01*
X1364533Y411976D01*
X1371199Y416262D01*
X1371199Y420548D01*
X1364533Y424833D01*
X1357866Y424833D01*
X1351199Y420548D01*
X1381199Y429119D02*
X1387866Y433405D01*
X1394533Y433405D01*
X1401199Y429119D01*
X1401199Y416262D01*
X1394533Y411976D01*
X1387866Y411976D01*
X1381199Y416262D01*
X1381199Y429119D01*
X1401199Y429119D02*
X1381199Y416262D01*
X1411199Y429119D02*
X1417866Y433405D01*
X1424533Y433405D01*
X1431199Y429119D01*
X1431199Y416262D01*
X1424533Y411976D01*
X1417866Y411976D01*
X1411199Y416262D01*
X1411199Y429119D01*
X1431199Y429119D02*
X1411199Y416262D01*
X1441199Y429119D02*
X1447866Y433405D01*
X1454533Y433405D01*
X1461199Y429119D01*
X1461199Y416262D01*
X1454533Y411976D01*
X1447866Y411976D01*
X1441199Y416262D01*
X1441199Y429119D01*
X1461199Y429119D02*
X1441199Y416262D01*
X1587199Y429119D02*
X1593866Y433405D01*
X1600533Y433405D01*
X1607199Y429119D01*
X1607199Y426976D01*
X1587199Y411976D01*
X1607199Y411976D01*
X1607199Y414119D01*
X1778199Y411976D02*
X1778199Y433405D01*
X1791533Y433405D01*
X1798199Y429119D01*
X1798199Y426976D01*
X1791533Y422690D01*
X1778199Y422690D01*
X1818199Y411976D02*
X1818199Y433405D01*
X1808199Y433405D02*
X1828199Y433405D01*
X1838199Y411976D02*
X1838199Y433405D01*
X1858199Y411976D02*
X1858199Y433405D01*
X1838199Y422690D02*
X1858199Y422690D01*
X1954199Y429119D02*
X1960866Y433405D01*
X1967533Y433405D01*
X1974199Y429119D01*
X1974199Y416262D01*
X1967533Y411976D01*
X1960866Y411976D01*
X1954199Y416262D01*
X1954199Y429119D01*
X1974199Y429119D02*
X1954199Y416262D01*
X2030866Y411976D02*
X2027533Y411976D01*
X2020866Y416262D01*
X2020866Y429119D01*
X2027533Y433405D01*
X2030866Y433405D01*
X2044199Y411976D02*
X2044199Y433405D01*
X2057533Y433405D01*
X2064199Y429119D01*
X2064199Y426976D01*
X2057533Y422690D01*
X2044199Y422690D01*
X2047533Y422690D02*
X2064199Y411976D01*
X2074199Y416262D02*
X2080866Y411976D01*
X2087533Y411976D01*
X2094199Y416262D01*
X2094199Y429119D01*
X2087533Y433405D01*
X2080866Y433405D01*
X2074199Y429119D01*
X2074199Y416262D01*
X2104199Y433405D02*
X2104199Y416262D01*
X2110866Y411976D01*
X2117533Y411976D01*
X2124199Y416262D01*
X2124199Y433405D01*
X2134199Y411976D02*
X2134199Y433405D01*
X2154199Y411976D01*
X2154199Y433405D01*
X2164199Y411976D02*
X2177533Y411976D01*
X2184199Y416262D01*
X2184199Y429119D01*
X2177533Y433405D01*
X2164199Y433405D01*
X2167533Y433405D02*
X2167533Y411976D01*
X2197533Y433405D02*
X2200866Y433405D01*
X2207533Y429119D01*
X2207533Y416262D01*
X2200866Y411976D01*
X2197533Y411976D01*
G54D12*
X529351Y365640D02*
X535351Y365640D01*
X535351Y371640D01*
X529351Y371640D01*
X529351Y365640D01*
X457333Y415525D02*
X463333Y415525D01*
X463333Y421525D01*
X457333Y421525D01*
X457333Y415525D01*
X1183866Y417548D02*
X1189866Y417548D01*
X1189866Y423548D01*
X1183866Y423548D01*
X1183866Y417548D01*
G04 ColorRGB 00FFFF for the following layer *
%LNBoard Outline*%
%LPD*%
G54D10*
G54D11*
X0Y86150D02*
X883661Y86150D01*
X883661Y600000D01*
X0Y600000D01*
X0Y86150D01*
G54D13*
X-2783Y83589D02*
X-2783Y135484D01*
X-2783Y83589D02*
X86132Y83589D01*
X886366Y83589D02*
X797451Y83589D01*
X886366Y83589D02*
X886366Y135484D01*
X886366Y602540D02*
X886366Y550645D01*
X886366Y602540D02*
X797451Y602540D01*
X-2783Y602540D02*
X86132Y602540D01*
X-2783Y602540D02*
X-2783Y550645D01*
X-52783Y83589D02*
X-152783Y83589D01*
X-102783Y33589D02*
X-102783Y133589D01*
X-140283Y83589D02*
G75*
D01*
G02X-140283Y83589I37500J0*
G01*
X936366Y83589D02*
X1036366Y83589D01*
X986366Y33589D02*
X986366Y133589D01*
X948866Y83589D02*
G75*
D01*
G02X948866Y83589I37500J0*
G01*
X973866Y83589D02*
G75*
D01*
G02X973866Y83589I12500J0*
G01*
X-52783Y602540D02*
X-152783Y602540D01*
X-102783Y552540D02*
X-102783Y652540D01*
X-140283Y602540D02*
G75*
D01*
G02X-140283Y602540I37500J0*
G01*
X-127783Y602540D02*
G75*
D01*
G02X-127783Y602540I25000J0*
G01*
X-115283Y602540D02*
G75*
D01*
G02X-115283Y602540I12500J0*
G01*
G04 ColorRGB 66FFCC for the following layer *
%LNLegend Description*%
%LPD*%
G54D11*
X1091366Y180129D02*
X2256366Y180129D01*
X2256366Y607540D01*
X1091366Y607540D01*
X1091366Y180129D01*
X1282366Y500687D02*
X1282366Y180129D01*
X1473366Y500687D02*
X1473366Y180129D01*
X1724366Y500687D02*
X1724366Y180129D01*
X1915366Y500687D02*
X1915366Y180129D01*
X2256366Y500687D02*
X2256366Y180129D01*
X1091366Y233555D02*
X2256366Y233555D01*
X1091366Y286982D02*
X2256366Y286982D01*
X1091366Y340408D02*
X2256366Y340408D01*
X1091366Y393834D02*
X2256366Y393834D01*
X1100199Y469688D02*
X1106866Y465403D01*
X1113533Y465403D01*
X1120199Y469688D01*
X1100199Y482545D01*
X1106866Y486831D01*
X1113533Y486831D01*
X1120199Y482545D01*
X1130199Y458974D02*
X1133533Y458974D01*
X1150199Y480403D01*
X1130199Y480403D02*
X1140199Y467545D01*
X1160199Y465403D02*
X1160199Y478260D01*
X1160199Y480403D01*
X1160199Y478260D02*
X1163533Y480403D01*
X1166866Y480403D01*
X1170199Y478260D01*
X1173533Y480403D01*
X1176866Y480403D01*
X1180199Y478260D01*
X1180199Y465403D01*
X1170199Y478260D02*
X1170199Y465403D01*
X1190199Y469688D02*
X1196866Y465403D01*
X1203533Y465403D01*
X1210199Y469688D01*
X1210199Y473974D01*
X1203533Y478260D01*
X1196866Y478260D01*
X1190199Y473974D01*
X1190199Y486831D02*
X1190199Y465403D01*
X1220199Y469688D02*
X1226866Y465403D01*
X1233533Y465403D01*
X1240199Y469688D01*
X1240199Y476117D01*
X1233533Y480403D01*
X1226866Y480403D01*
X1220199Y476117D01*
X1220199Y469688D01*
X1253533Y486831D02*
X1253533Y469688D01*
X1260199Y465403D01*
X1091366Y447261D02*
X2256366Y447261D01*
X1321199Y469688D02*
X1327866Y465403D01*
X1334533Y465403D01*
X1341199Y469688D01*
X1321199Y482545D01*
X1327866Y486831D01*
X1334533Y486831D01*
X1341199Y482545D01*
X1361199Y465403D02*
X1361199Y478260D01*
X1361199Y482545D02*
X1361199Y484688D01*
X1381199Y480403D02*
X1401199Y480403D01*
X1381199Y465403D01*
X1401199Y465403D01*
X1431199Y469688D02*
X1424533Y465403D01*
X1417866Y465403D01*
X1411199Y469688D01*
X1411199Y476117D01*
X1417866Y480403D01*
X1424533Y480403D01*
X1431199Y476117D01*
X1427866Y473974D01*
X1411199Y473974D01*
X1482199Y469688D02*
X1488866Y465403D01*
X1495533Y465403D01*
X1502199Y469688D01*
X1502199Y482545D01*
X1495533Y486831D01*
X1488866Y486831D01*
X1482199Y482545D01*
X1482199Y469688D01*
X1495533Y469688D02*
X1502199Y465403D01*
X1512199Y480403D02*
X1512199Y469688D01*
X1518866Y465403D01*
X1525533Y465403D01*
X1532199Y469688D01*
X1532199Y480403D01*
X1532199Y469688D02*
X1532199Y465403D01*
X1545533Y480403D02*
X1555533Y480403D01*
X1558866Y478260D01*
X1558866Y467545D01*
X1555533Y465403D01*
X1545533Y465403D01*
X1542199Y467545D01*
X1542199Y471831D01*
X1545533Y473974D01*
X1558866Y473974D01*
X1558866Y467545D02*
X1562199Y465403D01*
X1572199Y465403D02*
X1572199Y478260D01*
X1572199Y480403D01*
X1572199Y478260D02*
X1575533Y480403D01*
X1582199Y480403D01*
X1585533Y478260D01*
X1585533Y465403D01*
X1618866Y467545D02*
X1615533Y465403D01*
X1612199Y467545D01*
X1612199Y486831D01*
X1605533Y480403D02*
X1618866Y480403D01*
X1642199Y465403D02*
X1642199Y478260D01*
X1642199Y482545D02*
X1642199Y484688D01*
X1678866Y467545D02*
X1675533Y465403D01*
X1672199Y467545D01*
X1672199Y486831D01*
X1665533Y480403D02*
X1678866Y480403D01*
X1692199Y458974D02*
X1695533Y458974D01*
X1712199Y480403D01*
X1692199Y480403D02*
X1702199Y467545D01*
X1733199Y465403D02*
X1733199Y486831D01*
X1746533Y486831D01*
X1753199Y482545D01*
X1753199Y480403D01*
X1746533Y476117D01*
X1733199Y476117D01*
X1766533Y486831D02*
X1766533Y469688D01*
X1773199Y465403D01*
X1796533Y480403D02*
X1806533Y480403D01*
X1809866Y478260D01*
X1809866Y467545D01*
X1806533Y465403D01*
X1796533Y465403D01*
X1793199Y467545D01*
X1793199Y471831D01*
X1796533Y473974D01*
X1809866Y473974D01*
X1809866Y467545D02*
X1813199Y465403D01*
X1839866Y467545D02*
X1836533Y465403D01*
X1833199Y467545D01*
X1833199Y486831D01*
X1826533Y480403D02*
X1839866Y480403D01*
X1873199Y469688D02*
X1866533Y465403D01*
X1859866Y465403D01*
X1853199Y469688D01*
X1853199Y476117D01*
X1859866Y480403D01*
X1866533Y480403D01*
X1873199Y476117D01*
X1869866Y473974D01*
X1853199Y473974D01*
X1903199Y469688D02*
X1896533Y465403D01*
X1889866Y465403D01*
X1883199Y469688D01*
X1883199Y473974D01*
X1889866Y478260D01*
X1896533Y478260D01*
X1903199Y473974D01*
X1903199Y486831D02*
X1903199Y465403D01*
X1924199Y469688D02*
X1930866Y465403D01*
X1937533Y465403D01*
X1944199Y469688D01*
X1924199Y482545D01*
X1930866Y486831D01*
X1937533Y486831D01*
X1944199Y482545D01*
X1957533Y486831D02*
X1957533Y469688D01*
X1964199Y465403D01*
X1984199Y469688D02*
X1990866Y465403D01*
X1997533Y465403D01*
X2004199Y469688D01*
X2004199Y476117D01*
X1997533Y480403D01*
X1990866Y480403D01*
X1984199Y476117D01*
X1984199Y469688D01*
X2030866Y467545D02*
X2027533Y465403D01*
X2024199Y467545D01*
X2024199Y486831D01*
X2017533Y480403D02*
X2030866Y480403D01*
X2074199Y486831D02*
X2074199Y465403D01*
X2094199Y465403D01*
X2124199Y469688D02*
X2117533Y465403D01*
X2110866Y465403D01*
X2104199Y469688D01*
X2104199Y476117D01*
X2110866Y480403D01*
X2117533Y480403D01*
X2124199Y476117D01*
X2120866Y473974D01*
X2104199Y473974D01*
X2134199Y465403D02*
X2134199Y478260D01*
X2134199Y480403D01*
X2134199Y478260D02*
X2137533Y480403D01*
X2144199Y480403D01*
X2147533Y478260D01*
X2147533Y465403D01*
X2164199Y463260D02*
X2170866Y458974D01*
X2177533Y458974D01*
X2184199Y463260D01*
X2184199Y469688D01*
X2184199Y476117D01*
X2177533Y480403D01*
X2170866Y480403D01*
X2164199Y476117D01*
X2164199Y469688D01*
X2170866Y465403D01*
X2177533Y465403D01*
X2184199Y469688D01*
X2210866Y467545D02*
X2207533Y465403D01*
X2204199Y467545D01*
X2204199Y486831D01*
X2197533Y480403D02*
X2210866Y480403D01*
X2224199Y476117D02*
X2230866Y480403D01*
X2237533Y480403D01*
X2244199Y476117D01*
X2244199Y465403D01*
X2224199Y486831D02*
X2224199Y465403D01*
X1091366Y500687D02*
X2256366Y500687D01*
X1392199Y518829D02*
X1392199Y531686D01*
X1398866Y540258D01*
X1405533Y540258D01*
X1412199Y531686D01*
X1412199Y518829D01*
X1392199Y525258D02*
X1412199Y525258D01*
X1425533Y540258D02*
X1425533Y523115D01*
X1432199Y518829D01*
X1455533Y540258D02*
X1455533Y523115D01*
X1462199Y518829D01*
X1512199Y533829D02*
X1512199Y523115D01*
X1518866Y518829D01*
X1525533Y518829D01*
X1532199Y523115D01*
X1532199Y533829D01*
X1532199Y523115D02*
X1532199Y518829D01*
X1542199Y518829D02*
X1542199Y531686D01*
X1542199Y533829D01*
X1542199Y531686D02*
X1545533Y533829D01*
X1552199Y533829D01*
X1555533Y531686D01*
X1555533Y518829D01*
X1582199Y518829D02*
X1582199Y531686D01*
X1582199Y535972D02*
X1582199Y538115D01*
X1618866Y520972D02*
X1615533Y518829D01*
X1612199Y520972D01*
X1612199Y540258D01*
X1605533Y533829D02*
X1618866Y533829D01*
X1632199Y523115D02*
X1638866Y518829D01*
X1645533Y518829D01*
X1652199Y523115D01*
X1632199Y529543D01*
X1638866Y533829D01*
X1645533Y533829D01*
X1652199Y529543D01*
X1695533Y533829D02*
X1705533Y533829D01*
X1708866Y531686D01*
X1708866Y520972D01*
X1705533Y518829D01*
X1695533Y518829D01*
X1692199Y520972D01*
X1692199Y525258D01*
X1695533Y527400D01*
X1708866Y527400D01*
X1708866Y520972D02*
X1712199Y518829D01*
X1722199Y527400D02*
X1732199Y533829D01*
X1735533Y533829D01*
X1742199Y529543D01*
X1722199Y518829D02*
X1722199Y533829D01*
X1772199Y523115D02*
X1765533Y518829D01*
X1758866Y518829D01*
X1752199Y523115D01*
X1752199Y529543D01*
X1758866Y533829D01*
X1765533Y533829D01*
X1772199Y529543D01*
X1768866Y527400D01*
X1752199Y527400D01*
X1822199Y518829D02*
X1822199Y531686D01*
X1822199Y535972D02*
X1822199Y538115D01*
X1842199Y518829D02*
X1842199Y531686D01*
X1842199Y533829D01*
X1842199Y531686D02*
X1845533Y533829D01*
X1852199Y533829D01*
X1855533Y531686D01*
X1855533Y518829D01*
X1902199Y518829D02*
X1902199Y531686D01*
X1902199Y533829D01*
X1902199Y531686D02*
X1905533Y533829D01*
X1908866Y533829D01*
X1912199Y531686D01*
X1915533Y533829D01*
X1918866Y533829D01*
X1922199Y531686D01*
X1922199Y518829D01*
X1912199Y531686D02*
X1912199Y518829D01*
X1932199Y518829D02*
X1932199Y531686D01*
X1932199Y533829D01*
X1932199Y531686D02*
X1935533Y533829D01*
X1938866Y533829D01*
X1942199Y531686D01*
X1945533Y533829D01*
X1948866Y533829D01*
X1952199Y531686D01*
X1952199Y518829D01*
X1942199Y531686D02*
X1942199Y518829D01*
X1091366Y554114D02*
X2256366Y554114D01*
X1497199Y572255D02*
X1510533Y572255D01*
X1517199Y576541D01*
X1517199Y589398D01*
X1510533Y593684D01*
X1497199Y593684D01*
X1500533Y593684D02*
X1500533Y572255D01*
X1527199Y580827D02*
X1537199Y587255D01*
X1540533Y587255D01*
X1547199Y582970D01*
X1527199Y572255D02*
X1527199Y587255D01*
X1567199Y572255D02*
X1567199Y585113D01*
X1567199Y589398D02*
X1567199Y591541D01*
X1590533Y593684D02*
X1590533Y576541D01*
X1597199Y572255D01*
X1620533Y593684D02*
X1620533Y576541D01*
X1627199Y572255D01*
X1677199Y593684D02*
X1677199Y572255D01*
X1697199Y572255D01*
X1727199Y576541D02*
X1720533Y572255D01*
X1713866Y572255D01*
X1707199Y576541D01*
X1707199Y582970D01*
X1713866Y587255D01*
X1720533Y587255D01*
X1727199Y582970D01*
X1723866Y580827D01*
X1707199Y580827D01*
X1737199Y570113D02*
X1743866Y565827D01*
X1750533Y565827D01*
X1757199Y570113D01*
X1757199Y576541D01*
X1757199Y582970D01*
X1750533Y587255D01*
X1743866Y587255D01*
X1737199Y582970D01*
X1737199Y576541D01*
X1743866Y572255D01*
X1750533Y572255D01*
X1757199Y576541D01*
X1787199Y576541D02*
X1780533Y572255D01*
X1773866Y572255D01*
X1767199Y576541D01*
X1767199Y582970D01*
X1773866Y587255D01*
X1780533Y587255D01*
X1787199Y582970D01*
X1783866Y580827D01*
X1767199Y580827D01*
X1797199Y572255D02*
X1797199Y585113D01*
X1797199Y587255D01*
X1797199Y585113D02*
X1800533Y587255D01*
X1807199Y587255D01*
X1810533Y585113D01*
X1810533Y572255D01*
X1847199Y576541D02*
X1840533Y572255D01*
X1833866Y572255D01*
X1827199Y576541D01*
X1827199Y580827D01*
X1833866Y585113D01*
X1840533Y585113D01*
X1847199Y580827D01*
X1847199Y593684D02*
X1847199Y572255D01*

M02*
